{"glyphs":{"0":{"ha":684,"x_min":24,"x_max":656,"o":"m 405 739 q 583 670 507 742 q 620 619 609 650 l 636 603 l 656 520 l 647 427 l 642 420 l 634 378 l 627 370 q 592 296 620 329 l 588 279 l 533 208 q 451 129 503 155 l 440 112 q 358 55 390 95 q 312 27 332 48 l 210 2 q 93 41 142 -3 q 60 83 82 67 q 25 283 6 174 l 27 319 q 56 396 48 355 l 92 463 l 104 474 q 194 581 135 537 l 206 598 q 405 739 289 694 l 405 739 m 417 604 q 325 538 357 592 l 310 527 l 299 506 l 285 498 q 225 437 264 460 q 149 255 162 355 l 149 220 q 208 121 147 146 q 314 163 267 126 l 415 255 l 425 275 l 443 288 q 525 460 510 359 l 525 498 q 451 592 521 580 l 432 604 l 417 604 l 417 604 z "},"1":{"ha":469,"x_min":24,"x_max":444,"o":"m 420 742 l 433 729 l 444 704 q 385 587 449 632 q 356 539 377 559 q 300 421 336 476 q 273 352 297 383 l 258 307 q 231 253 236 284 l 217 235 q 189 176 212 201 q 148 82 178 125 q 115 8 138 42 l 89 0 l 51 6 l 24 37 q 43 106 15 78 l 50 130 l 70 155 l 77 188 l 98 211 l 106 251 l 126 279 q 154 341 132 314 l 162 379 l 182 413 l 189 448 l 211 485 l 212 517 l 197 534 l 173 537 l 148 561 l 142 597 l 169 628 q 218 650 197 631 q 326 719 281 667 q 380 744 350 740 l 420 742 l 420 742 z "},"2":{"ha":645,"x_min":19,"x_max":613,"o":"m 378 755 q 584 693 503 781 q 611 640 591 663 l 613 624 q 596 521 625 566 l 585 478 q 453 349 539 392 l 437 332 l 419 326 q 353 276 390 295 l 336 257 l 314 248 q 225 176 276 204 l 191 137 l 198 113 q 308 97 251 92 l 313 93 q 483 72 405 113 q 486 14 506 47 l 481 8 q 428 1 455 0 l 322 3 l 317 7 l 271 9 l 256 16 l 194 7 l 147 7 l 133 14 q 26 48 70 7 l 19 60 l 23 87 q 179 257 81 190 l 195 275 l 214 284 q 296 350 248 327 q 347 385 317 374 q 408 434 373 416 l 416 445 l 438 459 l 444 471 l 460 481 q 498 531 472 511 l 499 542 q 504 644 536 592 q 396 664 455 689 l 368 652 l 351 636 l 303 612 q 240 643 258 605 q 276 721 229 693 q 319 748 301 729 l 378 755 l 378 755 z "},"3":{"ha":693,"x_min":37,"x_max":665,"o":"m 367 715 q 520 692 448 725 l 542 695 q 640 708 587 725 l 665 681 q 642 637 668 650 l 605 633 q 548 589 583 604 l 533 573 l 526 557 l 490 530 l 461 485 l 464 470 q 533 376 491 418 l 548 315 l 553 310 l 556 224 l 526 143 l 513 132 q 453 54 497 83 q 306 4 387 9 q 147 46 217 -6 l 120 57 l 99 75 l 72 85 l 42 113 l 37 141 q 71 195 29 186 l 108 199 q 207 135 166 182 q 356 138 278 86 q 423 264 423 185 l 413 312 l 381 359 q 240 347 312 383 q 166 374 187 331 q 185 461 156 425 q 258 491 224 468 q 375 558 328 504 l 385 580 l 385 591 l 363 601 l 214 601 q 172 641 175 603 l 177 677 q 367 715 262 736 l 367 715 z "},"4":{"ha":666,"x_min":41,"x_max":617,"o":"m 492 716 l 504 694 l 497 670 l 457 631 l 451 616 q 379 530 406 581 l 364 517 q 316 454 348 480 q 252 366 296 402 q 199 296 232 326 l 199 285 l 214 273 l 314 275 l 319 278 q 392 314 373 267 l 397 340 l 406 349 q 465 451 419 410 q 519 444 493 464 l 529 427 l 528 405 l 485 329 l 483 314 q 566 292 504 269 l 607 317 l 614 315 l 617 302 l 616 286 l 578 232 q 543 208 573 207 l 538 203 q 411 159 451 225 l 403 131 l 388 112 l 381 81 q 358 28 362 58 l 343 11 l 327 2 q 270 30 279 -11 q 301 137 265 88 q 316 178 319 153 l 309 191 l 295 196 l 259 196 l 254 192 l 102 186 q 41 229 53 185 l 41 250 q 175 406 93 339 q 203 441 183 428 l 205 451 l 214 458 q 245 500 224 484 q 357 634 285 581 q 443 727 386 694 l 468 727 l 492 716 l 492 716 z "},"5":{"ha":663,"x_min":26,"x_max":651,"o":"m 620 749 l 641 733 l 651 708 l 648 688 l 623 668 q 479 640 546 674 q 411 608 435 644 l 386 566 l 375 558 l 359 528 l 339 512 l 319 487 l 317 463 l 320 457 q 428 378 392 439 q 426 156 493 266 l 390 103 l 358 70 l 350 68 l 317 44 q 270 21 291 38 l 227 13 l 222 9 l 189 1 q 97 34 138 3 l 89 44 l 80 46 l 36 96 l 26 125 q 59 171 21 165 q 146 125 116 179 l 169 109 l 197 109 l 268 141 q 352 280 352 187 q 295 354 348 338 l 257 354 q 211 336 236 338 q 116 310 170 292 q 92 355 91 327 l 108 390 q 166 452 135 422 l 173 453 q 209 506 199 474 q 278 597 249 547 q 361 721 335 646 l 384 734 q 518 751 453 726 l 620 749 l 620 749 z "},"6":{"ha":618,"x_min":39,"x_max":572,"o":"m 464 735 q 565 697 524 742 l 572 671 q 533 610 578 624 q 353 541 426 627 l 340 522 l 324 510 l 300 475 l 302 466 l 312 460 l 356 459 l 396 446 l 404 438 q 495 354 476 422 q 514 262 528 315 q 354 52 475 127 l 320 34 l 312 23 q 207 3 261 4 q 86 65 134 7 l 52 117 l 39 182 q 71 347 28 271 l 80 387 q 205 549 127 480 q 389 710 271 656 l 464 735 l 464 735 m 299 335 q 230 304 259 330 q 158 225 170 288 q 201 127 139 157 l 227 122 l 265 129 q 378 253 345 169 l 377 282 q 299 335 352 333 l 299 335 z "},"7":{"ha":636,"x_min":63,"x_max":608,"o":"m 252 739 q 404 721 329 741 q 467 709 437 725 q 567 712 517 702 q 607 671 602 706 l 605 655 l 609 650 l 599 621 q 484 509 524 584 l 477 492 l 459 473 l 451 452 q 412 402 425 432 l 393 383 l 385 368 q 337 306 353 344 q 264 209 293 263 l 249 193 q 195 95 233 137 q 154 11 193 43 q 115 2 136 1 l 82 8 l 63 35 q 98 138 61 92 l 115 156 q 163 234 129 201 q 213 306 176 276 q 239 342 220 328 l 245 359 l 288 404 q 314 441 296 426 l 321 459 q 368 520 353 482 l 377 527 l 411 581 l 411 601 l 395 618 q 254 626 325 650 l 219 594 l 213 584 l 198 574 l 193 563 l 174 552 l 160 535 l 149 532 q 110 522 134 515 l 86 538 l 73 564 l 82 595 l 100 611 l 106 622 q 156 672 139 638 q 198 715 183 688 q 252 739 222 734 l 252 739 z "},"8":{"ha":651,"x_min":25,"x_max":601,"o":"m 385 746 q 538 697 472 751 l 591 639 l 601 597 q 541 431 613 500 l 479 378 q 491 292 455 335 q 396 83 502 164 q 218 2 324 11 l 166 5 q 116 25 143 21 l 105 41 l 89 53 q 59 96 79 78 q 26 185 32 138 q 84 376 11 296 q 180 447 126 419 q 190 609 158 531 q 236 649 209 635 q 331 735 271 706 l 385 746 l 385 746 m 399 648 q 287 574 329 632 q 267 529 283 548 q 299 465 270 490 l 329 455 q 468 513 414 442 q 503 574 494 539 l 500 603 l 477 627 l 443 637 l 437 643 l 399 648 l 399 648 m 245 356 q 136 248 174 318 l 130 230 q 168 119 118 161 l 211 111 q 368 198 318 104 l 385 259 l 384 297 l 354 335 l 303 356 l 263 358 l 245 356 l 245 356 z "},"9":{"ha":654,"x_min":27,"x_max":605,"o":"m 458 719 q 512 697 482 701 q 605 542 608 654 l 599 445 q 576 380 596 409 l 563 330 l 551 313 l 545 295 q 511 233 519 269 l 502 224 l 494 196 q 457 147 469 177 q 236 0 373 26 q 94 38 156 -8 q 36 70 61 45 l 27 97 q 36 150 24 124 q 111 164 68 178 l 147 150 l 152 144 q 292 147 227 102 q 327 181 315 159 q 375 238 365 198 l 384 247 l 380 256 l 358 265 q 251 285 299 255 q 202 334 233 317 l 176 368 l 168 412 l 164 417 l 164 447 l 168 453 l 181 516 q 206 569 202 539 l 221 585 q 286 669 237 638 q 375 709 325 701 l 403 723 l 458 719 l 458 719 m 408 600 q 318 527 339 586 l 299 501 q 282 462 297 478 l 280 446 q 334 376 287 395 q 442 410 395 370 l 458 431 q 490 516 461 480 q 459 592 497 564 q 408 600 435 603 l 408 600 z "}," ":{"ha":403,"x_min":0,"x_max":0,"o":""},"!":{"ha":481,"x_min":90,"x_max":380,"o":"m 377 795 l 380 781 l 377 742 q 346 643 351 696 q 304 505 316 576 q 275 413 276 464 q 250 333 255 375 l 242 323 l 218 311 q 174 336 185 309 l 174 373 q 193 443 192 407 l 198 448 l 206 505 l 223 538 q 268 670 230 608 l 282 734 q 337 817 284 799 l 369 808 l 377 795 l 377 795 m 130 85 q 171 33 169 74 l 171 25 l 163 14 l 138 3 q 92 29 104 0 l 91 49 q 113 80 92 70 l 124 80 l 130 85 l 130 85 z "},"\"":{"ha":490,"x_min":116,"x_max":456,"o":"m 286 785 q 265 714 295 743 l 261 699 l 240 678 q 165 574 225 609 l 134 575 l 120 587 l 116 596 q 147 670 111 641 l 212 785 l 241 812 l 275 802 l 286 785 l 286 785 m 456 758 q 424 684 458 713 l 421 674 l 408 663 q 332 574 385 605 l 297 574 l 282 587 l 279 596 q 331 707 275 663 q 407 793 350 766 l 436 786 l 456 758 l 456 758 z "},"#":{"ha":1046,"x_min":41,"x_max":974,"o":"m 505 824 q 544 800 534 825 q 530 739 551 764 l 523 703 q 491 634 500 672 l 479 618 l 470 588 q 541 593 506 580 q 658 588 598 580 l 672 630 l 682 642 q 708 700 688 673 l 722 748 l 732 762 q 774 812 737 801 l 783 812 l 811 792 l 812 759 q 786 676 792 720 q 760 622 765 653 l 747 605 l 745 589 l 936 586 q 974 554 966 582 l 966 523 l 939 509 q 753 513 845 494 l 708 507 q 664 401 694 450 l 660 375 l 882 374 l 897 370 l 918 351 l 921 336 l 915 315 l 886 297 q 813 293 849 301 q 716 299 763 286 l 658 297 l 646 303 l 633 303 q 588 179 594 249 q 555 96 564 141 l 542 76 q 487 -8 535 18 l 464 -8 q 445 46 435 11 q 485 125 456 90 l 486 136 q 516 217 512 172 l 523 224 q 541 297 538 259 l 489 299 l 361 296 l 352 293 q 321 204 343 246 l 317 183 q 292 119 296 155 q 261 51 268 89 q 195 4 244 -2 l 176 26 l 178 64 q 247 230 232 140 q 268 286 266 255 l 265 290 l 165 288 l 153 293 q 50 310 96 278 l 42 331 l 53 358 l 88 372 q 295 367 192 356 q 324 450 319 405 l 342 479 l 348 503 l 161 502 l 125 508 l 103 522 q 110 572 84 549 l 142 584 q 383 584 262 565 l 388 588 q 419 666 392 632 q 445 727 424 700 l 453 761 l 461 771 q 505 824 468 811 l 505 824 m 543 512 q 437 507 491 500 q 415 450 419 481 q 385 376 392 416 l 392 373 q 457 374 424 381 l 487 380 q 576 377 531 371 q 627 506 588 447 l 616 510 l 543 512 l 543 512 z "},"$":{"ha":767,"x_min":47,"x_max":682,"o":"m 571 964 l 576 943 q 541 814 575 874 l 573 807 l 625 775 l 628 767 q 680 705 664 746 l 682 683 l 681 649 l 674 638 l 645 629 q 572 704 596 654 l 528 729 l 513 732 l 509 726 l 495 672 l 489 666 q 456 546 466 608 q 415 432 418 494 l 430 400 q 448 321 429 359 l 450 280 l 450 199 q 430 123 432 163 q 398 66 407 99 q 273 1 355 -2 q 260 -43 261 -20 l 233 -91 l 210 -101 q 167 -71 177 -105 l 167 -36 l 183 8 q 57 110 97 30 l 47 139 l 47 148 l 59 174 l 80 183 l 95 183 l 125 161 q 203 96 150 111 l 213 98 q 234 153 216 128 l 243 193 l 254 211 q 276 272 256 245 l 276 288 q 299 365 296 324 q 323 437 326 396 q 296 500 301 465 l 287 510 l 277 559 l 273 564 l 272 603 l 277 613 l 286 659 q 309 705 303 679 q 429 807 357 772 l 457 813 l 469 840 q 493 932 457 896 l 503 954 l 531 972 l 564 971 l 571 964 l 571 964 m 417 696 q 356 596 367 657 l 359 557 l 367 572 l 370 592 l 379 599 l 386 617 l 395 626 l 420 693 l 417 696 l 417 696 m 363 275 q 330 184 336 234 q 305 107 308 149 l 307 105 l 328 118 l 335 134 l 347 148 l 360 191 l 366 198 l 371 235 l 368 273 l 363 275 l 363 275 z "},"%":{"ha":860,"x_min":36,"x_max":819,"o":"m 193 815 q 290 757 259 815 l 295 726 q 237 586 295 644 l 171 532 l 117 513 q 47 549 71 508 l 37 591 q 67 709 27 656 l 137 785 l 193 815 l 193 815 m 196 758 q 95 647 124 723 l 89 617 l 95 575 l 108 564 l 143 571 q 241 700 218 617 l 232 742 l 218 754 l 196 758 l 196 758 m 760 788 l 759 748 q 688 653 737 689 q 634 591 669 615 q 568 507 611 542 q 506 428 547 459 q 445 355 486 382 q 379 271 421 306 q 316 185 357 221 q 245 92 295 128 l 219 49 l 159 4 l 120 8 l 98 40 q 152 143 96 105 l 177 184 l 200 201 q 272 295 223 259 q 330 368 293 338 l 343 391 q 424 480 396 426 q 475 542 457 504 q 539 625 517 576 l 585 680 q 680 802 605 761 l 703 809 l 748 801 l 760 788 l 760 788 m 716 351 q 813 291 782 349 l 819 260 q 773 136 821 188 q 641 46 723 66 q 570 84 593 41 l 560 125 l 560 175 q 716 351 598 297 l 716 351 m 719 292 q 618 182 648 259 l 612 152 l 618 109 l 632 98 q 715 146 682 99 l 740 174 l 765 235 l 756 276 l 741 288 l 719 292 l 719 292 z "},"&":{"ha":777,"x_min":48,"x_max":702,"o":"m 440 814 q 605 761 532 820 q 676 597 693 700 l 666 550 q 637 506 646 532 l 600 462 l 574 454 q 426 400 515 391 l 425 392 q 479 315 443 348 l 486 294 l 494 284 l 507 290 l 551 358 l 582 386 q 681 388 634 407 l 676 333 l 665 293 l 654 283 l 653 271 q 607 199 622 240 l 582 178 l 582 172 q 636 105 601 131 l 644 88 q 700 33 691 82 l 697 8 l 702 0 l 696 -18 l 667 -27 l 620 -19 l 582 8 l 565 13 q 496 107 521 53 q 300 17 412 27 q 178 20 236 -17 l 146 28 q 113 63 134 51 l 106 80 q 48 203 57 132 q 110 409 32 322 q 217 488 157 457 q 227 665 193 580 q 276 707 247 693 q 381 802 315 770 l 440 814 l 440 814 m 456 707 q 311 577 349 682 q 346 507 315 536 l 378 497 q 533 563 473 483 q 568 627 559 590 l 565 658 q 456 707 523 709 l 456 707 m 162 252 q 203 131 149 176 l 251 121 q 351 142 300 140 q 408 187 386 156 l 421 194 q 371 258 405 234 l 335 321 l 317 333 l 294 372 l 280 384 q 162 252 194 340 l 162 252 z "},"'":{"ha":313,"x_min":128,"x_max":299,"o":"m 265 812 q 300 790 289 813 q 265 676 306 725 l 251 645 q 207 585 223 620 l 192 572 l 173 567 q 129 595 142 565 l 135 636 l 146 646 l 149 656 q 184 718 176 682 l 203 746 q 248 810 208 790 l 265 812 l 265 812 z "},"(":{"ha":567,"x_min":81,"x_max":487,"o":"m 477 793 l 487 770 l 474 735 l 382 662 q 340 592 350 632 l 314 561 l 306 539 l 280 511 q 250 442 275 472 q 216 350 247 391 q 182 258 210 300 l 186 129 q 220 29 213 82 q 273 -47 239 -15 l 282 -69 l 304 -84 l 338 -128 l 331 -170 l 300 -183 q 208 -121 239 -176 q 152 -43 189 -75 q 119 22 144 -6 l 109 70 l 96 92 l 81 168 q 109 322 77 249 q 150 418 113 377 q 184 505 153 466 l 191 539 l 204 559 l 209 578 q 433 808 280 742 l 464 807 l 477 793 l 477 793 z "},")":{"ha":541,"x_min":97,"x_max":457,"o":"m 364 809 q 413 778 397 810 q 430 687 429 733 q 458 572 455 632 q 449 457 464 513 l 449 387 l 445 380 q 389 134 465 247 l 378 100 l 358 73 l 346 30 q 293 -60 313 -11 l 248 -101 l 229 -140 l 197 -182 l 173 -195 l 125 -189 l 106 -170 l 98 -148 l 112 -107 l 165 -55 q 222 20 182 -11 q 254 67 230 48 l 262 90 q 296 165 293 120 q 327 253 325 204 l 345 288 q 352 349 340 320 q 364 472 345 412 q 364 551 353 511 q 336 680 361 618 q 339 795 308 742 l 364 809 l 364 809 z "},"*":{"ha":794,"x_min":53,"x_max":731,"o":"m 212 803 q 268 773 236 781 l 288 748 l 304 739 l 311 725 q 360 762 343 730 l 393 777 q 452 808 414 812 l 465 802 q 509 761 480 775 l 508 726 l 502 712 l 509 700 l 518 700 q 605 735 555 739 l 632 742 q 686 733 658 730 q 732 683 730 727 l 729 649 q 619 603 703 569 l 565 558 l 581 533 q 635 472 627 518 l 636 454 l 614 428 q 574 361 610 384 q 483 406 517 354 l 450 406 l 438 392 q 408 285 459 325 q 351 262 383 266 l 313 268 q 268 395 254 320 l 263 411 l 210 423 q 135 413 177 401 l 120 401 l 110 400 l 92 415 l 85 431 q 53 467 58 436 l 53 485 l 70 502 l 80 505 l 88 513 l 125 519 q 177 528 146 539 l 201 535 l 232 556 l 233 569 l 240 579 l 236 588 q 169 630 188 582 l 163 667 l 135 690 l 133 701 l 121 715 l 115 752 l 121 761 q 160 810 121 797 l 212 803 l 212 803 z "},"+":{"ha":570,"x_min":43,"x_max":523,"o":"m 273 632 q 334 591 319 637 q 323 502 337 545 l 334 433 q 469 440 402 428 l 511 419 l 523 390 q 481 337 521 348 l 466 333 q 381 329 424 342 l 329 336 q 333 206 318 271 l 313 164 l 282 152 q 230 194 241 154 l 226 209 q 222 294 236 252 l 224 336 l 148 328 q 47 366 84 317 l 43 380 q 84 441 38 426 q 173 430 130 444 l 226 436 q 220 533 234 485 q 258 628 212 593 l 273 632 l 273 632 z "},",":{"ha":385,"x_min":107,"x_max":273,"o":"m 208 80 q 273 38 258 84 q 207 -130 275 -59 l 166 -153 l 137 -152 l 107 -127 l 113 -93 q 157 -45 141 -76 l 159 41 l 189 75 l 208 80 l 208 80 z "},"-":{"ha":558,"x_min":57,"x_max":497,"o":"m 94 289 q 255 287 174 276 q 447 287 351 275 l 486 270 l 497 244 q 445 192 493 199 q 360 190 402 200 q 260 191 310 201 q 152 188 205 199 l 93 194 l 62 219 l 57 234 l 57 253 l 66 274 l 94 289 l 94 289 z "},".":{"ha":412,"x_min":152,"x_max":248,"o":"m 182 114 q 242 89 220 122 l 248 78 q 215 -1 267 16 l 177 2 l 161 18 l 152 43 l 157 78 l 182 114 l 182 114 z "},"/":{"ha":711,"x_min":52,"x_max":655,"o":"m 656 722 l 654 687 q 542 543 615 602 l 507 489 l 494 479 q 409 374 460 420 l 401 355 q 328 267 353 320 q 271 192 289 239 q 221 119 237 163 q 161 45 182 90 l 106 4 l 80 4 l 64 12 l 52 37 q 100 131 48 96 l 121 168 l 144 185 q 203 263 163 233 q 266 342 227 308 l 275 360 q 349 441 322 392 q 459 582 416 502 l 496 623 l 516 675 l 534 700 l 551 707 l 576 732 l 605 742 l 646 734 l 656 722 l 656 722 z "},":":{"ha":391,"x_min":86,"x_max":262,"o":"m 251 359 l 262 346 l 261 317 l 239 294 q 187 325 199 289 l 187 346 l 203 360 l 229 369 l 251 359 l 251 359 m 155 75 l 167 48 l 157 13 l 129 3 l 99 13 l 86 37 l 86 53 l 95 74 l 121 84 l 155 75 l 155 75 z "},";":{"ha":493,"x_min":72,"x_max":321,"o":"m 321 334 l 319 306 l 297 282 q 245 313 256 278 l 248 338 l 265 352 l 287 358 l 310 348 l 321 334 l 321 334 m 172 70 q 238 25 223 74 q 171 -142 239 -71 l 130 -165 l 101 -164 l 72 -138 l 77 -105 q 121 -58 104 -86 l 124 31 l 153 64 l 172 70 l 172 70 z "},"<":{"ha":666,"x_min":45,"x_max":615,"o":"m 563 623 l 582 603 q 549 532 590 556 l 526 527 q 423 482 480 491 l 400 466 l 360 454 l 305 425 l 298 417 q 238 371 242 415 l 267 350 l 287 346 l 294 338 l 328 330 l 335 323 l 438 299 l 570 255 l 595 243 l 615 218 q 592 172 619 188 l 570 169 q 464 195 514 171 l 403 204 q 292 234 353 234 l 284 240 l 260 245 l 244 257 l 217 261 l 207 269 q 120 304 158 273 q 55 330 83 307 l 45 353 l 54 398 q 130 443 84 436 q 180 467 152 461 l 194 484 q 270 507 230 502 l 336 546 l 361 551 q 512 624 440 579 l 534 625 l 563 623 l 563 623 z "},"=":{"ha":716,"x_min":47,"x_max":669,"o":"m 262 530 q 328 523 297 534 q 536 523 432 535 q 658 507 606 549 l 664 484 q 611 432 660 438 q 526 428 568 441 q 435 428 480 445 q 350 426 393 439 q 143 425 247 443 l 84 432 l 53 457 l 48 472 q 85 528 42 514 l 176 519 l 254 525 l 262 530 l 262 530 m 318 322 l 334 315 l 375 315 l 379 319 q 463 317 421 328 q 620 323 542 311 l 658 306 l 669 278 q 617 225 666 233 q 533 222 575 234 q 440 222 486 236 q 355 220 397 231 q 150 219 252 234 l 89 225 l 57 252 l 53 266 q 91 322 48 308 q 221 319 157 301 l 259 319 l 267 324 l 318 322 l 318 322 z "},">":{"ha":660,"x_min":42,"x_max":611,"o":"m 86 631 q 193 605 142 629 l 254 595 q 365 566 303 566 l 375 558 l 396 555 l 412 544 q 536 496 481 536 l 566 490 l 595 476 l 611 448 l 603 404 q 528 360 573 367 q 453 324 495 332 l 438 309 l 416 303 l 374 276 l 371 270 l 313 248 q 218 192 274 208 q 135 146 183 157 l 93 152 l 78 164 l 72 204 q 147 254 95 250 l 182 271 l 203 292 q 246 320 229 299 q 312 354 282 331 l 329 358 q 405 401 362 389 l 414 413 l 418 430 l 392 449 l 370 454 l 362 462 l 329 470 l 321 476 l 185 511 q 95 541 146 540 l 61 557 l 42 582 q 65 628 37 613 l 86 631 l 86 631 z "},"?":{"ha":678,"x_min":80,"x_max":642,"o":"m 431 816 q 602 745 533 821 q 642 659 635 709 l 640 593 q 620 536 622 567 q 509 429 586 458 l 490 414 q 292 375 393 384 l 280 364 q 242 293 270 324 l 215 215 l 190 198 q 137 215 159 193 l 134 227 l 134 258 q 162 360 156 307 q 224 481 169 437 q 389 494 303 510 l 439 506 l 497 534 q 536 657 543 589 q 470 719 519 703 l 382 718 l 374 711 l 312 696 l 234 646 l 201 653 l 181 680 q 261 775 189 752 q 431 816 340 821 l 431 816 m 150 89 l 161 79 l 169 51 l 174 47 q 147 -1 178 9 q 81 40 91 -13 l 91 76 l 115 91 l 150 89 l 150 89 z "},"@":{"ha":830,"x_min":54,"x_max":769,"o":"m 525 809 q 692 741 624 814 q 770 553 773 665 q 749 393 785 468 l 732 329 l 724 319 q 698 259 719 286 q 641 205 690 213 q 489 236 558 190 q 443 222 461 242 q 268 222 357 168 q 198 333 213 266 q 259 451 197 409 q 373 474 311 484 q 448 441 416 468 l 474 435 l 480 429 l 511 422 l 526 440 q 544 486 529 466 l 547 513 l 542 533 q 422 563 491 576 q 383 614 384 577 l 397 638 l 424 651 l 508 658 l 515 653 q 635 594 599 663 q 630 470 659 531 q 615 414 634 437 l 594 341 l 601 304 l 617 286 q 647 333 625 313 l 666 375 q 683 470 661 426 l 683 542 l 678 567 l 673 572 l 666 635 l 657 657 l 645 667 q 565 720 623 715 l 504 720 l 432 709 q 382 686 410 689 q 320 641 344 672 l 310 638 l 255 583 q 169 427 188 515 l 148 381 q 159 193 125 284 q 342 65 227 94 l 385 58 l 465 60 l 622 92 l 647 106 l 671 132 l 682 137 l 700 158 l 728 178 l 751 179 l 766 168 l 765 148 l 732 110 l 631 43 q 367 4 501 7 q 208 61 279 12 l 186 69 q 120 117 157 99 l 80 166 q 59 234 77 202 l 54 283 l 54 333 l 66 414 q 106 500 95 453 q 131 549 126 521 q 247 697 173 636 q 357 766 286 757 l 386 777 l 393 785 q 525 809 456 809 l 525 809 m 314 341 l 329 318 l 345 307 l 367 307 l 403 331 l 403 340 l 386 351 l 345 360 l 314 341 l 314 341 z "},"A":{"ha":803,"x_min":36,"x_max":672,"o":"m 651 794 q 656 646 642 720 q 656 466 640 555 q 660 311 646 388 q 673 66 634 187 q 644 -17 688 11 l 617 -11 l 600 6 l 595 37 l 591 42 l 588 81 q 571 152 572 115 l 547 168 l 454 164 l 448 161 l 224 157 l 192 130 l 186 116 q 117 19 140 78 q 45 15 82 -7 l 36 31 q 85 123 33 91 q 130 175 103 153 q 204 275 155 233 q 250 343 217 315 q 305 419 268 388 l 320 452 l 330 460 q 410 582 361 527 q 462 652 426 624 l 471 673 q 508 715 495 689 q 551 775 538 739 q 611 813 576 802 l 637 809 l 651 794 l 651 794 m 513 594 q 463 516 478 561 q 371 380 405 457 q 312 290 331 342 l 301 281 l 294 258 l 300 245 l 349 247 l 354 243 l 389 243 l 395 247 q 557 256 477 234 l 572 277 l 572 348 l 575 352 q 572 492 564 421 l 575 496 q 564 637 582 568 l 558 639 l 513 594 l 513 594 z "},"B":{"ha":741,"x_min":70,"x_max":630,"o":"m 455 819 q 598 758 545 829 q 630 700 621 733 q 597 560 641 624 l 578 540 l 561 506 l 562 496 l 569 491 q 597 440 575 462 q 618 280 629 364 l 595 200 l 582 186 q 550 135 574 156 l 544 121 q 488 64 511 97 q 419 33 450 56 q 292 12 358 5 l 268 6 q 155 21 209 -1 l 103 27 l 80 40 l 70 68 l 75 104 l 97 143 l 100 162 q 131 238 125 195 l 137 244 l 145 295 l 156 329 l 162 334 q 189 418 165 380 l 202 479 l 214 498 q 239 595 212 552 l 252 648 l 264 665 l 271 700 l 283 733 l 290 741 l 302 787 l 335 810 l 455 819 l 455 819 m 429 718 q 347 685 373 729 q 329 635 345 657 q 308 562 326 596 l 310 543 l 336 525 q 468 548 405 522 l 473 555 l 491 565 q 520 597 500 585 l 546 652 l 543 682 l 517 711 q 433 721 477 728 l 429 718 l 429 718 m 285 430 q 239 328 242 388 l 222 294 l 214 244 q 189 154 189 204 l 184 149 q 213 109 181 114 l 277 109 l 282 104 l 291 109 q 441 144 373 101 q 528 297 513 205 q 502 405 543 359 q 363 432 440 445 l 285 430 l 285 430 z "},"C":{"ha":720,"x_min":55,"x_max":682,"o":"m 472 814 q 541 802 509 818 q 652 733 616 800 l 664 706 l 673 700 l 682 669 q 658 630 688 635 l 641 630 l 608 655 l 604 665 l 552 721 q 337 671 434 748 q 283 628 315 644 q 235 577 266 597 q 131 328 150 466 q 161 164 123 241 q 201 121 177 138 q 250 82 216 90 q 406 91 330 64 l 463 124 l 519 147 l 532 144 l 547 121 l 541 92 q 477 48 515 62 l 460 33 q 420 17 438 30 l 325 -1 l 281 -1 l 219 16 l 204 28 l 186 33 l 120 81 q 59 268 49 163 l 55 273 q 82 405 52 342 l 90 454 q 138 564 127 502 q 179 621 154 596 l 184 638 q 262 711 215 685 q 396 804 306 785 l 472 814 l 472 814 z "},"D":{"ha":836,"x_min":65,"x_max":723,"o":"m 487 817 q 616 780 561 825 l 673 718 l 673 707 q 723 601 713 661 l 720 466 l 712 434 l 706 428 l 689 350 q 665 291 670 325 q 606 185 626 243 q 547 106 571 150 q 378 14 480 26 l 374 9 l 323 7 l 318 3 q 215 1 266 16 l 113 9 l 108 14 q 65 56 72 16 l 70 111 l 83 131 q 108 189 86 164 q 135 265 114 230 l 143 310 l 161 342 q 189 431 162 391 q 209 497 191 467 l 224 560 q 310 765 290 651 q 369 815 327 806 l 469 811 l 487 817 l 487 817 m 381 697 q 352 645 372 668 l 342 616 l 337 613 q 305 546 329 575 q 243 374 294 451 q 229 317 245 344 q 198 210 227 259 l 182 140 l 185 107 l 201 93 l 225 89 q 313 97 268 104 q 392 117 350 118 q 510 213 465 142 q 571 324 551 263 l 582 338 q 611 418 588 382 l 625 501 l 630 507 l 625 514 l 625 548 l 630 553 l 630 566 l 625 572 q 583 673 626 631 q 495 724 548 718 l 396 708 l 381 697 l 381 697 z "},"E":{"ha":863,"x_min":96,"x_max":767,"o":"m 761 797 l 767 774 l 761 744 l 744 729 q 472 716 609 697 q 400 648 414 709 l 393 623 q 366 555 364 597 q 359 498 344 527 l 371 493 l 426 490 l 431 486 l 479 486 l 485 490 q 580 490 532 497 l 605 468 l 611 438 q 527 394 590 386 l 522 389 l 492 389 l 486 394 q 397 396 441 398 l 392 400 q 302 374 339 410 q 285 329 287 354 q 257 241 261 289 q 226 127 221 189 l 236 113 q 378 104 305 91 l 383 109 l 393 109 l 398 104 l 522 109 q 553 57 554 93 q 501 15 546 15 l 365 12 l 358 7 q 216 -1 288 -4 l 135 1 l 107 17 l 96 35 q 126 145 91 94 l 134 179 l 154 213 l 156 235 l 175 291 l 181 297 l 217 422 l 223 429 q 257 518 232 476 l 270 588 l 284 606 l 299 660 q 327 725 322 688 q 359 795 354 754 l 387 812 q 544 810 466 792 l 602 806 l 607 810 l 683 812 l 689 816 l 745 811 l 761 797 l 761 797 z "},"F":{"ha":830,"x_min":66,"x_max":736,"o":"m 725 808 l 736 781 l 726 747 q 620 721 678 715 l 614 716 q 536 710 574 722 l 470 708 l 465 703 q 371 662 405 710 q 328 553 332 613 l 311 503 l 311 467 l 328 457 q 489 470 410 439 q 548 450 526 479 l 549 420 q 442 373 516 362 q 284 356 366 343 q 240 284 243 334 q 193 141 205 217 q 160 34 165 91 q 121 3 145 12 l 87 9 l 66 39 q 110 180 61 116 l 113 202 l 138 251 l 140 270 q 166 346 164 304 q 199 439 195 387 q 254 618 246 521 l 265 636 q 294 718 267 682 q 360 793 302 779 q 517 810 440 781 l 641 807 l 665 817 l 685 818 l 699 818 l 725 808 l 725 808 z "},"G":{"ha":788,"x_min":65,"x_max":695,"o":"m 632 792 l 656 775 l 667 760 q 626 696 676 706 l 579 696 q 459 705 520 725 q 226 480 310 626 l 212 447 l 198 431 q 172 363 193 393 q 172 208 151 285 q 261 119 199 146 l 275 115 l 378 116 q 434 144 403 137 q 576 315 530 210 l 566 340 l 546 346 l 484 332 q 376 373 411 312 q 406 434 368 418 l 455 436 l 461 441 q 555 450 508 452 l 561 455 q 660 449 612 466 l 687 430 l 695 406 q 670 299 697 349 l 662 257 q 631 198 637 232 l 621 191 q 570 132 603 155 l 561 115 q 491 56 519 94 q 314 6 412 3 q 161 59 226 -4 q 77 165 104 102 q 65 290 85 230 q 77 363 60 328 l 87 428 l 94 434 l 100 457 q 207 619 138 549 l 227 652 q 297 719 268 679 q 394 788 351 743 l 421 803 l 492 814 l 515 814 l 632 792 l 632 792 z "},"H":{"ha":987,"x_min":58,"x_max":934,"o":"m 425 794 q 429 712 452 754 l 414 695 q 384 628 407 659 q 337 481 379 549 q 319 408 318 446 l 331 397 l 373 397 l 379 402 q 495 420 435 426 q 684 436 588 444 l 702 442 q 751 559 739 494 l 766 583 l 804 727 l 831 782 q 919 795 867 828 l 928 786 l 934 768 l 927 719 q 892 626 899 676 q 860 547 864 592 q 829 463 832 510 q 766 283 780 380 q 737 205 742 249 l 723 183 q 692 78 715 129 q 643 -10 697 17 q 586 14 606 -18 l 580 36 l 590 118 l 596 124 l 604 168 l 612 176 q 642 251 618 218 q 647 320 653 285 l 633 327 q 394 293 510 334 l 356 293 q 267 272 316 271 l 230 216 l 221 166 q 185 74 190 125 q 83 -3 161 -12 l 67 14 l 58 39 q 91 130 61 89 l 109 195 l 129 225 q 157 298 134 264 q 187 366 164 335 l 197 412 q 228 485 222 444 l 242 505 q 281 624 250 568 q 313 709 284 671 q 362 802 317 768 l 383 808 l 394 808 l 425 794 l 425 794 z "},"I":{"ha":597,"x_min":104,"x_max":467,"o":"m 430 812 q 467 788 457 814 q 453 728 475 753 l 447 692 q 412 618 422 659 q 386 557 390 591 l 367 527 q 322 409 358 463 l 314 374 l 309 368 q 280 292 303 326 q 246 198 271 242 l 240 167 l 229 153 q 195 73 223 108 q 161 7 190 34 l 146 0 l 121 1 l 105 22 q 144 132 100 84 l 150 154 l 162 174 q 188 246 166 214 l 201 307 l 212 321 q 238 391 215 360 l 246 433 q 271 484 267 455 q 296 548 292 512 l 314 578 q 365 702 323 646 q 408 801 373 757 l 430 812 l 430 812 z "},"J":{"ha":785,"x_min":56,"x_max":713,"o":"m 661 816 q 713 776 699 817 q 694 708 722 736 q 638 594 685 642 q 604 488 608 546 q 545 302 559 400 q 522 241 524 275 q 493 167 498 208 q 423 69 472 108 q 384 41 400 61 q 254 2 324 4 q 184 22 214 -3 q 93 104 148 75 q 56 157 67 125 q 87 207 50 197 q 191 153 154 216 l 208 145 q 287 112 236 102 l 297 119 q 400 211 368 136 l 412 243 q 466 388 465 305 q 494 491 490 436 q 527 594 523 539 q 573 702 540 653 l 584 741 q 661 816 600 806 l 661 816 z "},"K":{"ha":883,"x_min":60,"x_max":811,"o":"m 811 778 q 776 703 817 731 q 659 598 706 665 q 594 544 620 580 q 514 465 541 516 l 514 423 l 518 417 q 547 320 519 365 l 553 206 l 557 201 q 586 72 565 135 l 586 33 q 562 5 577 16 l 530 4 l 507 20 l 492 51 l 484 59 l 478 99 l 474 105 l 465 177 l 461 182 l 441 348 l 412 379 l 402 379 q 315 327 365 343 l 263 290 q 209 158 223 230 l 189 129 q 164 65 186 93 q 123 -3 165 16 l 95 -3 q 60 53 63 16 q 104 157 72 110 q 129 219 107 192 q 155 278 133 253 l 163 314 q 214 443 205 372 q 240 508 236 472 l 258 536 q 286 605 261 575 l 291 636 l 310 668 l 318 706 l 363 792 q 419 807 386 820 q 444 752 451 791 l 441 719 q 387 614 399 673 l 378 604 q 345 507 371 552 l 345 493 l 352 483 q 396 514 380 485 q 430 538 417 521 l 455 548 q 549 635 507 586 q 608 688 586 654 q 693 765 657 718 l 706 772 l 719 790 l 766 814 l 801 803 l 811 778 l 811 778 z "},"L":{"ha":558,"x_min":65,"x_max":446,"o":"m 428 806 q 406 721 440 758 l 398 691 q 372 613 370 658 l 348 562 q 322 483 348 519 q 282 377 317 425 l 268 331 l 256 316 q 223 250 249 278 l 211 199 q 183 123 182 166 l 196 109 l 211 101 q 427 78 326 127 l 446 50 l 446 37 l 431 15 l 409 6 l 317 14 l 251 12 l 246 9 l 149 12 q 74 16 112 -4 l 65 37 l 67 76 q 100 174 95 121 q 127 230 120 198 l 138 243 q 164 295 144 273 l 177 337 l 190 354 q 216 409 195 385 q 247 489 224 452 q 273 568 249 531 l 280 601 q 307 672 304 632 q 334 749 332 706 q 372 805 359 773 l 389 817 l 415 817 l 428 806 l 428 806 z "},"M":{"ha":1260,"x_min":104,"x_max":1172,"o":"m 1173 779 q 1144 703 1178 733 q 1078 487 1097 599 q 1049 400 1056 446 l 1031 369 q 994 243 1022 303 q 970 162 993 200 q 930 15 965 84 l 897 6 q 849 40 856 4 q 871 157 838 104 q 903 250 876 207 q 929 332 907 294 q 962 437 928 389 q 986 538 965 490 l 986 548 l 978 559 l 955 554 q 869 475 919 507 l 789 393 l 766 382 q 612 217 673 314 q 541 205 581 182 q 500 311 494 246 q 449 444 483 380 q 411 583 448 518 l 398 585 l 367 544 q 330 464 356 501 q 281 315 319 385 q 249 214 281 259 q 220 116 245 162 q 170 11 214 53 l 137 10 l 112 30 l 104 54 l 106 116 l 120 132 l 136 187 l 170 272 l 178 281 q 241 466 194 379 l 247 512 q 275 585 270 545 q 330 757 325 663 q 395 808 346 805 l 411 804 l 421 792 l 438 785 q 483 696 475 748 q 508 628 506 666 l 530 584 l 541 509 l 570 423 l 592 394 l 608 389 q 667 432 643 403 q 710 468 694 444 q 775 526 750 487 q 940 670 865 591 q 1069 785 1018 709 l 1098 807 l 1120 813 l 1153 808 l 1173 779 l 1173 779 z "},"N":{"ha":1010,"x_min":62,"x_max":915,"o":"m 417 794 l 428 736 q 461 661 453 703 l 468 652 q 502 567 473 604 q 530 460 506 511 l 537 406 l 546 377 l 553 371 l 561 343 l 592 296 l 601 262 l 628 233 l 635 234 l 642 256 l 663 286 l 670 312 l 676 319 q 697 377 678 351 q 719 441 698 412 q 753 546 722 498 l 763 601 q 792 689 790 640 l 809 714 q 849 808 809 770 q 915 773 900 824 l 910 736 l 898 716 q 873 650 892 680 q 849 568 871 605 q 813 439 845 499 q 792 375 812 404 l 782 317 q 755 256 760 290 q 726 171 728 219 l 701 116 l 698 89 q 679 27 680 61 l 665 5 l 649 -1 q 569 38 598 -4 q 530 158 574 106 q 502 231 523 197 l 500 249 q 472 351 472 295 l 466 371 l 453 389 l 438 453 l 426 468 l 390 573 l 379 585 q 334 536 340 576 q 306 472 310 508 l 286 440 l 270 360 q 231 270 263 308 q 201 180 226 221 q 173 95 200 133 l 159 37 q 89 1 137 -9 l 75 11 l 62 33 q 80 87 59 64 l 89 137 l 105 162 q 136 231 111 201 q 193 413 144 327 q 220 501 197 460 q 249 586 225 547 l 257 633 l 277 658 q 305 743 282 703 q 358 814 304 799 l 399 809 l 417 794 l 417 794 z "},"O":{"ha":874,"x_min":64,"x_max":779,"o":"m 533 814 q 621 795 582 824 l 635 792 l 657 777 l 671 773 l 704 742 l 750 687 q 773 616 755 650 l 775 564 l 779 560 l 779 477 q 758 400 780 435 q 726 307 751 350 l 724 294 q 697 241 705 271 q 577 114 653 163 l 548 84 q 450 33 496 64 l 351 1 q 299 7 326 11 q 139 106 201 30 l 121 119 q 82 211 89 160 l 72 230 l 64 289 q 145 561 56 436 q 172 607 164 580 q 217 669 200 634 q 271 720 249 690 q 326 752 296 742 l 346 769 q 417 795 385 773 q 533 814 473 814 l 533 814 m 445 717 q 392 691 422 696 q 330 648 355 676 l 321 646 q 188 465 235 571 q 159 388 182 424 q 150 314 160 350 q 172 195 145 252 q 246 120 202 150 q 335 92 289 98 l 375 94 q 451 118 411 113 q 521 160 481 148 l 550 184 q 602 244 568 220 q 627 288 608 270 l 630 302 q 663 360 654 327 l 670 367 q 680 443 683 403 l 692 475 q 680 594 702 537 q 651 676 686 645 l 644 691 q 513 726 589 741 l 445 717 l 445 717 z "},"P":{"ha":711,"x_min":51,"x_max":653,"o":"m 391 810 q 564 793 480 827 q 653 662 644 753 q 634 494 661 576 q 458 337 572 386 q 297 312 380 302 q 207 232 225 305 q 178 136 199 182 l 175 108 q 143 29 153 71 l 134 16 l 105 -3 l 75 1 l 51 27 q 87 145 44 93 q 144 319 94 241 q 195 469 157 399 q 253 632 201 556 q 291 747 258 694 q 336 817 297 792 l 371 817 l 391 810 l 391 810 m 413 719 q 336 632 341 712 l 328 623 l 314 548 q 283 460 281 511 l 275 441 l 283 427 l 304 419 q 523 505 436 409 q 553 587 558 539 l 558 592 l 558 636 l 553 642 q 512 704 559 690 q 413 719 464 724 l 413 719 z "},"Q":{"ha":880,"x_min":55,"x_max":810,"o":"m 714 756 l 753 713 l 759 697 q 810 544 817 633 l 802 454 l 798 449 q 728 273 786 354 l 681 209 q 667 125 643 169 q 707 73 683 95 q 706 23 712 48 l 689 7 l 663 3 l 633 19 l 589 73 l 562 77 l 524 45 l 466 11 l 389 0 q 333 7 360 -3 l 274 5 l 179 41 q 119 99 159 79 q 72 185 104 147 l 66 198 q 55 302 68 252 q 71 420 49 364 q 144 607 70 529 l 153 629 q 200 688 183 654 l 228 714 l 237 718 q 310 769 261 764 l 347 789 q 444 813 398 792 l 598 811 l 714 756 l 714 756 m 531 723 q 442 716 488 710 l 414 709 l 398 697 l 355 686 q 307 657 335 665 q 256 611 287 627 q 150 395 177 515 l 148 299 l 143 295 l 143 266 l 148 261 q 161 207 139 227 l 174 176 q 206 139 195 161 l 288 97 l 332 91 l 369 95 l 413 120 l 446 122 l 499 152 l 515 180 l 510 203 q 493 276 478 236 l 510 293 l 548 288 l 588 252 l 618 274 l 633 306 q 682 392 674 339 l 692 405 l 708 472 l 714 478 l 721 510 l 726 514 l 726 565 l 721 569 l 720 586 q 676 646 705 621 l 674 655 q 531 723 616 721 l 531 723 z "},"R":{"ha":741,"x_min":64,"x_max":677,"o":"m 504 813 q 655 736 608 831 l 677 659 q 641 540 684 593 l 631 504 q 481 368 577 409 q 467 304 450 346 l 471 300 l 478 269 l 485 263 q 514 194 492 225 q 562 68 525 125 q 546 8 574 30 l 523 3 q 466 69 477 18 l 458 110 l 448 122 q 419 208 444 170 l 387 298 l 364 312 q 236 283 296 318 q 202 196 207 244 l 184 170 q 160 97 181 131 q 127 3 159 45 l 102 -5 l 75 0 l 64 12 l 64 40 l 73 61 l 73 83 l 79 97 l 81 117 q 109 183 105 146 l 126 209 q 152 275 130 246 l 159 315 l 176 340 l 183 375 l 200 401 q 230 497 209 451 l 232 517 q 256 575 251 543 l 266 588 l 280 647 q 329 766 322 697 l 366 790 q 504 813 437 789 l 504 813 m 382 684 q 353 624 374 651 q 333 568 351 593 l 327 542 l 308 513 q 281 422 302 466 l 281 395 l 287 390 q 467 458 388 398 l 485 463 q 519 491 498 483 q 584 605 565 541 l 586 624 q 553 721 605 691 l 486 726 l 419 714 l 382 684 l 382 684 z "},"S":{"ha":741,"x_min":51,"x_max":682,"o":"m 489 817 q 664 733 598 823 l 680 705 l 682 683 l 681 649 l 674 638 l 646 629 q 573 704 597 654 q 471 729 528 742 q 363 618 394 697 q 376 526 342 565 q 408 464 384 491 q 432 402 413 431 q 450 323 431 361 l 452 202 q 432 126 434 166 q 297 6 398 21 q 87 70 176 -11 q 61 113 81 95 l 51 142 l 51 152 l 63 177 l 84 186 l 99 186 l 129 164 q 224 93 159 106 q 330 121 283 76 l 337 138 l 350 152 l 362 194 l 368 201 l 374 238 l 368 319 l 363 325 l 356 381 l 337 409 l 332 431 q 298 502 305 461 l 288 515 l 280 559 l 276 565 l 274 604 l 280 613 l 288 659 l 304 683 l 306 695 q 380 771 333 745 q 489 817 420 821 l 489 817 z "},"T":{"ha":693,"x_min":58,"x_max":670,"o":"m 136 824 q 234 818 184 812 l 252 811 q 387 808 320 823 q 443 815 416 805 q 552 808 498 822 l 633 824 l 662 807 l 670 781 q 634 726 675 742 q 528 723 581 710 q 414 677 452 738 q 396 613 399 647 l 377 579 l 375 557 q 343 461 352 512 l 336 456 l 317 389 l 303 371 q 271 273 301 317 l 262 228 l 252 210 l 249 185 l 244 180 q 225 106 246 140 q 175 6 224 43 l 162 4 l 144 4 l 119 23 q 128 109 104 68 l 136 169 l 155 202 q 188 315 160 262 l 190 334 q 215 402 212 365 q 243 484 239 439 l 262 516 q 294 627 267 575 l 309 693 l 286 717 l 237 717 l 232 721 l 173 723 l 168 728 q 88 729 128 732 l 69 744 l 58 766 l 70 801 l 93 815 l 136 824 l 136 824 z "},"U":{"ha":896,"x_min":67,"x_max":808,"o":"m 808 796 q 792 714 812 753 q 779 637 795 675 l 773 579 q 747 511 752 549 l 734 489 q 707 416 732 449 q 654 290 693 347 l 633 196 l 628 190 l 628 166 l 633 161 l 641 124 l 646 118 l 651 98 l 666 78 q 612 16 665 27 l 585 25 l 559 53 l 538 120 l 529 133 q 470 106 495 132 l 421 67 q 363 36 389 59 l 352 35 l 322 14 l 292 6 q 119 64 191 -11 q 67 156 83 104 l 73 234 q 110 343 76 295 q 138 420 113 386 l 145 454 q 172 514 166 480 q 199 571 194 538 l 219 603 q 267 718 228 666 q 285 796 267 760 q 348 805 316 825 l 354 788 l 352 713 q 298 579 312 651 q 267 517 274 553 l 253 499 q 213 403 245 446 q 193 325 196 366 l 168 278 l 166 218 l 161 213 l 161 179 q 225 98 180 129 q 281 109 258 85 q 409 183 360 120 l 480 233 l 566 314 q 593 361 573 341 l 600 394 q 652 525 641 452 l 659 531 q 739 807 660 685 l 767 818 l 800 810 l 808 796 l 808 796 z "},"V":{"ha":809,"x_min":130,"x_max":738,"o":"m 727 810 l 738 784 l 728 745 l 711 730 q 628 615 679 666 q 583 544 614 573 l 564 510 q 507 432 524 480 l 497 424 q 434 323 476 367 q 390 250 419 282 q 337 172 377 202 q 280 95 320 125 q 206 3 262 34 l 193 1 l 160 3 l 142 23 q 136 172 126 97 l 131 219 q 140 301 127 262 l 143 396 l 148 401 l 148 455 l 156 502 l 161 508 l 161 643 q 177 785 149 718 l 203 800 l 231 791 q 249 687 260 744 q 237 537 224 614 l 229 472 l 224 467 l 222 290 l 218 285 q 232 202 208 239 l 239 202 l 269 224 q 326 299 288 268 q 436 469 370 391 q 482 542 449 512 l 488 559 q 577 682 542 614 l 587 689 l 632 763 l 645 774 l 654 790 l 690 815 l 716 815 l 727 810 l 727 810 z "},"W":{"ha":1107,"x_min":70,"x_max":1014,"o":"m 1015 808 q 972 722 1019 756 q 937 659 963 686 q 891 567 925 606 q 841 487 876 520 q 789 399 828 436 q 764 350 783 371 l 745 300 l 738 293 l 732 268 l 686 211 q 649 139 657 179 q 617 86 627 117 l 585 36 l 562 24 l 534 27 q 490 139 484 70 q 496 283 482 212 l 496 455 l 491 489 l 481 501 q 447 461 468 477 l 439 442 l 423 422 l 415 399 l 397 381 q 369 331 390 352 l 363 313 q 337 273 345 296 q 286 192 294 242 l 263 163 l 256 142 l 239 124 l 230 103 l 214 85 l 205 63 l 146 10 l 125 0 q 70 62 71 -1 q 127 351 76 211 l 130 408 l 136 414 l 142 438 l 149 446 l 173 540 l 179 548 l 195 666 l 205 681 l 208 705 l 219 740 l 229 748 q 277 777 239 785 q 298 733 303 764 l 292 724 q 267 605 294 661 q 247 526 267 562 q 212 407 236 464 q 194 294 216 348 l 183 229 l 188 207 l 194 202 l 203 207 l 212 229 q 265 309 251 261 q 326 409 310 351 l 333 414 l 352 448 l 362 455 l 378 487 l 390 497 l 396 514 l 414 536 l 423 566 q 449 607 442 583 l 468 628 q 536 677 484 677 q 577 592 592 649 l 571 216 l 578 195 l 588 191 q 649 275 609 240 l 659 307 q 679 358 680 327 l 704 393 l 708 409 l 721 419 q 753 471 731 450 q 808 569 771 525 l 809 580 q 892 740 870 648 q 978 827 924 795 l 1005 825 l 1015 808 l 1015 808 z "},"X":{"ha":974,"x_min":58,"x_max":907,"o":"m 839 811 q 906 786 882 819 l 908 769 q 864 714 905 730 q 786 643 832 670 q 749 610 772 621 l 740 595 l 729 590 l 685 546 q 619 483 644 525 q 553 401 570 453 l 551 389 q 576 298 572 345 q 598 237 596 271 q 629 155 625 201 l 640 129 l 643 107 q 653 24 678 65 q 581 28 617 -5 l 569 61 q 542 131 542 90 q 516 216 520 171 q 485 286 493 247 l 475 296 l 451 299 l 413 271 l 406 260 q 347 207 370 239 q 296 155 314 188 l 254 121 q 202 69 238 86 q 165 26 179 52 q 121 4 146 9 q 58 41 72 2 l 58 61 q 194 197 104 148 q 307 311 241 262 l 309 318 q 374 383 352 340 q 419 469 424 415 l 406 508 l 397 517 l 393 538 l 388 543 l 386 577 q 354 681 357 625 l 328 738 q 343 799 315 778 q 426 751 404 807 q 459 675 433 708 l 466 640 q 499 561 492 605 l 509 547 l 531 540 l 564 563 l 574 579 l 591 588 l 601 604 l 622 615 q 684 671 646 651 q 740 719 706 703 q 839 811 779 778 l 839 811 z "},"Y":{"ha":642,"x_min":69,"x_max":593,"o":"m 556 816 q 593 800 583 822 l 584 772 q 493 662 530 725 q 422 556 444 619 q 364 473 382 521 l 325 433 q 300 396 318 411 l 294 377 l 255 327 q 231 270 250 295 l 224 229 q 202 179 205 207 l 185 153 q 161 65 184 106 l 156 38 l 127 8 l 103 -1 l 80 7 l 69 24 l 71 65 q 99 159 94 109 q 168 386 162 263 q 160 475 195 430 q 138 546 160 514 l 133 600 l 114 639 l 88 725 l 91 759 l 101 769 q 154 754 132 775 l 159 742 l 173 729 q 201 659 180 691 l 207 622 l 211 618 q 230 542 227 582 l 253 498 l 264 488 l 284 497 l 305 529 l 315 535 q 370 622 353 573 l 384 635 q 411 676 393 659 l 417 692 q 441 729 434 707 q 487 783 470 750 q 556 816 515 816 l 556 816 z "},"Z":{"ha":848,"x_min":32,"x_max":798,"o":"m 366 815 q 509 765 427 759 l 515 762 q 752 775 634 759 l 781 764 l 798 748 l 798 716 q 739 672 777 683 l 701 640 l 691 623 l 675 612 q 606 530 649 565 q 564 482 592 500 q 496 406 538 436 q 425 323 469 358 q 331 213 391 257 q 290 129 280 180 q 409 104 342 72 l 446 104 l 465 79 l 466 50 q 356 -6 427 -10 l 303 -3 q 261 18 286 15 l 201 59 l 172 62 q 66 9 131 4 q 32 46 39 17 l 38 78 l 67 108 q 123 142 101 118 l 129 142 q 222 222 184 173 l 261 253 q 321 316 282 293 l 345 348 q 424 445 362 411 q 474 501 443 478 l 489 530 l 503 541 q 555 597 520 576 l 590 641 l 597 667 l 584 674 l 556 676 l 550 681 q 426 691 486 671 l 422 696 q 297 772 340 701 l 300 808 l 327 818 l 366 815 l 366 815 z "},"[":{"ha":600,"x_min":113,"x_max":497,"o":"m 491 789 l 497 761 l 492 739 l 457 708 l 300 705 l 294 701 l 294 631 l 283 603 q 276 468 294 534 q 268 388 284 427 q 252 283 275 332 q 234 80 267 181 l 229 -55 q 240 -137 247 -94 l 405 -143 l 432 -164 l 438 -207 l 398 -245 l 227 -251 l 181 -245 l 156 -251 l 139 -249 l 118 -211 l 113 -157 q 133 -4 104 -76 q 149 216 125 107 q 158 312 142 265 q 169 434 150 375 q 178 670 153 553 l 178 724 q 196 789 196 754 q 310 817 238 837 l 466 810 l 491 789 l 491 789 z "},"\\":{"ha":720,"x_min":52,"x_max":650,"o":"m 80 732 q 162 689 131 737 q 221 618 182 646 q 270 546 235 575 q 339 456 294 493 q 398 384 358 411 l 407 366 q 490 261 456 319 l 504 251 q 611 121 545 177 l 647 62 l 651 28 l 644 10 l 616 1 q 513 67 548 7 l 493 119 q 429 205 453 157 q 320 338 367 266 l 274 379 l 266 396 q 202 476 227 430 l 182 492 l 144 553 l 123 569 q 66 642 102 611 l 52 677 q 80 732 45 719 l 80 732 z "},"]":{"ha":579,"x_min":92,"x_max":469,"o":"m 274 819 q 416 817 345 806 q 469 745 470 806 q 463 631 457 689 l 452 604 q 444 468 467 534 q 435 358 451 413 l 438 338 q 419 200 413 271 l 405 95 l 397 -64 q 408 -161 416 -111 l 397 -177 l 392 -221 l 351 -260 l 178 -267 l 108 -254 l 92 -223 l 97 -186 l 125 -160 q 280 -152 201 -141 q 299 -12 280 -80 q 313 191 287 92 q 325 308 307 251 q 337 448 320 379 q 339 537 326 492 q 345 657 326 598 l 347 704 l 212 706 l 180 717 q 190 806 142 765 q 274 819 231 820 l 274 819 z "},"^":{"ha":475,"x_min":65,"x_max":400,"o":"m 307 781 q 390 694 335 725 l 400 677 q 368 626 406 637 l 328 631 l 282 674 q 186 687 240 714 q 85 649 143 647 l 66 674 q 104 734 63 717 q 159 760 135 739 l 172 763 q 243 808 202 794 l 277 807 l 289 792 l 307 781 l 307 781 z "},"_":{"ha":576,"x_min":-18,"x_max":598,"o":"m 197 -194 q 262 -202 231 -190 q 471 -202 367 -189 l 549 -196 l 587 -213 l 598 -239 q 546 -291 594 -283 q 462 -294 504 -282 q 369 -294 415 -280 q 285 -296 327 -285 q 78 -297 181 -282 l 18 -291 l -14 -265 l -18 -251 q 19 -197 -23 -209 q 151 -199 86 -218 l 188 -199 l 197 -194 l 197 -194 z "},"`":{"ha":394,"x_min":90,"x_max":261,"o":"m 124 809 q 189 757 174 809 q 230 694 219 732 l 246 671 l 261 612 l 258 581 l 236 564 l 209 566 l 174 598 q 96 741 151 677 l 90 772 q 124 809 89 802 l 124 809 z "},"a":{"ha":531,"x_min":39,"x_max":485,"o":"m 350 459 q 475 396 438 466 l 485 363 l 484 321 l 475 278 l 470 273 q 455 217 475 239 q 455 90 410 148 l 456 72 l 461 66 l 440 21 q 365 19 404 -1 q 220 0 295 72 q 107 26 160 -3 l 60 82 l 54 102 l 45 111 l 39 135 q 106 257 41 214 l 133 271 l 165 272 l 170 277 l 214 277 l 219 272 q 288 243 257 268 l 342 223 l 352 224 q 387 316 387 263 l 380 339 q 263 365 329 376 l 238 381 l 225 407 l 231 432 l 247 446 l 315 459 l 350 459 l 350 459 m 172 118 l 185 110 l 219 113 l 243 134 l 238 148 l 185 163 l 155 144 l 172 118 l 172 118 z "},"b":{"ha":531,"x_min":43,"x_max":463,"o":"m 300 730 q 326 670 335 710 q 297 573 300 625 q 268 469 263 526 l 287 456 l 296 456 l 301 461 q 440 393 394 478 q 463 317 463 359 q 433 176 475 240 l 427 156 q 262 20 368 58 q 188 -1 223 18 l 106 5 l 80 13 l 55 47 l 43 81 q 65 159 36 125 l 79 210 l 85 216 l 105 296 l 112 304 q 142 383 116 348 l 156 432 l 163 439 l 170 474 l 175 478 l 177 503 q 203 576 200 536 q 225 670 231 618 l 233 694 l 259 727 l 275 732 l 300 730 l 300 730 m 245 334 q 195 264 194 316 q 163 158 169 214 l 151 137 l 153 111 l 159 105 l 184 105 q 267 128 223 126 l 296 149 l 349 204 l 369 283 l 367 313 l 347 344 l 322 353 l 283 353 l 252 343 l 245 334 l 245 334 z "},"c":{"ha":508,"x_min":53,"x_max":443,"o":"m 253 463 q 402 427 335 471 l 432 393 l 444 361 q 427 313 451 330 q 342 346 377 301 q 227 348 283 372 l 196 319 l 179 285 l 172 279 q 169 143 135 212 q 259 107 202 99 l 291 118 l 346 129 l 373 122 q 375 57 392 92 q 273 2 339 4 q 110 57 174 -14 l 79 97 l 54 183 q 72 273 50 230 q 123 375 69 339 q 253 463 170 448 l 253 463 z "},"d":{"ha":729,"x_min":45,"x_max":677,"o":"m 677 692 q 650 589 687 632 q 595 413 640 495 l 588 376 l 568 342 q 540 260 566 297 l 532 204 l 527 199 q 559 94 516 138 l 559 64 l 527 33 q 420 74 464 22 l 393 73 q 228 0 331 -2 q 109 53 159 4 l 74 90 l 60 126 l 53 134 l 45 163 l 46 216 l 60 237 q 163 382 75 330 q 357 458 245 465 q 468 401 419 440 l 493 397 l 504 412 q 530 474 509 447 q 557 556 531 520 q 584 656 556 610 l 594 694 l 629 728 l 661 717 l 677 692 l 677 692 m 295 348 q 153 239 200 322 l 148 216 q 190 116 136 149 l 229 103 q 321 138 282 99 l 342 162 l 354 167 l 395 210 l 412 282 l 397 313 l 356 345 l 295 348 l 295 348 z "},"e":{"ha":544,"x_min":69,"x_max":483,"o":"m 294 457 q 459 405 390 472 q 483 350 479 381 q 445 231 499 277 l 412 218 l 342 216 l 337 211 q 224 202 281 199 l 218 197 l 192 195 l 179 184 q 193 125 168 151 q 255 101 220 104 l 260 96 l 274 96 l 307 115 l 362 124 l 387 105 q 336 17 395 42 q 254 -1 297 -2 q 101 73 157 -6 q 70 136 76 100 q 104 335 59 241 q 294 457 167 443 l 294 457 m 241 323 l 244 316 l 260 312 q 362 320 314 299 l 371 344 q 301 361 343 370 l 269 349 l 241 323 l 241 323 z "},"f":{"ha":711,"x_min":16,"x_max":691,"o":"m 578 854 q 683 819 638 862 l 692 794 q 628 712 696 723 l 586 717 l 559 701 l 499 533 l 499 504 l 509 494 l 572 493 l 596 484 l 610 455 q 533 380 603 384 l 480 380 l 446 358 q 403 239 416 301 l 381 202 l 375 170 l 360 144 q 334 57 359 96 l 320 6 q 291 -92 286 -35 q 176 -298 261 -212 q 128 -319 155 -316 q 27 -283 68 -329 l 16 -259 q 73 -186 11 -201 q 180 -120 153 -201 q 207 -52 185 -83 q 234 40 207 -2 q 258 109 232 81 q 284 180 261 149 q 319 268 291 229 l 332 329 l 345 349 q 310 404 351 393 q 291 477 272 433 q 370 499 319 514 l 399 527 l 417 604 q 445 676 441 635 q 465 734 463 703 q 559 850 497 805 l 578 854 l 578 854 z "},"g":{"ha":663,"x_min":26,"x_max":613,"o":"m 426 443 l 437 429 l 458 420 q 509 401 477 389 q 562 453 520 444 l 593 449 l 606 437 l 613 413 l 611 367 q 575 265 578 321 q 546 177 552 223 q 516 79 517 133 q 487 -23 487 32 q 459 -95 464 -55 l 438 -127 l 428 -168 l 416 -200 l 408 -208 l 401 -233 q 319 -308 370 -283 l 308 -321 l 246 -342 l 141 -335 l 97 -325 q 55 -302 79 -307 l 39 -287 l 27 -259 l 29 -222 l 63 -201 q 181 -233 124 -203 q 309 -181 258 -240 l 333 -110 l 341 -100 q 369 -30 348 -62 l 372 1 l 361 15 l 329 15 l 324 10 q 179 23 250 -11 q 84 137 103 61 l 84 165 l 80 170 q 148 376 70 289 l 206 424 l 243 449 l 292 463 l 396 454 l 426 443 l 426 443 m 311 356 q 206 291 241 349 l 183 215 q 216 112 171 152 l 238 107 q 370 178 321 111 l 377 197 l 396 219 l 409 266 q 360 351 415 326 l 311 356 l 311 356 z "},"h":{"ha":645,"x_min":41,"x_max":593,"o":"m 338 859 q 388 836 376 869 q 361 731 397 778 l 344 660 l 332 643 q 302 566 326 601 l 292 508 q 263 419 265 469 l 248 391 l 251 354 l 280 351 q 397 390 335 383 q 445 409 418 406 q 553 438 491 448 q 593 393 588 430 l 587 316 q 558 243 564 283 l 538 207 l 536 165 l 532 163 l 537 120 q 552 24 575 75 l 517 0 l 485 2 q 418 134 418 51 q 441 206 421 174 q 447 281 452 243 l 431 290 l 373 282 q 229 229 308 234 q 176 170 181 215 l 162 148 l 144 65 q 76 3 132 1 l 41 35 l 42 85 q 65 156 63 118 l 88 199 q 122 307 94 256 l 130 344 q 189 516 181 420 q 221 610 218 558 l 233 629 q 261 716 236 676 q 290 783 265 754 q 338 859 289 841 l 338 859 z "},"i":{"ha":382,"x_min":47,"x_max":323,"o":"m 276 715 q 323 676 314 718 q 287 623 326 637 l 256 624 l 243 637 l 237 659 l 237 676 l 251 706 l 276 715 l 276 715 m 196 465 q 252 440 232 471 l 257 414 q 216 306 245 357 q 165 132 215 214 l 148 45 l 111 6 l 74 8 l 59 22 l 47 45 l 47 82 q 68 163 70 119 l 95 221 q 117 294 95 260 l 134 385 l 160 441 l 196 465 l 196 465 z "},"j":{"ha":627,"x_min":-86,"x_max":616,"o":"m 595 752 l 616 725 q 591 665 624 685 l 557 670 l 539 696 l 540 732 l 551 748 l 575 754 l 595 752 l 595 752 m 497 464 l 511 446 l 516 420 q 473 260 517 335 l 470 235 q 448 157 447 200 q 411 44 417 105 l 403 35 q 366 -71 400 -25 q 335 -160 363 -120 q 226 -335 310 -265 l 160 -369 l 125 -372 q 13 -341 60 -383 l -16 -333 l -34 -318 q -86 -268 -80 -315 l -75 -226 l -56 -209 q 37 -237 -1 -195 q 157 -241 98 -268 l 202 -202 l 205 -191 l 224 -171 q 261 -87 233 -125 q 286 -26 265 -53 l 295 20 l 300 25 l 303 58 q 332 149 327 100 l 353 187 q 386 292 355 245 q 460 469 362 430 l 497 464 l 497 464 z "},"k":{"ha":591,"x_min":57,"x_max":529,"o":"m 379 850 q 365 779 392 807 q 337 696 363 732 q 308 582 334 636 l 300 537 l 275 492 q 254 410 276 447 q 225 307 251 355 l 225 282 l 236 276 l 267 288 q 438 434 361 350 q 483 456 464 437 l 509 448 l 529 422 q 494 357 532 379 q 428 300 453 339 q 335 221 370 274 l 338 192 q 392 146 360 163 q 462 88 419 107 l 493 59 l 493 18 l 462 0 l 396 11 q 337 46 371 35 q 208 135 287 119 q 161 97 173 130 q 121 11 164 40 l 90 11 l 77 22 l 74 33 l 60 48 l 57 77 l 60 105 q 82 174 78 137 q 111 252 106 209 l 123 272 q 151 356 124 319 q 179 456 156 408 l 186 495 l 201 534 l 209 542 l 230 618 l 237 627 l 245 667 l 250 672 l 253 710 l 271 746 l 277 790 l 314 850 l 340 864 l 361 861 l 379 850 l 379 850 z "},"l":{"ha":448,"x_min":66,"x_max":413,"o":"m 413 828 q 378 701 414 759 l 372 673 l 360 654 l 342 585 q 326 536 323 566 q 291 426 297 484 l 270 391 q 240 299 266 341 q 213 205 237 249 q 184 105 211 152 l 173 60 l 141 4 l 116 -7 q 66 28 77 -12 l 66 68 q 93 156 89 110 q 124 251 123 199 q 153 334 151 287 l 166 356 l 173 391 l 201 441 q 225 509 201 481 q 260 611 236 562 q 289 709 264 663 l 292 769 l 298 794 q 329 841 320 813 l 360 863 l 401 860 l 413 828 l 413 828 z "},"m":{"ha":1073,"x_min":55,"x_max":1010,"o":"m 222 464 q 272 422 262 467 l 272 404 q 272 323 241 359 q 395 359 341 317 l 456 379 l 483 404 l 553 438 l 585 438 q 625 348 632 407 l 646 330 l 728 346 l 841 392 l 848 399 l 889 409 q 991 416 937 449 l 1005 394 l 1010 359 l 999 310 l 990 302 l 974 256 l 959 236 l 950 196 l 944 190 l 937 130 q 957 43 970 89 l 934 21 l 892 11 q 814 110 821 34 q 829 237 809 175 l 818 249 l 802 252 q 610 203 709 216 q 534 100 539 176 q 490 28 522 58 l 444 30 q 408 140 383 65 l 435 209 l 435 229 l 426 240 l 397 240 q 228 184 319 196 q 179 107 177 166 l 152 34 l 112 1 l 78 7 l 55 40 q 91 190 46 120 q 122 272 95 235 q 152 346 127 313 l 164 414 l 189 453 l 222 464 l 222 464 z "},"n":{"ha":711,"x_min":45,"x_max":625,"o":"m 548 456 q 616 425 592 463 l 625 405 l 622 335 q 592 245 600 293 q 564 132 556 195 l 601 77 l 602 33 l 586 7 l 552 -4 q 477 34 506 -4 q 459 179 429 100 l 467 191 q 476 283 479 236 l 460 297 q 370 248 410 282 l 345 245 l 339 239 l 206 202 l 173 148 l 163 102 l 158 97 q 116 13 158 44 l 96 4 l 79 4 l 50 34 l 45 55 l 48 90 q 108 267 99 169 q 140 347 134 303 l 153 368 q 203 448 153 425 l 243 445 l 259 405 l 259 357 l 270 343 q 382 393 334 345 q 455 425 422 401 l 494 434 q 548 456 518 453 l 548 456 z "},"o":{"ha":567,"x_min":52,"x_max":514,"o":"m 343 459 q 491 353 446 441 q 515 262 512 310 q 400 57 494 142 q 267 8 341 6 l 241 2 q 101 61 159 2 l 86 80 q 61 137 81 112 l 52 197 q 80 313 43 262 l 89 339 q 120 380 110 355 l 181 434 l 208 440 l 215 448 l 247 459 l 343 459 l 343 459 m 253 352 q 164 274 190 337 l 148 226 l 149 194 l 156 182 q 205 114 158 131 l 222 112 l 281 114 q 406 230 370 145 l 415 271 l 408 307 q 253 352 342 365 l 253 352 z "},"p":{"ha":705,"x_min":30,"x_max":637,"o":"m 299 461 q 360 440 332 458 q 529 455 444 477 q 638 278 637 397 l 635 217 l 599 136 q 535 68 558 110 q 464 32 505 40 l 443 19 l 369 5 l 302 9 l 258 31 q 188 -56 187 33 q 153 -152 185 -110 q 83 -291 153 -241 l 48 -285 l 30 -255 l 39 -203 q 67 -130 64 -170 q 95 -34 94 -85 q 130 58 124 8 l 142 77 q 178 190 145 137 l 185 225 l 199 243 l 213 289 q 243 361 242 319 l 248 366 l 251 420 l 275 455 l 299 461 l 299 461 m 438 351 q 299 262 343 342 l 272 172 l 274 137 l 303 112 l 329 105 l 353 105 l 384 117 l 416 117 l 447 127 l 461 146 l 485 162 l 492 175 q 534 251 529 202 l 522 306 q 438 351 500 363 l 438 351 z "},"q":{"ha":606,"x_min":48,"x_max":550,"o":"m 422 424 l 447 419 l 488 456 l 531 459 l 541 448 l 550 427 q 520 327 547 373 q 474 203 513 260 l 459 130 l 440 101 q 408 -5 434 45 l 405 -30 q 352 -183 357 -101 l 336 -225 l 316 -248 l 288 -246 l 262 -215 q 277 -142 262 -177 q 298 -56 277 -97 l 302 0 l 290 11 l 220 0 l 216 5 l 164 13 l 143 31 q 68 101 94 50 l 48 181 l 50 237 q 182 431 83 356 q 230 456 210 437 l 274 469 l 369 456 l 422 424 l 422 424 m 290 371 q 181 310 225 361 l 142 249 l 135 214 l 140 162 q 206 106 151 110 l 229 107 l 234 112 q 349 184 307 121 l 378 228 l 386 269 l 386 306 l 375 338 q 290 371 338 370 l 290 371 z "},"r":{"ha":627,"x_min":46,"x_max":570,"o":"m 496 462 q 560 426 544 471 l 570 376 q 548 307 580 331 l 518 301 q 350 270 432 342 q 254 253 304 252 q 198 205 211 245 q 103 4 192 79 q 46 39 59 -3 l 46 72 l 58 123 l 67 133 q 111 238 80 189 q 143 322 114 285 q 148 413 156 367 q 224 452 166 470 l 238 436 q 277 372 241 393 l 300 372 q 412 422 360 387 l 434 424 q 496 462 459 453 l 496 462 z "},"s":{"ha":541,"x_min":52,"x_max":479,"o":"m 300 461 q 442 415 381 471 l 471 386 l 479 369 l 479 347 l 464 328 q 391 355 421 321 q 279 354 335 386 q 263 296 252 330 l 283 266 q 364 158 340 225 q 337 65 375 107 q 241 3 300 11 l 223 3 q 147 23 187 20 q 52 135 75 57 q 74 181 46 169 l 102 181 q 145 131 129 161 q 250 109 193 90 q 258 167 283 133 l 196 224 q 169 269 188 250 l 165 346 q 300 461 208 432 l 300 461 z "},"t":{"ha":442,"x_min":54,"x_max":423,"o":"m 332 667 q 308 574 332 618 l 308 549 l 321 534 q 415 511 377 547 l 423 498 q 399 433 430 458 l 357 417 q 263 410 304 437 q 218 313 230 367 q 191 224 191 273 q 165 109 160 171 q 158 20 190 61 l 133 1 l 99 3 q 60 101 50 41 q 111 265 72 188 q 134 350 112 311 q 66 435 153 422 l 54 466 l 61 498 l 78 511 l 155 511 l 182 521 l 197 545 q 216 598 200 574 q 257 700 213 658 l 284 705 l 317 696 l 332 667 l 332 667 z "},"u":{"ha":723,"x_min":58,"x_max":658,"o":"m 593 471 q 656 426 641 471 l 658 397 l 650 347 l 624 299 l 583 189 l 583 155 l 627 89 q 597 0 644 32 l 570 -3 l 526 9 l 456 92 q 363 66 402 111 l 339 58 l 326 44 q 123 33 224 -30 q 58 145 65 74 l 66 238 q 105 363 96 297 l 119 378 l 143 437 l 171 460 l 219 461 l 245 426 l 237 358 q 202 260 208 313 q 199 158 153 201 l 209 152 q 320 200 274 150 q 418 264 378 217 q 520 369 494 294 l 537 391 l 550 438 l 593 471 l 593 471 z "},"v":{"ha":640,"x_min":87,"x_max":584,"o":"m 152 458 q 200 432 192 467 q 194 238 209 335 l 200 207 l 214 192 l 245 205 l 261 221 l 281 231 q 426 369 339 316 q 535 456 469 430 q 584 424 576 464 q 514 316 585 355 l 497 307 q 443 248 478 268 q 327 140 396 180 l 240 59 l 215 51 q 162 4 194 21 q 93 37 116 -5 l 87 61 l 91 182 l 101 237 l 106 242 q 115 399 103 321 l 120 404 l 125 437 l 152 458 l 152 458 z "},"w":{"ha":946,"x_min":78,"x_max":883,"o":"m 211 427 l 201 307 q 189 214 175 263 l 196 209 q 324 275 271 206 l 331 287 q 393 342 371 305 l 410 354 l 451 407 l 483 425 q 545 366 536 422 q 571 214 520 276 l 578 214 q 632 246 601 238 q 706 306 663 283 l 747 358 q 864 430 789 434 l 873 423 l 884 403 q 828 295 887 329 l 812 274 l 794 266 l 777 246 l 765 241 q 628 114 706 166 l 620 101 q 544 26 576 70 l 513 18 q 458 103 455 37 l 456 167 l 451 174 q 440 224 450 200 l 424 232 l 405 223 q 303 145 360 177 l 289 123 l 240 92 q 177 34 216 56 l 160 12 l 135 3 l 97 14 l 79 50 l 92 223 l 97 229 q 121 420 122 323 l 128 435 l 161 463 l 192 458 l 211 427 l 211 427 z "},"x":{"ha":585,"x_min":66,"x_max":532,"o":"m 485 463 q 532 426 523 466 l 526 388 q 472 328 492 363 l 458 321 l 452 309 l 424 287 l 419 275 q 364 193 361 249 q 394 140 371 162 q 438 75 406 101 l 446 55 l 440 19 l 410 -7 q 301 85 332 6 l 272 113 l 261 117 q 157 19 191 87 q 75 19 115 -11 l 66 44 q 190 223 71 160 q 161 335 205 287 q 164 429 132 385 l 173 437 l 206 430 l 231 407 l 256 356 l 267 349 l 276 330 l 290 318 l 302 318 l 330 329 l 441 439 l 464 456 l 485 463 l 485 463 z "},"y":{"ha":681,"x_min":32,"x_max":637,"o":"m 637 449 l 637 414 q 583 302 594 366 l 576 296 q 547 242 570 265 q 513 168 541 199 l 501 133 l 484 112 q 450 39 478 71 q 429 -6 446 14 l 414 -65 q 356 -178 369 -112 q 319 -223 344 -207 q 237 -299 293 -275 l 192 -309 q 77 -280 125 -323 q 32 -234 39 -271 l 36 -200 l 55 -189 l 88 -189 q 238 -177 169 -242 l 265 -146 l 328 -16 l 328 31 l 315 47 q 286 127 312 92 l 278 161 q 251 228 255 191 l 230 259 q 202 355 223 309 q 211 446 174 411 q 242 449 227 449 l 252 441 q 310 292 300 375 q 337 254 318 269 q 380 163 344 201 q 445 219 431 158 q 504 332 458 283 l 514 368 q 543 426 537 392 l 564 454 l 586 466 l 609 466 l 637 449 l 637 449 z "},"z":{"ha":603,"x_min":50,"x_max":558,"o":"m 173 450 q 345 437 258 427 l 350 432 q 428 422 390 435 l 457 426 q 547 431 502 463 l 558 414 q 524 337 563 366 q 387 228 446 295 l 350 206 l 310 156 l 313 142 q 421 111 355 79 l 461 111 l 479 94 q 413 2 486 24 l 378 -9 q 260 32 311 -16 q 138 16 198 56 q 63 27 97 2 l 50 55 l 55 86 q 231 234 124 180 q 296 289 256 270 l 322 319 q 256 351 303 355 l 223 351 l 162 371 q 158 443 124 406 l 173 450 l 173 450 z "},"{":{"ha":508,"x_min":36,"x_max":451,"o":"m 368 785 q 446 764 415 797 l 451 739 q 413 690 446 705 q 317 668 367 670 l 287 646 q 228 493 274 562 l 221 467 l 211 455 l 203 412 q 153 315 167 369 q 199 201 165 254 q 232 98 200 145 l 243 37 q 325 -63 244 -57 l 396 -92 l 425 -130 l 418 -161 l 387 -181 l 321 -175 l 284 -162 l 275 -152 q 166 -107 216 -141 q 146 -35 166 -68 q 133 58 129 10 l 125 103 q 90 193 97 143 q 36 311 38 242 q 74 409 33 366 l 96 433 q 134 514 103 479 q 150 600 152 555 l 193 728 q 241 748 220 732 l 304 764 l 314 773 l 368 785 l 368 785 z "},"|":{"ha":233,"x_min":65,"x_max":165,"o":"m 111 721 q 163 671 157 718 q 159 556 177 611 q 160 449 169 502 q 153 298 172 372 q 154 83 134 189 l 152 30 q 165 -44 167 -5 l 152 -100 l 134 -125 l 104 -136 l 93 -134 l 73 -108 l 66 -61 q 70 170 92 56 q 70 284 77 227 l 76 314 q 67 551 85 433 q 70 646 76 598 q 111 721 63 704 l 111 721 z "},"}":{"ha":493,"x_min":36,"x_max":451,"o":"m 101 782 q 205 762 156 787 l 217 752 q 297 719 262 747 l 320 711 q 341 638 321 671 q 353 546 359 593 l 362 497 q 398 409 390 457 q 452 290 448 357 q 421 213 457 244 l 415 194 l 391 169 l 374 119 q 338 2 332 70 l 331 -8 l 320 -55 l 311 -64 l 306 -91 l 298 -102 l 296 -123 q 206 -155 255 -150 q 118 -184 166 -180 l 63 -180 l 42 -163 l 36 -138 l 40 -123 l 67 -94 q 176 -63 120 -72 l 201 -45 q 277 148 222 59 l 282 185 q 335 286 316 231 q 288 401 324 350 q 256 505 287 457 l 244 563 q 164 663 244 657 l 92 693 l 63 731 l 70 762 l 101 782 l 101 782 z "},"~":{"ha":454,"x_min":26,"x_max":421,"o":"m 421 436 q 390 347 430 384 l 303 319 q 193 359 243 325 q 86 319 131 362 l 52 319 l 36 333 l 27 348 l 38 387 q 204 447 106 458 l 244 440 q 339 426 289 402 l 349 438 l 378 451 l 412 445 l 421 436 l 421 436 z "},"":{"ha":418,"x_min":25,"x_max":400,"o":"m 338 813 q 398 782 381 818 l 400 754 q 372 714 398 727 l 356 714 l 349 708 q 297 753 313 719 l 296 776 l 296 786 l 307 800 l 338 813 l 338 813 m 236 415 q 291 382 277 417 l 291 334 q 267 243 268 291 l 261 237 l 251 163 l 228 120 q 171 -51 219 29 l 152 -134 q 81 -241 149 -219 l 40 -232 l 28 -214 l 25 -195 l 28 -144 q 69 -16 63 -85 q 125 171 108 74 l 150 214 q 182 336 150 279 q 236 415 178 399 l 236 415 z "},"":{"ha":472,"x_min":43,"x_max":431,"o":"m 394 655 q 396 548 424 605 l 355 447 q 431 363 417 425 l 431 336 l 424 322 q 331 348 371 296 l 321 346 l 318 322 q 290 245 291 288 q 255 133 260 193 l 246 117 l 246 111 q 329 132 289 111 l 361 126 q 360 54 382 91 q 261 4 323 8 l 214 5 l 205 -28 q 180 -75 186 -48 l 169 -86 l 151 -93 l 127 -91 l 107 -70 l 103 -20 l 123 38 q 43 185 53 93 q 61 275 39 234 q 127 399 63 350 q 276 468 188 465 l 277 483 l 288 510 q 314 610 276 569 q 356 657 322 645 l 394 655 l 394 655 m 228 355 q 154 267 176 327 l 141 215 l 141 193 l 154 154 l 164 161 q 186 234 181 196 l 199 256 l 205 289 q 235 349 227 316 l 228 355 l 228 355 z "},"":{"ha":696,"x_min":42,"x_max":642,"o":"m 524 805 q 612 722 592 789 l 631 703 l 642 668 l 642 641 q 628 628 636 633 l 607 628 l 575 657 l 569 675 l 560 684 q 490 743 544 732 l 454 745 l 392 715 q 337 602 341 667 q 305 511 311 560 l 312 507 q 389 484 364 526 l 390 461 l 360 432 l 279 431 l 273 426 q 247 367 267 393 q 219 304 242 332 l 214 280 l 194 254 l 187 218 q 157 140 157 184 q 294 122 230 159 q 392 89 334 73 l 406 96 l 440 96 l 458 72 l 459 44 q 356 -8 422 -12 l 310 -6 q 267 15 292 10 l 210 53 l 182 56 q 84 6 145 2 q 42 49 51 16 l 44 86 q 75 180 70 130 q 100 232 95 202 l 112 246 l 124 280 l 137 296 l 149 336 l 160 349 q 192 421 170 387 l 194 433 l 182 437 q 184 498 155 468 q 242 558 238 501 l 249 590 q 284 681 280 630 l 320 745 q 455 817 375 812 l 524 805 l 524 805 z "},"":{"ha":436,"x_min":31,"x_max":391,"o":"m 381 507 l 392 500 q 343 438 392 457 q 331 309 369 371 l 301 271 l 303 262 l 329 243 l 349 216 l 346 186 l 321 188 l 291 218 l 283 232 l 270 238 q 143 186 218 178 l 126 194 l 101 219 l 83 195 l 55 182 l 31 188 q 90 260 34 239 q 126 388 80 332 l 164 431 q 124 492 124 452 l 133 505 l 155 500 l 189 462 l 196 460 q 250 492 219 483 q 321 467 289 490 l 341 496 l 368 507 l 381 507 l 381 507 m 253 433 q 154 328 183 401 l 143 290 l 145 262 l 162 237 l 200 244 q 299 374 274 291 q 281 426 301 405 l 253 433 l 253 433 z "},"":{"ha":723,"x_min":50,"x_max":672,"o":"m 634 832 q 672 816 662 838 l 662 787 q 570 675 607 739 l 540 644 q 466 526 514 577 q 395 438 440 474 l 389 422 l 371 400 l 370 392 l 438 396 l 471 381 q 462 323 493 348 l 436 312 q 363 310 399 320 l 323 315 q 296 231 294 277 q 423 213 371 260 q 404 158 437 179 l 381 152 q 309 149 345 160 q 259 155 285 158 l 250 136 q 230 60 251 95 l 225 37 l 197 6 l 172 -3 l 148 5 l 136 22 l 138 64 q 163 152 161 105 l 127 148 l 84 153 l 56 173 l 50 189 q 82 237 45 225 l 171 228 q 225 310 234 231 l 216 313 l 181 309 l 132 315 l 106 338 l 103 366 q 178 395 124 413 q 242 397 212 380 q 228 489 261 444 l 219 535 l 212 541 q 201 611 199 574 q 155 767 155 684 q 196 784 166 793 q 228 756 221 781 l 243 743 q 271 672 250 705 l 277 633 l 281 630 q 301 551 297 592 l 324 507 l 336 496 l 356 506 l 377 538 q 442 630 427 571 q 491 703 478 661 q 533 758 506 736 q 618 831 561 815 l 634 832 l 634 832 z "},"":{"ha":376,"x_min":72,"x_max":262,"o":"m 262 779 q 240 624 266 699 l 233 515 q 184 450 231 460 q 139 505 139 456 l 148 564 l 157 572 q 168 661 157 617 l 162 705 l 164 742 q 188 793 184 763 l 205 808 l 236 814 l 252 805 l 262 779 l 262 779 m 195 334 q 179 207 198 269 q 170 113 185 159 q 143 11 171 59 l 116 0 q 72 55 71 6 q 81 143 83 99 l 91 165 l 92 208 l 100 216 l 94 260 l 97 297 q 121 348 116 318 l 137 363 l 168 370 l 182 362 l 195 334 l 195 334 z "},"":{"ha":696,"x_min":41,"x_max":661,"o":"m 413 808 q 624 773 530 833 l 662 709 l 659 642 l 635 618 q 538 687 569 610 q 349 624 428 701 l 313 586 l 278 530 l 276 505 q 445 498 361 526 l 514 451 l 558 363 q 498 30 583 186 q 311 -168 435 -101 l 248 -182 q 105 -148 171 -190 l 71 -96 l 65 -60 l 41 -21 l 43 12 l 55 23 l 113 30 l 180 -40 q 346 19 276 -51 l 401 83 l 425 122 l 425 140 q 214 190 308 109 l 194 224 q 120 325 138 258 q 172 610 99 475 q 349 794 231 732 l 413 808 l 413 808 m 248 353 q 334 248 259 272 l 383 254 l 455 290 l 461 299 q 393 381 455 360 l 346 385 l 283 375 l 248 353 l 248 353 z "},"":{"ha":493,"x_min":68,"x_max":397,"o":"m 99 804 q 166 768 145 813 q 133 688 184 705 l 93 692 l 77 708 l 68 733 q 99 804 65 779 l 99 804 m 397 768 q 365 688 416 705 l 325 692 l 309 708 l 299 733 q 331 804 298 779 l 363 802 l 392 779 l 397 768 l 397 768 z "},"":{"ha":848,"x_min":60,"x_max":777,"o":"m 531 816 q 697 749 629 821 q 777 559 781 672 q 705 264 790 398 l 697 241 l 680 222 l 669 197 q 347 -2 542 42 l 279 9 l 271 16 q 131 108 184 35 q 84 190 86 136 q 60 288 59 236 q 140 559 52 435 l 147 566 q 341 769 209 700 q 400 791 376 768 q 531 816 463 816 l 531 816 m 438 715 q 376 684 410 694 q 327 648 347 672 q 258 579 272 633 q 175 432 195 517 l 167 420 q 147 313 144 370 q 189 168 135 228 q 333 90 243 98 l 371 92 q 448 115 408 111 q 522 160 480 146 l 550 185 l 555 196 l 600 242 q 654 337 617 295 l 674 385 q 690 476 669 433 l 690 548 l 685 573 l 680 578 l 673 641 l 662 666 l 652 673 q 572 727 628 721 l 510 727 l 438 715 l 438 715 m 460 609 q 550 587 511 616 l 575 547 l 573 526 l 554 521 l 509 566 q 384 521 435 574 q 311 350 308 451 q 375 256 313 280 q 494 289 440 249 l 504 287 l 509 279 l 507 262 q 404 218 464 220 q 306 254 348 214 l 278 303 l 273 345 l 275 378 q 290 437 288 406 q 397 588 319 529 q 460 609 426 608 l 460 609 z "},"":{"ha":283,"x_min":33,"x_max":217,"o":"m 218 780 q 198 683 221 729 l 208 658 l 205 638 l 195 628 l 179 627 l 148 639 l 107 622 l 60 633 l 42 655 l 33 679 l 43 716 q 158 718 95 766 q 176 763 184 731 l 157 774 l 123 777 l 111 792 l 112 804 l 118 810 l 147 815 l 198 809 l 212 795 l 218 780 l 218 780 m 107 670 l 117 679 l 115 685 l 90 689 l 84 684 l 94 669 l 107 670 l 107 670 z "},"":{"ha":445,"x_min":33,"x_max":373,"o":"m 203 795 q 182 724 211 753 l 178 709 l 157 688 q 81 584 142 620 l 50 586 l 37 597 l 33 607 q 64 680 27 651 l 129 795 l 158 822 l 192 812 l 203 795 l 203 795 m 373 768 q 340 694 374 723 l 338 685 l 324 673 q 249 584 302 615 l 214 584 l 199 597 l 195 607 q 248 717 192 673 q 323 804 267 777 l 353 796 l 373 768 l 373 768 z "},"":{"ha":605,"x_min":0,"x_max":605,"o":"m 198 671 q 356 669 277 654 q 554 669 455 657 q 595 647 577 664 q 598 516 616 584 l 605 439 l 599 378 l 572 346 l 558 342 q 502 379 516 337 q 512 461 499 421 q 509 564 499 512 l 504 573 l 464 569 q 388 569 425 587 q 310 567 349 575 q 96 565 202 581 q 4 599 39 558 l 0 612 q 37 668 -6 654 l 128 660 l 187 666 l 198 671 l 198 671 z "},"":{"ha":851,"x_min":59,"x_max":776,"o":"m 531 816 q 697 749 629 821 q 777 559 780 672 q 705 264 790 398 l 697 241 l 680 222 l 669 197 q 346 -2 541 42 l 279 9 l 271 16 q 130 108 183 35 q 83 190 85 136 q 60 288 58 236 q 139 559 51 435 l 146 566 q 341 769 209 700 q 399 791 376 769 q 531 816 463 816 l 531 816 m 438 716 q 376 685 410 694 q 326 648 346 672 q 258 579 272 633 q 175 432 195 517 l 166 420 q 146 313 143 370 q 189 168 135 228 q 333 90 242 98 l 371 92 q 448 115 407 111 q 521 160 480 146 l 550 185 l 554 196 l 599 242 q 654 337 617 295 l 673 385 q 690 476 668 433 l 690 548 l 685 573 l 680 578 l 672 641 l 661 666 l 651 673 q 572 727 628 721 l 510 727 l 438 716 l 438 716 m 481 629 q 558 586 535 638 l 566 556 q 501 432 564 480 l 470 414 l 464 405 q 511 272 467 333 l 509 249 l 491 241 l 473 253 l 427 381 q 373 385 403 397 l 354 373 q 331 325 350 345 q 303 241 329 278 l 292 237 l 275 241 l 272 248 q 311 365 276 311 l 330 423 l 336 429 q 370 524 344 480 l 375 550 q 460 622 385 630 l 481 629 l 481 629 m 424 566 l 376 443 l 376 430 l 381 427 l 434 441 q 521 537 507 465 q 505 584 530 569 l 476 587 l 440 579 l 424 566 l 424 566 z "},"":{"ha":616,"x_min":0,"x_max":616,"o":"m 215 640 q 280 632 249 644 q 489 632 385 645 l 567 638 l 605 621 l 616 595 q 564 543 612 551 q 480 541 522 552 q 387 541 433 554 q 303 538 345 549 q 96 537 199 552 l 36 543 l 4 569 l 0 583 q 37 637 -5 625 q 169 635 104 616 l 206 635 l 215 640 l 215 640 z "},"":{"ha":298,"x_min":36,"x_max":255,"o":"m 169 805 q 250 755 225 804 l 255 729 q 217 624 257 668 q 104 549 174 564 q 45 580 64 544 l 36 615 l 36 657 q 169 805 68 762 l 169 805 m 171 756 q 85 663 111 726 l 81 637 l 85 602 l 97 593 l 126 599 q 210 708 191 636 l 202 743 l 190 752 l 171 756 l 171 756 z "},"":{"ha":546,"x_min":39,"x_max":489,"o":"m 252 668 q 301 630 292 666 l 304 616 q 307 538 296 577 l 303 492 q 429 496 366 486 l 466 479 l 479 451 q 436 400 475 411 q 348 395 392 405 l 303 399 q 310 325 297 360 q 275 232 318 266 l 261 228 q 205 266 219 223 q 209 398 223 332 q 130 394 169 405 l 79 399 l 43 427 l 39 441 q 76 497 33 483 q 158 487 118 499 q 212 497 186 484 q 207 618 218 558 q 252 668 212 664 l 252 668 m 87 105 q 169 95 129 107 q 283 98 227 112 q 440 104 362 93 l 478 86 l 489 59 q 437 6 486 14 q 353 3 395 14 q 146 2 250 22 l 80 11 l 54 36 l 49 49 q 87 105 44 91 l 87 105 z "},"":{"ha":290,"x_min":37,"x_max":234,"o":"m 156 806 q 225 788 197 814 l 234 766 q 196 679 240 712 q 95 602 140 646 l 98 591 q 189 581 142 577 l 195 574 l 194 560 l 174 554 q 79 556 126 562 l 48 562 l 37 573 l 44 595 q 165 698 95 657 q 202 747 193 716 l 200 766 l 181 778 l 158 773 q 110 766 134 746 l 110 782 q 156 806 126 807 l 156 806 z "},"":{"ha":272,"x_min":24,"x_max":243,"o":"m 178 801 l 188 796 q 243 791 222 815 l 240 779 l 202 758 l 172 723 l 174 712 q 205 628 212 678 q 119 553 188 560 q 24 592 64 551 l 25 616 l 40 623 l 61 617 l 77 602 l 101 591 q 157 633 145 594 q 139 680 163 664 l 125 681 q 77 673 102 670 l 67 685 l 71 710 l 77 716 l 124 733 l 144 753 l 137 763 l 76 765 l 71 773 l 73 792 l 98 802 l 137 804 l 178 801 l 178 801 z "},"":{"ha":269,"x_min":54,"x_max":219,"o":"m 154 796 q 220 754 204 801 q 153 587 221 658 l 112 563 l 84 565 l 54 589 l 59 624 q 103 671 88 641 l 106 758 l 136 791 l 154 796 l 154 796 z "},"":{"ha":845,"x_min":47,"x_max":796,"o":"m 441 804 l 449 798 q 644 794 546 809 l 737 802 l 782 782 l 796 749 q 785 674 781 713 l 769 647 q 730 539 765 588 q 683 402 717 467 q 636 279 677 335 q 598 169 627 221 q 549 41 592 99 l 539 -14 q 493 -127 502 -64 q 458 -241 458 -180 q 383 -336 448 -315 q 319 -302 339 -342 l 316 -268 q 384 -87 372 -185 q 437 45 426 -28 l 445 54 q 493 182 445 125 q 538 311 498 252 l 533 331 q 600 509 584 413 q 632 584 626 542 q 664 684 661 630 l 609 681 q 552 537 601 599 l 539 491 q 495 333 488 420 l 480 312 q 433 173 477 235 l 426 113 q 393 19 395 71 q 347 -95 355 -32 q 311 -214 312 -150 q 237 -303 299 -283 q 173 -269 193 -309 l 170 -235 q 238 -55 225 -153 q 313 152 296 40 q 367 311 361 223 q 173 292 271 267 q 48 495 49 359 q 82 628 35 572 l 92 659 q 164 735 140 688 l 201 764 q 272 794 240 770 l 359 809 l 405 809 l 441 804 l 441 804 z "},"":{"ha":361,"x_min":63,"x_max":284,"o":"m 233 -16 q 263 -69 232 -51 l 277 -89 l 284 -122 q 221 -246 290 -203 l 163 -262 q 66 -237 102 -280 l 63 -213 l 64 -204 l 80 -185 l 125 -178 l 130 -173 l 162 -171 l 179 -154 l 178 -143 l 167 -127 l 110 -125 q 66 -68 64 -113 l 74 -48 q 111 3 100 -28 l 126 8 l 246 3 l 233 -16 l 233 -16 z "},"":{"ha":242,"x_min":47,"x_max":195,"o":"m 185 813 l 195 798 l 193 781 q 85 561 116 684 l 71 551 l 55 553 l 48 564 l 49 582 q 75 640 71 608 l 84 650 q 112 719 88 690 l 112 734 l 90 748 l 87 761 l 97 772 l 127 783 q 172 813 145 805 l 185 813 l 185 813 z "},"":{"ha":269,"x_min":27,"x_max":246,"o":"m 159 802 q 241 752 216 802 l 246 726 q 208 621 248 666 q 95 547 165 562 q 36 578 55 542 l 27 612 l 27 655 q 159 802 59 759 l 159 802 m 162 754 q 76 661 102 724 l 72 635 l 76 599 l 87 590 l 117 596 q 200 705 182 634 l 193 740 l 180 750 l 162 754 l 162 754 z "},"":{"ha":382,"x_min":18,"x_max":357,"o":"m 177 800 l 188 783 q 166 712 196 741 l 163 697 l 142 676 q 66 572 126 608 l 35 574 l 22 585 l 18 595 q 49 668 13 640 l 113 783 l 143 810 l 177 800 l 177 800 m 338 784 l 357 755 q 325 683 359 711 l 323 673 l 309 662 q 234 572 287 603 l 199 572 l 184 585 l 180 595 q 232 705 177 661 q 308 791 252 764 l 338 784 l 338 784 z "},"":{"ha":839,"x_min":36,"x_max":784,"o":"m 698 791 l 693 746 l 683 737 l 679 721 q 572 595 638 647 q 505 509 548 544 l 495 486 q 413 383 444 442 q 338 294 365 347 l 323 283 q 253 188 298 228 q 182 94 232 131 l 157 52 l 96 7 l 67 7 l 50 16 l 36 43 q 89 146 32 107 l 113 185 l 137 204 q 218 308 165 266 q 266 368 234 345 l 296 412 l 334 441 q 446 581 369 525 q 525 687 478 639 q 617 806 544 768 l 643 813 l 691 803 l 698 791 l 698 791 m 243 731 l 241 714 q 114 455 155 597 l 105 440 l 95 435 l 76 438 l 65 452 l 67 472 q 99 542 94 503 q 143 655 144 590 l 123 665 l 114 677 l 114 687 l 129 702 q 213 750 177 715 l 230 750 l 243 731 l 243 731 m 726 389 l 726 370 q 625 241 659 316 l 588 200 l 579 179 l 585 175 l 660 178 l 673 195 l 686 235 l 711 263 l 730 261 l 742 251 l 740 237 l 720 206 l 720 190 l 760 185 l 775 194 l 784 191 l 783 178 l 760 144 q 657 51 665 151 l 643 40 l 619 42 l 613 49 l 613 77 l 635 122 l 626 135 l 518 131 l 499 152 l 504 172 q 621 320 573 237 l 698 399 l 715 397 l 726 389 l 726 389 z "},"":{"ha":851,"x_min":41,"x_max":798,"o":"m 706 792 l 702 746 l 691 738 q 634 656 679 687 q 579 595 615 618 q 512 508 556 543 l 490 470 q 425 389 445 438 q 357 308 380 357 q 282 209 309 268 q 228 130 244 178 q 162 49 184 97 l 101 3 l 72 3 l 54 12 l 41 40 q 94 143 37 104 l 117 183 l 142 202 q 223 307 171 264 q 272 367 238 343 l 301 411 l 340 440 q 453 580 375 524 q 529 683 484 637 q 625 807 549 767 l 649 814 l 694 805 l 706 792 l 706 792 m 254 763 l 253 745 q 126 485 167 627 l 115 468 l 106 465 l 86 468 l 77 481 l 85 517 l 107 552 l 111 573 q 154 686 154 623 l 132 698 l 126 719 l 136 730 l 173 745 q 226 780 195 770 l 243 780 l 254 763 l 254 763 m 690 408 q 784 383 745 418 l 798 353 q 737 225 804 273 q 606 125 664 185 l 606 115 l 621 107 l 708 103 l 736 96 l 743 87 l 740 65 l 713 59 q 583 62 648 69 l 541 71 l 525 86 l 531 111 q 702 258 601 200 q 753 345 755 290 q 693 364 736 382 q 627 353 659 326 l 628 379 q 690 408 650 410 l 690 408 z "},"":{"ha":821,"x_min":40,"x_max":779,"o":"m 745 794 l 744 756 q 619 596 701 662 l 581 537 l 566 527 q 473 409 528 461 l 464 389 q 396 307 418 358 q 320 208 347 267 q 265 128 282 176 q 198 46 222 95 l 138 1 q 77 38 87 -8 q 131 141 72 102 l 154 181 l 175 195 q 260 306 205 260 q 310 367 276 344 l 324 395 l 378 440 q 496 587 415 528 q 569 685 525 642 l 591 743 l 610 769 l 630 779 l 657 805 l 689 817 l 734 808 l 745 794 l 745 794 m 237 738 l 280 746 l 298 740 l 303 731 l 299 716 l 274 709 l 219 655 l 221 636 q 256 535 266 596 q 197 456 245 481 l 154 445 q 40 494 84 442 l 40 518 l 52 528 l 76 528 l 104 504 l 138 493 q 200 564 201 500 l 183 595 l 160 599 l 104 590 l 92 605 l 94 624 l 104 642 l 166 666 l 183 685 l 183 692 l 176 697 l 102 700 l 96 710 l 99 732 l 129 746 l 176 747 l 224 744 l 237 738 l 237 738 m 720 355 q 572 162 634 267 l 577 158 l 653 161 l 664 171 l 689 232 l 705 248 l 724 247 l 736 235 l 734 220 l 713 184 l 713 174 q 770 177 741 155 l 779 174 l 778 161 l 754 127 q 649 30 658 135 l 635 21 l 618 21 l 606 30 l 606 58 l 630 104 l 622 116 l 510 115 l 490 134 l 492 150 q 607 297 561 214 q 665 362 645 323 l 692 384 l 718 377 l 720 355 l 720 355 z "},"":{"ha":603,"x_min":55,"x_max":548,"o":"m 488 814 q 548 771 535 818 l 537 744 l 519 729 q 464 769 477 728 l 471 799 l 488 814 l 488 814 m 448 600 q 492 561 487 601 q 452 428 485 491 l 445 396 q 357 355 417 331 q 278 339 316 359 q 190 292 224 338 q 156 229 163 266 l 149 223 q 174 131 129 167 q 271 99 214 88 q 406 194 372 109 q 462 197 433 211 q 475 134 489 172 q 259 3 409 11 q 127 53 183 0 q 55 197 57 109 q 93 323 54 264 q 215 419 138 393 q 318 447 258 456 l 323 452 l 360 459 l 385 488 l 406 550 l 424 587 l 448 600 l 448 600 z "},"":{"ha":785,"x_min":42,"x_max":711,"o":"m 586 979 q 666 897 640 952 l 677 891 l 690 869 l 701 862 l 711 833 l 710 811 l 704 799 l 668 786 q 675 655 660 720 q 675 472 655 562 q 679 314 662 392 l 672 277 l 672 245 l 675 239 q 692 64 654 151 q 663 -20 707 7 q 617 3 633 -23 q 606 80 605 41 q 587 152 587 114 l 579 161 l 563 168 l 468 164 l 463 161 l 234 156 q 125 17 161 102 q 51 12 89 -11 l 42 28 q 96 126 39 92 q 138 175 113 155 q 217 280 168 235 l 229 310 q 280 384 263 341 q 332 457 319 413 q 389 547 367 497 q 443 626 424 581 l 472 657 q 555 761 497 720 l 568 787 l 615 819 q 543 906 587 869 l 529 931 l 534 962 l 561 979 l 586 979 l 586 979 m 574 648 q 474 517 506 596 q 408 424 430 477 q 379 378 387 405 l 361 362 q 306 260 329 313 l 307 251 l 313 247 l 361 248 l 368 245 l 402 245 l 408 248 l 501 245 q 589 279 569 230 l 589 351 l 593 355 l 593 376 l 589 381 l 589 498 l 593 503 l 593 547 l 589 551 q 581 646 596 601 l 574 648 l 574 648 z "},"":{"ha":762,"x_min":37,"x_max":801,"o":"m 801 969 l 795 935 q 732 890 770 903 l 650 829 l 634 825 l 609 827 l 602 834 l 595 856 l 602 886 q 693 952 639 931 q 752 992 716 981 l 773 992 l 801 969 l 801 969 m 651 791 q 657 643 642 716 q 659 435 641 538 q 657 312 651 374 l 661 308 q 657 116 642 213 q 670 67 671 94 l 674 62 l 673 16 l 661 -10 l 645 -21 q 601 3 616 -23 q 572 128 596 68 l 571 148 l 548 164 l 454 161 l 449 158 l 224 153 q 117 16 153 100 q 45 11 82 -11 l 37 27 q 86 120 33 87 q 130 172 104 150 q 209 277 156 233 l 217 299 q 270 377 252 332 q 320 448 306 405 q 372 529 354 483 q 431 615 409 567 l 462 649 l 468 664 q 519 726 499 691 l 539 745 q 611 809 559 795 l 638 806 l 651 791 l 651 791 m 535 616 q 505 577 525 593 q 469 528 493 548 q 406 440 450 477 q 351 356 389 391 q 316 291 326 327 l 300 274 l 295 255 l 300 242 l 350 243 l 356 240 l 390 240 l 395 243 l 487 240 q 572 274 553 225 l 572 344 l 576 349 q 572 488 564 418 l 576 493 q 565 633 581 565 l 558 636 l 548 623 l 535 616 l 535 616 z "},"":{"ha":764,"x_min":31,"x_max":770,"o":"m 665 1009 l 680 1001 q 761 916 710 948 l 770 899 l 764 866 l 740 850 q 658 897 687 845 q 566 909 617 935 q 470 872 525 870 l 450 897 q 490 955 448 940 l 510 960 q 560 986 531 981 q 620 1026 585 1014 l 654 1023 l 665 1009 l 665 1009 m 650 795 l 650 684 l 654 679 q 654 537 661 608 l 650 532 l 650 507 l 654 500 q 654 353 661 427 q 654 273 667 313 q 673 62 638 164 q 644 -21 688 7 q 598 6 612 -24 q 571 129 597 70 l 570 149 l 547 165 l 452 162 l 447 158 l 220 154 q 113 15 149 100 q 40 11 77 -11 l 31 27 q 84 124 28 90 q 125 172 100 152 q 203 276 155 231 l 213 301 q 266 379 248 334 l 297 410 q 337 474 309 447 q 415 591 367 539 l 423 611 q 470 674 455 637 q 553 779 524 718 q 610 814 578 802 l 637 811 l 650 795 l 650 795 m 533 620 q 493 568 519 589 l 486 551 l 467 531 q 422 470 454 494 l 416 454 l 399 437 q 371 391 392 410 l 364 373 l 348 358 q 291 256 315 310 l 292 247 l 298 243 l 346 244 l 352 239 l 387 239 l 392 244 l 453 244 l 459 239 l 485 239 l 489 244 l 555 253 l 571 275 l 571 346 l 575 351 l 575 369 l 571 375 l 571 491 l 575 496 l 575 538 l 571 544 q 564 637 578 592 l 556 640 l 548 628 l 533 620 l 533 620 z "},"":{"ha":770,"x_min":37,"x_max":798,"o":"m 798 980 q 774 901 805 935 l 751 887 l 731 885 q 686 868 711 870 l 651 872 l 645 878 q 580 907 609 885 l 548 906 l 542 900 l 499 885 l 477 868 l 445 868 l 425 885 l 420 896 l 428 927 q 548 992 473 987 q 661 966 610 1001 q 729 984 704 951 l 756 996 l 789 990 l 798 980 l 798 980 m 658 796 q 664 646 650 720 l 658 506 l 662 501 q 662 352 669 427 l 664 313 l 669 308 q 681 61 640 183 q 669 -13 690 20 l 651 -23 l 625 -17 l 607 0 l 603 31 l 598 36 l 595 76 q 578 147 579 110 l 554 164 l 459 160 l 454 157 l 227 152 q 117 13 154 98 q 45 9 82 -13 l 37 25 q 90 122 34 88 q 129 167 105 150 q 210 275 160 228 q 262 353 223 321 q 314 425 276 396 l 323 450 q 375 532 358 485 q 436 619 414 570 q 477 674 464 641 l 499 694 q 541 745 513 724 q 618 816 563 798 l 645 811 l 658 796 l 658 796 m 539 617 q 508 579 528 594 q 431 472 479 519 q 378 390 413 427 l 367 366 q 316 287 330 334 l 307 280 l 297 255 l 298 245 l 304 242 l 354 243 l 359 239 l 394 239 l 399 243 q 564 253 483 230 l 579 274 l 579 345 l 583 350 q 579 490 571 419 l 583 495 q 571 637 589 568 l 565 640 l 539 617 l 539 617 z "},"":{"ha":782,"x_min":55,"x_max":798,"o":"m 499 1047 q 557 1025 533 1049 l 564 1001 q 537 931 570 958 l 508 923 q 451 971 465 923 l 451 996 l 457 1002 q 499 1047 459 1042 l 499 1047 m 751 1015 q 798 970 792 1012 q 766 906 804 928 l 751 900 q 697 946 705 895 q 730 1010 690 989 l 751 1015 l 751 1015 m 672 797 q 678 649 664 722 l 672 509 l 675 504 q 675 356 683 430 l 678 317 l 683 312 q 678 120 663 217 q 691 71 692 97 l 695 66 q 682 -8 705 24 l 665 -18 q 622 6 636 -20 q 593 132 617 71 l 592 152 l 569 168 l 474 165 l 470 161 l 243 157 q 136 19 172 103 q 63 14 101 -8 l 55 31 q 104 123 52 91 q 149 175 122 153 q 223 276 174 233 q 268 341 236 315 q 325 420 287 388 l 340 453 l 349 461 q 427 578 379 527 l 451 622 q 492 676 480 642 q 528 718 516 692 l 560 752 q 632 817 579 802 l 659 812 l 672 797 l 672 797 m 579 642 q 484 518 513 593 q 415 420 439 476 l 396 398 l 391 381 q 335 296 352 346 l 320 278 l 314 259 l 320 246 l 369 247 l 375 244 l 410 244 l 415 247 l 507 244 q 593 278 575 229 l 593 349 l 597 353 q 593 493 585 422 l 597 498 q 587 635 602 567 l 579 642 l 579 642 z "},"":{"ha":815,"x_min":60,"x_max":712,"o":"m 636 919 q 695 895 673 926 l 700 884 l 697 829 l 687 817 l 690 809 q 696 658 681 733 l 693 547 l 690 543 q 693 360 702 452 q 693 278 706 319 q 713 64 676 168 q 683 -21 728 8 l 656 -15 l 638 3 l 634 34 l 629 39 l 626 80 q 608 151 610 114 l 584 169 l 558 169 l 553 164 l 253 157 l 220 129 l 210 110 l 196 99 l 143 16 q 69 12 107 -11 l 60 28 q 113 126 57 92 q 157 176 130 155 q 232 278 181 235 q 292 367 252 329 l 300 387 q 353 463 339 417 l 364 473 q 444 592 391 541 q 497 665 460 635 l 506 685 q 557 746 538 710 l 570 756 l 588 790 l 624 815 q 626 911 586 862 l 636 919 l 636 919 m 626 871 l 627 851 l 645 837 l 660 837 l 674 848 l 678 856 l 673 880 l 660 889 l 645 889 l 631 880 l 626 871 l 626 871 m 595 652 q 498 525 530 600 l 455 475 l 448 458 l 439 451 l 432 432 q 403 387 411 413 q 345 297 364 349 l 332 283 l 325 261 l 331 248 l 381 250 l 386 244 l 422 244 l 428 250 l 490 250 l 494 244 l 521 244 l 527 250 l 594 258 l 609 281 l 609 352 l 613 357 l 609 383 l 609 499 l 613 505 q 601 648 621 578 l 595 652 l 595 652 z "},"":{"ha":1083,"x_min":42,"x_max":1021,"o":"m 613 820 q 769 816 691 801 q 952 816 861 804 q 1000 774 992 811 q 949 724 994 731 q 871 722 910 732 l 839 728 q 653 720 746 731 l 659 654 l 657 547 l 653 542 l 658 483 l 721 474 q 793 478 756 484 l 865 484 l 900 469 l 912 442 q 862 392 908 399 q 783 389 823 402 l 750 395 l 745 391 q 660 388 703 382 l 657 385 l 659 327 l 664 322 q 671 98 636 209 l 676 94 q 793 95 734 82 q 975 95 884 84 l 1011 79 l 1022 54 q 973 3 1018 11 q 892 1 933 12 l 862 7 q 699 0 780 11 l 655 3 l 646 -3 l 621 2 l 603 20 l 598 50 l 594 55 l 592 94 q 574 164 575 127 l 551 180 l 458 177 l 452 173 l 229 169 q 122 32 158 115 q 51 28 87 7 l 43 44 q 95 140 40 106 q 134 184 109 166 q 213 290 164 243 q 264 366 226 335 l 273 388 q 324 461 312 417 q 375 542 358 496 q 434 628 414 579 q 475 681 462 649 q 511 723 499 697 q 554 782 541 746 q 613 820 579 808 l 613 820 m 537 627 q 506 588 526 604 q 428 480 475 528 q 378 402 413 436 l 367 379 q 298 270 320 334 l 300 260 l 306 257 l 354 258 l 359 255 l 394 255 l 399 258 q 560 267 480 245 l 575 288 l 575 358 l 579 363 q 575 501 567 431 l 579 506 q 567 645 586 577 l 562 648 l 537 627 l 537 627 z "},"":{"ha":729,"x_min":59,"x_max":693,"o":"m 578 795 q 666 705 640 768 l 683 688 l 693 670 q 673 618 699 637 l 643 617 l 615 636 q 511 722 595 719 q 351 653 416 729 l 302 603 l 295 586 l 271 558 l 264 541 l 252 528 q 226 486 245 503 q 198 439 218 459 q 161 318 167 382 l 154 305 q 155 185 140 244 l 162 178 q 204 101 169 131 l 226 93 l 281 93 l 358 110 q 461 141 402 148 l 480 118 l 469 88 q 306 0 402 20 l 289 -17 l 283 -36 l 299 -60 q 358 -149 348 -90 l 356 -166 q 261 -261 328 -236 l 212 -266 q 135 -246 169 -271 l 124 -232 l 125 -202 l 153 -177 l 185 -175 q 245 -164 217 -193 l 252 -149 q 162 -110 236 -93 l 135 -85 l 137 -55 l 145 -47 l 154 -30 l 172 -15 l 172 11 l 107 64 l 97 92 l 81 111 l 75 147 l 71 153 q 59 255 78 207 l 77 342 l 106 444 l 124 466 l 128 480 q 180 567 161 519 l 191 578 l 197 596 l 251 672 l 274 697 l 289 705 l 301 722 l 316 728 q 463 801 377 790 l 497 816 l 512 816 l 578 795 l 578 795 z "},"":{"ha":767,"x_min":48,"x_max":720,"o":"m 445 1053 q 543 987 511 1059 l 552 967 l 564 961 l 577 939 l 590 930 l 601 903 l 597 872 l 576 857 l 564 856 q 483 915 508 863 l 466 930 l 456 949 q 410 1003 424 969 l 416 1036 l 445 1053 l 445 1053 m 712 806 l 720 783 l 711 748 l 685 734 q 617 724 650 736 l 582 724 l 560 717 l 425 724 q 353 656 368 715 l 347 632 l 327 603 q 307 541 325 569 l 307 517 l 312 506 l 323 500 q 384 493 354 503 q 462 500 424 489 l 533 497 l 557 476 l 564 446 q 474 397 544 392 l 349 403 l 344 408 l 307 408 l 302 403 q 244 362 259 403 q 209 249 218 308 q 178 135 174 196 l 188 120 q 331 112 258 99 l 335 117 l 346 117 l 350 112 l 474 117 q 505 64 506 100 q 453 22 498 22 l 317 20 l 311 15 q 168 6 240 3 l 87 8 l 59 25 l 48 42 q 79 153 43 102 l 86 187 l 106 221 l 109 243 l 127 299 l 133 305 l 136 325 q 209 525 164 428 l 223 595 l 236 614 l 251 668 q 277 728 273 694 q 312 802 305 759 l 339 821 q 409 813 375 826 q 497 817 453 806 q 642 825 570 807 l 697 820 l 712 806 l 712 806 z "},"":{"ha":755,"x_min":41,"x_max":713,"o":"m 699 990 l 693 954 l 667 928 q 580 869 617 909 q 539 842 555 862 l 523 837 l 495 840 l 488 847 l 481 871 l 488 902 q 585 972 528 949 q 647 1015 609 1003 l 669 1015 l 699 990 l 699 990 m 708 798 l 714 775 l 708 745 l 690 731 l 657 728 l 652 723 q 559 714 606 714 l 554 709 l 544 709 l 539 714 l 419 717 l 375 700 q 340 625 350 666 q 312 556 311 599 q 306 499 290 528 q 456 494 381 473 q 549 473 512 510 l 557 439 q 468 390 537 384 q 399 397 433 387 l 343 397 l 338 401 q 238 356 268 414 q 213 289 232 320 q 185 207 210 244 l 171 146 l 172 128 l 182 113 q 325 104 252 92 l 329 109 l 339 109 l 344 104 l 468 109 q 499 57 500 93 q 447 15 492 15 l 311 13 l 304 8 q 162 -1 234 -4 l 81 1 l 53 18 l 42 35 q 73 145 37 95 l 80 180 l 100 214 l 102 236 l 121 292 l 127 298 l 130 318 l 164 426 l 170 429 q 203 517 178 477 l 217 588 l 230 607 l 245 661 q 271 721 267 686 l 285 738 l 306 796 l 333 814 q 398 811 366 815 l 402 806 l 453 804 l 484 806 l 491 811 l 536 811 l 549 806 l 554 811 l 629 814 l 636 818 l 691 812 l 708 798 l 708 798 z "},"":{"ha":764,"x_min":42,"x_max":715,"o":"m 604 1021 l 621 1011 q 705 922 651 956 l 715 904 l 709 869 l 683 852 q 597 902 628 847 q 496 913 552 943 q 400 876 456 872 l 380 902 q 416 960 376 943 l 442 967 q 494 995 465 989 q 558 1037 520 1024 l 592 1036 l 604 1021 l 604 1021 m 708 800 l 714 779 l 705 744 l 679 731 q 611 721 644 733 l 575 721 l 554 713 l 419 721 q 347 652 362 712 l 340 629 l 321 599 q 301 537 318 566 l 301 514 l 306 503 l 317 496 q 378 490 348 500 q 456 496 418 485 l 527 494 l 551 473 l 558 442 q 468 393 533 389 l 301 405 q 238 359 255 399 q 203 246 212 305 q 172 132 168 193 l 182 117 q 330 112 255 92 q 468 112 397 93 q 499 61 501 97 q 447 19 492 19 l 311 16 l 304 12 q 162 3 234 0 l 81 5 l 53 21 l 42 39 q 73 149 37 98 l 80 184 l 100 217 l 102 240 l 121 295 l 127 301 l 130 321 q 203 521 158 424 l 217 592 l 230 610 l 246 667 l 257 682 l 271 724 q 306 799 299 756 l 333 818 q 402 810 369 822 q 489 814 447 802 q 636 821 563 803 l 692 815 l 708 800 l 708 800 z "},"":{"ha":762,"x_min":42,"x_max":721,"o":"m 407 1026 q 467 1003 443 1028 l 475 978 q 415 896 481 904 l 400 897 l 393 905 l 380 907 l 356 947 l 356 973 l 362 979 q 407 1026 365 1021 l 407 1026 m 672 992 q 722 945 715 989 q 699 886 728 909 l 672 871 q 615 920 624 866 q 650 988 608 966 l 672 992 l 672 992 m 669 817 l 697 813 l 710 798 l 715 779 l 705 745 l 686 732 q 420 720 554 701 q 320 593 331 703 q 301 537 317 563 l 305 505 l 317 496 q 379 490 349 500 q 456 496 418 486 l 527 494 l 549 477 l 559 442 q 469 394 535 389 l 343 400 l 338 405 l 301 405 l 296 400 q 240 364 257 400 q 213 293 234 326 q 186 211 210 249 q 171 151 186 179 l 172 132 l 181 118 q 330 112 254 92 q 469 112 397 93 q 498 53 506 95 q 449 19 488 18 l 311 17 l 305 12 q 162 3 234 0 l 82 5 l 53 22 l 42 39 q 73 150 38 99 l 80 184 l 100 218 l 103 240 l 121 296 l 127 302 q 182 463 138 388 q 210 540 189 504 l 217 592 l 231 609 l 247 668 l 258 683 l 272 725 l 286 745 q 335 817 288 801 q 491 814 414 797 l 549 810 l 554 814 l 631 817 l 636 822 l 663 822 l 669 817 l 669 817 z "},"":{"ha":519,"x_min":64,"x_max":427,"o":"m 276 1029 q 368 968 338 1035 l 399 923 l 411 915 l 421 890 l 418 861 l 399 847 l 387 846 q 312 901 335 853 l 296 915 l 287 932 q 244 983 258 951 l 250 1013 l 276 1029 l 276 1029 m 390 817 q 427 792 419 817 l 426 759 q 406 694 408 729 q 375 628 384 665 q 346 562 351 600 l 327 532 q 282 414 317 468 q 232 275 269 341 q 206 202 227 236 l 199 171 l 189 157 q 154 77 182 112 q 121 11 150 38 l 106 4 l 81 6 l 64 26 q 104 137 60 89 l 110 159 l 122 178 q 148 251 126 218 l 162 314 l 172 326 q 198 396 175 364 l 205 434 q 231 488 226 457 q 258 557 253 519 l 274 584 l 282 621 q 318 699 307 656 l 325 706 q 348 768 328 740 q 390 817 351 805 l 390 817 z "},"":{"ha":558,"x_min":84,"x_max":622,"o":"m 623 996 l 617 963 l 592 938 q 511 884 546 921 q 473 859 489 877 l 458 854 q 419 885 422 845 l 430 920 q 516 980 466 961 l 532 997 l 574 1019 l 595 1019 l 623 996 l 623 996 m 411 818 q 449 793 438 819 l 448 759 q 422 683 428 723 q 397 628 401 660 l 378 600 q 348 530 373 561 q 327 468 348 495 q 302 412 323 437 l 294 377 l 288 371 q 259 295 283 329 l 243 237 l 238 231 l 219 169 l 209 155 l 194 105 q 162 37 169 76 l 141 8 l 125 1 l 100 2 l 84 23 q 123 134 79 85 l 129 156 l 142 176 q 167 249 145 216 l 181 310 l 192 323 q 217 391 196 360 q 268 518 227 459 l 282 565 l 294 582 q 345 706 303 650 q 369 768 348 741 q 411 818 374 807 l 411 818 z "},"":{"ha":546,"x_min":71,"x_max":580,"o":"m 479 992 l 494 983 q 571 902 522 933 l 580 886 q 550 838 586 849 q 471 884 499 833 q 375 895 428 922 q 286 860 338 856 l 267 884 q 306 941 264 926 l 326 945 l 355 965 l 370 968 q 433 1010 397 998 l 468 1006 l 479 992 l 479 992 m 398 819 q 436 794 426 820 l 435 760 q 409 684 414 725 q 384 630 389 661 l 364 601 q 334 532 360 562 q 287 405 325 465 q 245 293 276 346 q 219 216 239 252 q 194 154 216 180 l 180 107 q 149 39 156 78 l 127 10 l 112 3 l 87 4 l 71 25 q 110 136 65 87 l 111 146 q 141 228 136 183 q 169 314 166 267 l 178 325 q 202 389 182 360 l 217 446 q 243 500 238 469 q 268 566 264 529 l 281 584 l 296 638 l 306 650 q 332 707 313 682 l 346 755 l 356 769 q 398 819 361 807 l 398 819 z "},"":{"ha":529,"x_min":71,"x_max":594,"o":"m 303 987 q 361 962 339 989 l 366 942 q 339 874 372 899 l 312 866 q 257 913 269 866 q 278 978 252 951 l 303 987 l 303 987 m 549 956 q 595 912 589 952 q 564 849 602 871 l 549 843 q 496 888 504 838 q 528 951 489 930 l 549 956 l 549 956 m 434 794 q 420 735 441 760 l 408 685 q 379 624 385 659 l 370 615 q 333 533 361 569 l 326 499 l 320 492 q 290 419 313 453 q 238 278 275 345 q 213 205 233 239 l 206 175 q 181 111 184 147 l 161 80 q 128 15 157 41 l 113 8 l 88 9 l 72 30 l 72 62 q 129 181 90 126 q 154 254 133 221 l 168 314 l 179 328 q 205 399 182 367 l 212 437 q 237 491 233 460 q 266 564 260 524 q 292 631 289 593 l 311 662 q 336 723 315 696 l 344 756 l 368 802 l 396 819 l 417 814 l 434 794 l 434 794 z "},"":{"ha":759,"x_min":47,"x_max":702,"o":"m 467 817 q 595 779 540 824 l 652 718 l 653 707 q 702 602 692 661 l 698 467 l 691 435 l 685 429 l 668 352 q 644 293 649 326 q 586 188 606 245 q 527 109 551 152 q 359 17 460 28 l 354 13 l 304 10 l 299 6 q 196 4 246 18 l 95 13 l 90 17 q 47 59 54 19 l 52 113 l 65 134 q 90 191 68 166 q 117 267 95 232 q 144 347 118 311 l 151 389 l 146 396 l 120 402 l 96 425 q 108 481 84 458 l 130 492 l 140 489 l 186 490 l 205 561 q 262 694 250 621 q 288 760 284 722 l 314 798 l 349 814 l 449 810 l 467 817 l 467 817 m 475 724 q 430 714 451 725 q 361 697 391 722 q 331 642 352 667 q 286 546 319 588 l 271 492 q 469 490 369 472 q 518 447 510 485 q 467 396 514 402 q 385 393 426 405 q 235 396 311 411 l 224 376 q 210 318 226 345 q 179 212 208 261 l 163 142 l 167 110 l 182 95 l 207 92 q 294 100 249 106 q 372 119 330 120 q 490 215 445 145 q 551 326 531 264 l 562 340 q 590 419 567 383 l 605 502 l 610 508 l 605 515 l 605 549 l 610 554 l 610 567 l 605 573 q 563 673 605 631 q 475 724 528 718 l 475 724 z "},"":{"ha":947,"x_min":42,"x_max":895,"o":"m 813 1015 l 813 978 l 784 926 q 691 893 741 901 q 577 936 628 898 q 466 893 513 939 l 432 893 l 410 913 l 405 924 q 447 992 407 968 q 496 1020 475 1000 q 629 1020 563 1038 q 723 1002 672 984 l 738 1019 l 769 1031 l 803 1025 l 813 1015 l 813 1015 m 397 794 l 408 736 q 441 661 433 703 l 448 652 q 481 567 453 604 q 510 462 486 512 q 537 360 508 405 l 541 343 l 573 293 l 581 264 l 608 235 l 615 236 q 680 398 661 312 q 707 492 705 442 q 743 601 743 543 q 772 689 770 640 l 789 715 q 829 808 789 770 l 864 811 l 884 797 l 895 772 l 890 736 l 879 719 q 853 650 872 682 q 829 568 851 605 q 793 439 824 500 l 785 399 l 772 376 l 762 319 q 735 256 740 291 l 722 235 q 681 117 713 172 l 678 90 q 659 29 660 62 l 645 6 l 629 1 q 549 39 578 -3 q 510 159 554 108 q 481 232 503 198 l 480 250 q 446 372 450 307 l 433 390 l 418 453 l 406 468 l 370 574 l 359 584 q 314 536 320 576 l 294 504 q 266 440 290 468 l 252 365 q 211 270 243 311 q 181 181 205 222 q 153 97 180 134 l 139 38 q 69 2 117 -8 l 55 12 l 42 34 q 60 89 39 65 l 69 139 l 88 168 l 97 202 l 115 228 q 173 413 125 326 q 194 482 174 451 q 229 586 200 538 l 237 633 l 257 659 q 285 743 262 704 q 338 814 285 798 l 379 809 l 397 794 l 397 794 z "},"":{"ha":815,"x_min":40,"x_max":755,"o":"m 413 1011 q 500 952 472 1016 l 532 909 l 543 901 l 553 877 l 549 849 l 530 836 l 519 834 l 491 841 q 424 916 449 870 q 382 967 395 936 l 387 996 l 413 1011 l 413 1011 m 509 811 q 597 792 558 821 l 609 790 l 634 773 l 647 770 l 678 741 l 726 684 q 749 613 731 647 l 752 562 l 755 557 l 755 475 q 734 397 756 432 l 721 341 q 701 291 703 319 q 674 238 681 268 q 554 111 630 160 l 524 81 q 426 30 472 61 l 327 -2 q 275 4 302 7 q 115 103 177 27 l 97 116 q 58 208 65 157 l 48 227 l 40 286 q 121 558 31 434 q 146 600 139 576 q 195 667 175 630 q 247 717 225 687 q 322 766 289 735 q 408 797 369 772 l 509 811 l 509 811 m 417 711 q 356 681 391 689 q 306 645 326 669 l 297 642 q 164 463 212 568 q 135 385 158 420 q 126 311 137 347 q 170 164 115 226 q 311 89 225 97 l 352 91 q 427 115 387 110 q 497 157 457 145 l 527 182 q 578 241 543 218 q 603 284 585 267 l 606 299 q 640 357 630 323 l 646 363 q 656 440 660 400 l 668 473 q 656 591 678 534 l 651 637 l 643 658 l 631 669 q 551 722 607 717 l 489 722 l 417 711 l 417 711 z "},"":{"ha":836,"x_min":54,"x_max":768,"o":"m 690 984 l 685 954 l 661 928 q 587 879 618 912 l 557 863 l 551 854 l 530 847 l 506 849 l 493 877 q 534 936 495 916 l 551 943 l 566 959 l 587 968 l 605 987 l 642 1006 l 663 1006 l 690 984 l 690 984 m 579 812 q 631 789 602 794 l 647 777 l 656 776 l 687 749 l 740 686 q 763 617 741 649 l 765 564 l 768 559 l 768 478 q 747 399 770 434 q 715 307 741 350 l 713 291 l 705 282 q 537 83 657 156 q 439 32 486 63 l 340 0 q 288 7 315 9 q 128 105 191 29 l 110 118 q 71 210 79 159 l 62 229 l 54 288 l 54 339 l 67 420 q 87 467 84 440 q 146 573 107 526 q 260 719 183 661 l 336 768 q 421 800 382 776 l 499 808 l 504 812 l 523 815 l 579 812 l 579 812 m 430 715 q 370 684 403 692 q 319 647 339 672 l 311 645 l 255 589 l 177 466 q 148 387 172 423 q 139 313 150 349 q 161 194 135 251 q 236 119 192 149 q 325 91 278 97 l 365 93 q 440 117 400 112 q 525 169 478 150 q 546 197 539 180 l 592 243 q 616 287 598 269 l 623 308 q 653 359 646 329 l 660 366 q 669 444 673 403 l 682 475 q 669 593 691 536 l 664 640 l 655 662 l 644 671 q 568 721 623 720 l 564 726 l 503 726 l 497 721 l 430 715 l 430 715 z "},"":{"ha":851,"x_min":60,"x_max":779,"o":"m 618 986 l 634 977 q 701 905 657 931 l 720 881 q 690 834 723 845 q 613 879 640 829 q 521 889 572 915 q 435 855 485 852 l 416 879 q 454 933 413 919 l 473 938 q 519 962 493 958 q 577 1000 544 989 l 608 999 l 618 986 l 618 986 m 532 818 q 697 752 631 825 l 750 690 q 773 619 755 652 l 775 567 l 779 562 l 779 480 l 769 422 q 749 359 750 394 l 725 308 l 724 295 q 701 248 706 275 q 448 33 613 97 l 349 1 q 296 7 323 11 q 136 107 198 30 l 118 119 q 78 211 85 160 q 61 290 58 247 q 136 551 52 431 q 167 606 156 576 l 219 676 q 268 722 249 693 l 345 771 q 430 804 390 779 l 509 811 l 513 816 l 532 818 l 532 818 m 439 718 q 390 693 418 697 q 246 569 301 650 l 185 468 q 156 389 179 425 q 146 316 158 352 q 197 161 136 225 q 333 92 252 100 l 373 95 q 449 118 409 114 q 519 160 480 148 l 551 187 l 555 197 q 629 303 613 238 q 680 445 685 363 l 692 478 q 680 596 702 539 l 674 643 l 666 664 l 654 675 q 573 729 630 723 l 512 729 l 439 718 l 439 718 z "},"":{"ha":839,"x_min":58,"x_max":770,"o":"m 770 944 q 748 869 777 901 l 725 856 l 708 854 q 665 838 688 841 l 632 843 l 627 848 q 566 875 593 854 l 536 874 l 531 868 l 491 855 l 470 838 l 440 838 l 421 855 l 417 865 l 424 894 q 536 955 466 950 q 641 930 594 963 q 705 947 682 916 l 731 958 l 762 952 l 770 944 l 770 944 m 525 812 q 612 792 574 821 l 627 789 l 649 773 l 663 770 l 695 739 l 741 684 q 764 614 746 647 l 766 562 l 770 558 l 770 476 q 749 398 771 433 q 717 306 742 349 l 715 293 q 689 240 696 270 q 570 114 645 162 l 539 84 q 443 33 488 64 l 344 1 q 292 8 318 11 q 133 106 195 30 l 115 118 q 76 210 83 159 l 66 229 l 58 288 q 139 558 50 435 q 166 604 158 578 q 211 666 194 632 q 264 717 242 687 q 319 749 289 739 l 339 765 q 410 792 378 770 q 502 805 454 808 l 525 812 l 525 812 m 433 712 q 385 688 413 692 q 323 645 349 674 l 314 643 q 251 572 272 615 l 242 565 l 221 527 l 212 519 l 205 501 q 176 437 178 475 l 153 386 q 143 313 154 349 q 166 195 139 251 q 240 120 196 150 q 328 92 282 98 l 368 94 q 443 117 403 113 q 513 159 474 148 l 542 184 q 594 243 559 220 q 618 287 600 269 l 621 301 q 654 358 646 326 l 661 365 q 671 441 674 402 l 683 473 q 671 592 693 535 q 643 674 677 643 l 636 688 q 505 722 581 738 l 433 712 l 433 712 z "},"":{"ha":830,"x_min":46,"x_max":764,"o":"m 437 1011 q 494 987 472 1014 l 499 968 q 473 902 504 926 l 446 894 q 391 940 404 894 l 391 963 l 397 969 q 437 1011 399 1006 l 437 1011 m 676 981 q 722 939 713 981 q 693 878 728 900 l 676 871 q 625 915 633 867 q 657 977 618 958 l 676 981 l 676 981 m 574 814 q 626 791 597 797 l 643 779 l 651 778 l 681 753 l 735 687 q 759 618 737 650 l 761 564 l 764 560 l 764 477 q 743 399 766 434 q 711 306 737 349 l 708 291 l 701 282 q 532 82 653 155 q 434 31 480 61 l 334 -2 q 282 5 309 8 q 121 104 184 27 l 103 116 q 64 209 71 158 l 54 228 l 46 287 l 46 339 l 60 420 q 81 469 77 442 q 114 529 90 504 q 139 574 120 555 l 152 604 q 200 669 181 633 q 254 721 232 690 l 330 770 q 416 802 376 778 l 494 810 l 499 814 l 518 817 l 574 814 l 574 814 m 425 716 q 363 685 397 694 q 313 648 333 674 l 304 646 l 250 591 q 195 503 211 553 q 164 438 167 477 l 141 387 q 132 313 143 349 q 154 193 128 251 q 229 118 184 148 q 318 90 272 96 l 359 92 q 435 116 394 111 q 520 168 473 149 q 541 195 534 178 l 587 243 q 611 286 593 268 l 618 308 q 648 359 641 328 l 655 366 q 665 444 668 403 l 677 475 q 665 595 687 537 l 660 642 l 649 665 l 639 673 q 563 723 618 721 l 559 727 l 497 727 l 492 723 l 425 716 l 425 716 z "},"":{"ha":579,"x_min":54,"x_max":520,"o":"m 473 460 q 520 424 511 464 l 514 386 q 460 325 480 360 l 447 318 l 440 307 l 412 284 l 407 272 q 352 191 349 246 q 382 138 359 160 q 426 72 394 99 l 433 53 l 428 17 l 398 -9 q 289 83 320 3 l 260 110 l 250 114 q 145 17 178 85 q 62 17 103 -14 l 55 42 q 178 221 58 157 q 149 333 193 284 q 152 426 120 382 l 161 434 l 194 428 l 219 404 l 244 354 l 254 346 l 264 328 l 278 315 l 290 315 l 318 326 l 430 436 l 452 454 l 473 460 l 473 460 z "},"":{"ha":663,"x_min":64,"x_max":602,"o":"m 558 823 l 560 791 q 535 714 541 754 q 507 656 513 689 l 492 634 l 484 602 q 575 514 547 574 l 585 505 l 603 435 q 533 213 602 314 q 472 139 490 184 q 427 100 454 115 l 421 88 q 349 37 379 71 l 321 24 l 314 17 l 251 -2 q 198 -126 238 -70 q 152 -195 195 -174 q 113 -174 123 -202 q 151 -69 109 -114 l 156 -48 l 168 -29 l 174 -1 q 90 66 117 9 l 89 76 q 64 232 45 145 l 67 266 q 90 329 85 295 l 121 386 l 132 394 l 147 421 l 221 505 q 299 569 254 546 l 306 577 l 325 586 l 343 603 q 388 621 368 606 l 413 622 l 426 667 l 437 682 q 461 736 442 712 l 474 782 l 484 795 q 524 841 488 832 l 544 837 l 558 823 l 558 823 m 434 451 q 410 400 414 430 q 359 276 370 346 l 354 270 q 331 211 351 237 q 298 127 323 166 l 300 125 q 379 195 351 147 l 396 208 l 406 225 q 451 290 444 248 q 491 382 480 332 l 491 415 q 446 489 491 475 l 440 482 l 434 451 l 434 451 m 344 478 q 298 423 313 456 l 284 414 l 279 404 l 235 364 q 170 208 181 294 q 186 119 169 162 l 204 102 l 211 105 q 239 175 216 144 l 247 214 q 271 266 266 237 q 306 360 299 309 l 316 374 q 339 437 320 408 l 349 470 l 349 478 l 344 478 l 344 478 z "},"":{"ha":869,"x_min":50,"x_max":794,"o":"m 487 1037 q 568 952 542 1009 l 579 946 l 593 924 l 605 915 l 615 888 l 614 864 l 608 852 l 579 842 l 549 849 q 472 934 499 881 q 428 987 442 955 l 433 1019 l 461 1037 l 487 1037 l 487 1037 m 794 798 q 779 716 799 755 q 765 639 782 676 l 759 581 q 733 512 738 550 l 720 490 q 693 417 718 449 q 640 290 679 347 l 618 196 l 614 190 l 614 165 l 618 160 l 626 123 l 632 117 l 637 97 l 652 77 q 598 15 651 26 l 570 23 l 544 52 l 523 119 l 514 132 q 455 105 480 132 l 406 66 q 347 35 373 58 l 336 33 l 306 13 l 276 5 q 103 62 174 -13 q 50 155 65 103 l 56 234 q 94 347 60 296 q 121 420 97 388 l 129 455 q 159 522 151 485 l 175 545 q 203 604 180 579 q 250 718 211 666 l 256 753 l 278 793 q 342 793 312 817 l 347 782 q 311 665 350 717 q 292 620 308 640 l 282 581 q 251 518 258 554 l 237 500 q 185 372 222 432 q 152 278 182 320 l 149 218 l 144 213 l 144 179 q 209 97 164 128 q 280 114 249 85 q 394 182 350 123 l 465 232 l 551 314 q 578 362 559 341 l 586 395 q 638 526 627 453 l 644 532 q 666 631 663 579 q 708 781 701 701 l 725 809 l 753 821 l 786 813 l 794 798 l 794 798 z "},"":{"ha":872,"x_min":67,"x_max":804,"o":"m 681 995 l 675 960 q 610 913 650 927 l 525 851 l 509 846 l 483 848 l 475 856 l 468 879 l 475 909 q 570 978 514 956 q 630 1019 593 1008 l 652 1019 l 681 995 l 681 995 m 805 794 q 789 713 809 751 q 775 636 792 673 l 769 577 q 744 509 748 547 l 731 489 q 704 415 728 448 q 651 289 690 346 l 630 196 l 625 190 l 625 165 l 630 160 l 637 124 l 644 118 l 648 97 l 663 78 q 610 16 662 27 l 582 25 l 556 53 l 536 119 l 526 133 q 468 106 493 132 l 419 67 q 361 36 387 59 l 351 35 l 320 14 l 291 7 q 119 64 190 -11 q 67 156 82 104 q 84 266 61 214 l 93 314 l 111 346 q 137 418 113 386 l 144 452 q 175 519 167 483 q 198 570 194 541 l 218 600 q 266 716 225 664 q 284 794 265 758 q 348 801 316 824 q 332 669 371 733 l 325 662 l 297 577 q 266 516 273 552 l 252 497 q 200 370 238 429 q 168 277 198 319 l 165 217 l 160 213 l 160 179 q 224 97 179 129 q 295 114 263 85 q 408 182 365 124 q 490 248 459 203 q 597 394 582 298 q 649 523 638 452 l 656 530 q 677 627 674 576 q 723 785 712 702 l 742 808 l 764 815 l 796 808 l 805 794 l 805 794 z "},"":{"ha":854,"x_min":50,"x_max":787,"o":"m 607 1015 l 619 1008 q 696 928 646 956 l 712 904 l 710 877 l 681 854 q 597 902 627 848 q 496 913 552 942 q 403 877 458 873 l 384 902 q 425 961 381 946 q 476 987 455 967 l 492 990 q 558 1034 519 1023 l 591 1033 l 607 1015 l 607 1015 m 787 793 q 772 712 791 750 q 758 635 774 672 l 752 577 q 727 510 731 547 l 713 488 q 687 415 711 447 q 633 288 672 346 l 613 196 l 608 190 l 608 166 l 613 161 l 620 124 l 626 118 l 631 98 l 646 79 q 592 17 645 27 q 533 76 540 24 l 526 85 l 518 120 l 509 133 q 450 106 476 132 l 402 67 q 344 36 370 59 l 333 35 l 303 14 l 274 7 q 102 64 172 -11 q 50 156 65 104 l 56 233 q 92 342 58 294 q 120 419 95 385 q 146 485 123 456 q 173 542 151 518 l 180 569 l 201 599 q 248 715 208 663 q 267 793 248 757 q 331 800 299 824 l 335 786 l 333 711 q 280 577 294 648 q 248 515 256 551 l 235 497 q 195 402 227 445 q 174 324 178 365 l 150 277 l 148 218 l 143 213 l 143 179 q 207 98 162 129 q 263 109 239 85 q 396 187 344 122 l 412 195 l 460 232 l 546 313 q 573 361 553 340 l 580 393 q 632 523 620 452 l 638 529 l 700 772 l 718 803 l 746 815 l 779 808 l 787 793 l 787 793 z "},"":{"ha":848,"x_min":41,"x_max":782,"o":"m 405 1015 q 464 992 440 1017 l 472 967 q 444 896 478 923 l 415 887 q 355 937 369 887 l 355 963 l 361 968 q 405 1015 363 1010 l 405 1015 m 665 982 q 714 936 707 979 q 692 877 720 900 l 665 863 q 609 910 618 858 q 643 977 602 956 l 665 982 l 665 982 m 326 802 l 326 715 q 272 582 286 653 q 240 519 248 555 l 227 501 q 187 405 219 448 q 166 328 170 368 q 135 181 122 263 q 209 96 156 125 l 238 99 l 255 111 q 389 190 337 124 l 405 197 l 454 235 l 536 312 q 574 397 568 349 q 626 527 614 456 l 632 533 q 654 630 650 580 q 699 790 689 706 l 721 813 l 772 813 l 782 798 q 766 717 787 756 q 753 640 769 677 l 747 582 q 721 514 725 552 l 708 492 q 681 419 705 451 q 627 291 666 349 l 607 199 l 602 193 l 602 168 l 607 163 l 614 126 l 620 121 l 625 100 l 640 81 q 586 18 639 30 q 527 78 534 26 l 519 87 l 512 122 l 502 135 q 444 109 469 135 l 395 70 q 337 38 362 61 l 326 37 l 295 16 l 266 9 q 93 66 164 -9 q 41 158 57 106 q 58 269 36 217 l 60 297 q 92 386 87 338 q 119 455 115 417 q 145 516 140 482 q 176 581 169 544 l 193 604 l 200 642 q 232 709 223 672 l 238 714 q 284 813 227 788 l 312 813 l 326 802 l 326 802 z "},"":{"ha":654,"x_min":77,"x_max":598,"o":"m 469 950 l 464 920 l 443 898 q 370 849 401 882 l 356 844 l 336 827 l 323 823 q 288 850 291 815 q 340 912 293 896 l 355 927 l 374 935 l 389 951 l 426 970 l 445 970 l 469 950 l 469 950 m 563 813 q 599 797 589 819 l 589 769 q 496 656 533 720 l 471 629 l 456 598 q 418 537 429 573 q 371 471 386 509 l 329 428 l 323 413 l 306 394 l 301 376 l 263 325 q 239 269 258 294 l 232 228 q 210 178 213 206 l 193 153 q 170 66 192 106 l 164 39 l 136 9 l 112 -1 l 88 8 l 78 24 l 80 66 q 109 162 103 111 q 176 384 171 264 q 169 474 203 429 q 145 549 166 515 l 141 597 l 125 628 l 96 722 l 97 752 l 110 767 l 135 767 l 160 754 l 168 739 l 179 729 q 209 656 187 690 l 215 619 l 220 614 l 228 584 l 232 579 l 238 539 l 261 496 l 272 486 l 293 496 q 338 554 309 530 q 368 598 349 579 l 377 619 l 391 632 q 416 669 398 654 q 463 739 428 712 q 520 802 481 778 q 563 813 540 814 l 563 813 z "},"":{"ha":734,"x_min":36,"x_max":668,"o":"m 493 788 q 458 664 502 719 l 428 554 l 446 545 q 647 452 574 549 l 668 380 q 647 203 678 288 q 467 40 584 91 l 397 20 l 392 15 q 242 -5 311 29 q 183 -140 189 -61 q 167 -203 162 -165 q 136 -279 142 -238 l 124 -299 l 94 -318 l 62 -314 l 37 -286 q 73 -167 30 -220 q 134 16 79 -65 l 145 63 q 188 177 154 126 q 220 266 191 227 q 249 348 225 311 q 279 446 249 403 q 322 539 290 498 q 340 596 323 570 l 347 638 q 364 701 369 663 q 401 790 390 743 l 438 815 l 467 813 l 493 788 l 493 788 m 415 439 q 350 396 368 440 q 321 314 343 353 l 313 260 l 289 222 q 271 148 292 181 l 281 133 l 302 123 l 345 123 l 350 129 q 532 215 460 129 q 568 307 567 254 l 568 352 q 533 418 571 398 q 415 439 477 444 l 415 439 z "},"":{"ha":764,"x_min":36,"x_max":701,"o":"m 494 813 q 663 741 601 826 q 702 673 691 711 q 662 506 714 582 q 620 442 631 480 q 662 364 633 399 l 663 351 q 682 211 700 287 q 577 75 657 119 l 557 51 q 490 17 518 45 l 458 13 l 448 5 q 304 21 373 -7 q 270 85 256 38 l 289 132 q 367 113 330 145 q 463 125 418 95 q 554 240 529 166 q 526 337 572 300 l 483 352 q 289 351 385 367 q 237 230 240 300 l 216 192 q 195 109 218 146 l 177 25 l 172 18 l 159 -57 l 129 -119 l 116 -128 q 46 -106 73 -135 l 36 -77 l 42 -34 l 70 18 l 72 34 q 109 123 100 75 l 117 136 q 145 240 117 192 q 177 338 148 294 l 193 410 l 207 432 q 237 548 204 496 l 252 611 l 267 630 l 275 673 l 289 712 l 297 721 l 312 777 l 350 804 l 494 813 l 494 813 m 463 693 q 365 655 397 708 q 343 595 362 622 q 319 510 340 550 l 321 486 l 352 466 l 461 476 q 570 550 530 491 l 602 615 l 597 651 l 568 686 q 468 697 520 705 l 463 693 l 463 693 z "},"":{"ha":558,"x_min":33,"x_max":569,"o":"m 413 796 q 511 730 479 801 l 522 711 l 533 705 l 547 682 l 558 675 l 569 645 l 568 622 l 562 609 l 533 599 l 503 607 q 425 692 452 639 q 380 747 394 713 l 385 779 l 413 796 l 413 796 m 411 464 q 491 431 460 466 l 504 402 l 501 335 l 496 331 q 469 235 495 279 l 460 166 l 455 160 l 455 126 l 480 73 l 471 40 q 384 25 431 -7 q 286 61 349 83 q 174 2 236 21 q 54 73 90 -4 q 33 146 32 107 l 34 171 l 59 224 q 193 316 104 306 q 335 254 276 317 l 364 248 l 376 259 q 397 344 394 299 q 356 360 381 363 l 351 355 l 312 355 q 274 401 274 368 l 281 421 l 312 443 l 334 446 q 411 464 369 468 l 411 464 m 143 156 l 149 124 l 171 113 l 204 120 l 240 150 l 247 173 l 247 179 l 225 197 l 178 199 l 168 193 l 143 156 l 143 156 z "},"":{"ha":561,"x_min":30,"x_max":558,"o":"m 559 700 l 553 664 q 486 616 527 630 l 399 552 l 383 547 q 341 581 343 540 l 348 612 q 445 682 388 659 q 507 724 469 713 l 529 724 l 559 700 l 559 700 m 409 464 q 493 425 462 464 l 500 401 q 460 207 505 299 q 478 73 437 135 l 470 39 q 377 27 426 -9 q 327 66 362 62 l 280 59 q 172 2 232 20 q 51 73 87 -5 l 31 123 l 30 146 l 31 171 q 136 300 58 259 q 279 294 209 334 l 332 254 l 351 247 l 366 250 l 382 277 l 395 343 q 348 355 377 366 l 303 358 l 275 384 l 273 406 l 278 421 l 306 440 l 331 444 q 409 464 364 470 l 409 464 m 140 156 l 140 138 l 146 123 l 168 111 q 239 152 211 118 l 244 173 l 240 183 l 222 197 l 175 199 l 161 188 l 140 156 l 140 156 z "},"":{"ha":552,"x_min":33,"x_max":541,"o":"m 428 696 l 446 685 q 531 596 477 630 l 541 578 q 508 527 546 539 q 423 576 453 522 q 321 587 378 617 q 226 550 281 546 l 206 576 q 242 634 203 617 q 299 663 275 640 l 316 667 q 383 711 344 697 l 418 710 l 428 696 l 428 696 m 410 467 q 495 428 463 469 l 503 404 l 501 338 l 496 332 q 469 237 494 281 l 460 167 l 455 162 l 455 128 l 480 76 l 472 42 q 383 27 431 -5 q 285 63 348 86 q 174 5 235 23 q 54 76 90 -1 l 34 126 l 33 149 l 34 174 q 139 303 60 262 q 281 297 212 337 l 335 256 l 349 255 l 353 250 l 366 252 l 376 261 l 387 291 l 397 339 l 394 351 l 367 362 l 311 358 q 275 409 270 372 q 334 447 286 449 l 340 453 l 377 461 l 382 466 l 410 467 l 410 467 m 143 159 l 143 141 l 149 126 l 170 114 q 247 176 230 120 l 247 181 l 224 199 l 177 202 l 164 191 l 143 159 l 143 159 z "},"":{"ha":561,"x_min":36,"x_max":556,"o":"m 556 680 q 531 597 564 632 l 507 582 l 487 579 q 438 562 465 564 l 402 567 l 396 573 q 328 603 358 580 l 295 602 l 289 595 l 241 579 l 220 562 l 187 562 l 166 581 l 161 592 q 202 657 164 635 q 339 692 263 703 l 378 685 q 469 667 420 650 l 484 683 l 513 696 l 547 690 l 556 680 l 556 680 m 415 462 q 499 422 467 463 l 508 398 l 505 332 l 500 327 q 473 231 499 275 l 465 162 l 459 157 l 459 122 l 484 70 l 477 37 q 391 19 438 -8 q 290 58 355 80 q 178 0 239 19 q 57 70 94 -6 l 37 121 l 36 143 l 37 168 q 142 298 64 256 q 286 291 216 332 l 344 249 l 370 246 l 380 256 q 401 340 398 296 l 396 348 l 372 356 l 316 353 q 277 397 278 365 q 338 442 288 443 l 344 448 l 381 455 l 387 460 l 415 462 l 415 462 m 148 153 l 152 121 l 175 109 l 207 117 l 243 146 l 250 171 l 247 180 l 229 194 l 181 197 l 167 185 l 148 153 l 148 153 z "},"":{"ha":534,"x_min":33,"x_max":529,"o":"m 215 739 q 276 716 251 741 l 283 691 l 273 636 l 247 614 l 224 609 q 164 660 177 610 l 164 686 l 183 727 l 215 739 l 215 739 m 480 706 q 530 659 523 703 q 496 591 536 614 l 480 584 q 423 633 432 579 q 458 701 416 679 l 480 706 l 480 706 m 399 451 q 464 407 443 447 l 480 365 q 443 198 481 277 l 435 157 l 428 145 l 431 120 q 435 22 476 74 q 312 42 373 -10 l 215 1 l 180 1 l 103 26 l 56 79 l 48 103 l 39 113 l 33 137 q 100 259 35 216 l 127 272 l 159 274 l 164 278 l 208 278 l 213 274 q 319 231 270 263 l 346 227 q 382 318 382 265 l 372 343 l 318 365 q 219 409 244 345 q 260 456 220 447 l 310 462 l 395 456 l 399 451 l 399 451 m 165 119 l 179 111 l 214 115 l 237 135 l 232 149 l 179 164 l 149 145 l 165 119 l 165 119 z "},"":{"ha":561,"x_min":36,"x_max":507,"o":"m 390 641 q 457 605 436 650 l 455 548 l 445 536 l 424 525 l 389 526 l 367 548 l 359 569 q 390 641 356 616 l 390 641 m 380 591 l 383 570 l 400 557 l 415 557 l 430 568 l 433 576 l 430 600 l 415 610 l 400 610 l 391 606 l 380 591 l 380 591 m 415 461 q 499 422 468 461 l 507 398 q 466 204 511 296 q 484 70 444 132 l 476 37 q 391 19 437 -8 q 284 55 352 83 q 178 -1 237 17 q 57 70 94 -6 l 37 121 l 36 143 q 76 238 36 197 l 114 276 l 118 284 l 159 303 l 181 305 l 196 313 q 301 277 259 319 l 322 267 l 338 250 l 370 246 l 388 274 l 401 340 l 391 350 l 372 356 l 312 354 q 277 397 278 366 q 337 441 287 442 q 415 461 373 462 l 415 461 m 146 153 l 146 136 l 152 121 l 173 108 q 245 149 217 115 l 250 170 l 247 180 l 228 194 l 181 196 l 167 185 l 146 153 l 146 153 z "},"":{"ha":779,"x_min":27,"x_max":740,"o":"m 406 459 q 486 425 453 461 l 497 400 l 504 400 q 636 440 557 458 q 715 397 683 432 l 740 322 q 703 211 757 253 q 501 195 606 178 l 480 186 l 467 163 l 480 125 l 510 100 l 569 98 l 620 118 l 656 118 l 666 111 l 676 75 l 661 39 q 571 -2 621 7 l 514 4 l 460 29 q 375 23 418 -12 l 359 44 l 332 62 l 281 56 l 229 23 l 169 -2 q 50 64 88 -8 l 28 119 l 27 142 l 28 166 q 133 296 55 255 q 186 311 162 297 q 292 275 249 317 l 313 266 l 329 248 l 361 244 l 371 254 q 392 339 389 294 l 385 347 l 362 355 l 307 351 q 268 396 269 363 q 328 440 277 440 q 406 459 363 461 l 406 459 m 557 321 l 556 299 l 567 290 l 589 288 q 649 320 637 277 l 634 336 l 621 340 l 571 334 l 557 321 l 557 321 m 138 152 l 143 119 l 165 107 q 235 145 207 114 l 241 169 l 237 179 l 220 191 l 172 195 l 158 184 l 138 152 l 138 152 z "},"":{"ha":537,"x_min":42,"x_max":500,"o":"m 369 455 q 489 404 441 460 l 500 371 l 498 343 l 474 325 q 410 360 433 324 q 307 359 360 381 q 267 333 291 341 l 214 285 l 156 191 l 148 150 q 142 85 122 118 q 226 68 179 50 l 249 82 q 306 97 279 82 l 338 96 q 341 43 362 72 l 307 15 l 276 5 l 255 -11 l 225 -20 l 212 -31 q 258 -112 209 -81 q 235 -234 278 -178 q 141 -281 198 -279 q 45 -256 81 -299 l 42 -232 q 85 -196 47 -199 l 136 -191 l 158 -173 l 157 -162 l 146 -145 l 89 -142 l 54 -124 q 79 -38 30 -73 q 73 24 109 -5 l 54 42 q 73 216 20 133 l 79 242 q 109 297 101 266 l 153 343 l 155 349 q 369 455 236 455 l 369 455 z "},"":{"ha":472,"x_min":47,"x_max":414,"o":"m 173 731 q 245 665 231 732 l 263 648 l 272 631 l 291 616 l 312 584 l 306 556 l 284 541 l 250 543 q 154 685 169 593 l 158 719 l 173 731 l 173 731 m 253 444 q 396 389 346 460 l 414 326 q 377 215 431 256 q 177 199 281 182 l 158 192 l 146 174 l 142 160 l 153 133 l 184 103 l 243 102 l 294 122 l 330 122 q 335 41 369 88 q 245 2 295 11 l 188 8 q 55 114 89 26 l 48 146 q 96 316 33 244 q 175 402 116 379 l 216 433 l 253 444 l 253 444 m 231 325 l 230 302 l 241 294 l 264 292 l 306 295 l 323 322 l 308 340 l 295 343 l 249 338 l 231 325 l 231 325 z "},"":{"ha":457,"x_min":45,"x_max":470,"o":"m 440 701 l 470 676 l 464 640 q 397 593 438 606 l 310 528 l 294 523 l 267 526 l 252 557 l 253 572 q 356 659 288 634 q 418 701 380 689 l 440 701 l 440 701 m 268 425 q 391 334 356 418 l 398 304 q 353 203 401 239 l 337 195 q 170 174 255 178 l 149 156 q 185 108 148 116 q 298 123 244 96 l 334 117 q 334 57 359 87 q 251 4 301 15 q 109 41 171 -8 q 45 149 52 80 l 45 195 l 56 245 l 62 252 q 122 337 73 308 q 268 425 172 422 l 268 425 m 226 325 l 190 291 l 196 275 l 215 270 l 273 273 l 306 293 q 277 336 315 329 l 263 336 l 226 325 l 226 325 z "},"":{"ha":472,"x_min":51,"x_max":446,"o":"m 325 720 q 387 664 377 720 q 447 576 423 624 l 440 546 l 416 529 l 387 533 l 339 582 l 309 589 q 205 537 251 577 q 156 570 169 533 l 162 601 l 183 616 l 191 629 l 226 648 l 233 657 q 301 712 273 677 l 325 720 l 325 720 m 257 444 q 399 390 347 459 l 418 325 q 381 214 435 255 q 272 204 329 193 q 166 195 221 188 l 145 166 l 161 123 l 187 102 l 247 101 l 298 121 l 334 121 q 337 39 373 86 q 248 0 298 9 l 191 6 q 58 113 92 25 l 51 145 q 99 315 36 243 q 179 401 119 377 l 220 433 l 257 444 l 257 444 m 299 342 q 234 324 257 352 l 233 302 l 244 294 l 268 292 l 311 297 l 326 323 l 311 339 l 299 342 l 299 342 z "},"":{"ha":472,"x_min":45,"x_max":495,"o":"m 180 725 q 241 702 217 728 l 248 676 q 220 604 254 631 l 190 595 q 130 646 143 595 q 154 716 125 687 l 180 725 l 180 725 m 446 691 q 495 644 489 688 q 461 576 502 601 l 446 570 q 388 618 397 565 q 423 687 381 665 l 446 691 l 446 691 m 251 444 q 393 389 343 460 l 408 331 l 413 326 q 375 214 429 255 l 348 209 l 342 204 q 155 192 244 224 l 143 173 l 139 159 l 150 132 l 181 102 l 241 101 l 292 121 l 329 121 q 331 39 367 86 q 242 1 292 9 l 170 12 q 52 114 82 33 l 45 146 q 93 316 30 244 q 173 401 113 378 l 218 436 l 251 444 l 251 444 m 242 337 l 230 325 l 228 302 l 238 295 l 262 291 l 305 297 l 320 323 l 305 339 l 293 343 l 242 337 l 242 337 z "},"":{"ha":340,"x_min":57,"x_max":287,"o":"m 133 724 q 229 659 198 729 l 240 639 l 252 632 l 265 610 l 278 602 l 288 574 l 286 549 l 280 537 l 252 527 l 221 534 q 145 617 172 565 q 98 675 113 640 l 104 707 l 133 724 l 133 724 m 247 408 l 252 385 q 224 315 248 345 q 211 248 208 283 q 150 43 166 150 l 116 7 l 82 10 l 68 22 l 57 43 l 57 78 q 82 168 81 119 l 102 206 q 121 274 102 242 l 142 372 l 161 409 l 195 430 l 227 427 l 247 408 l 247 408 z "},"":{"ha":340,"x_min":51,"x_max":422,"o":"m 397 665 l 423 641 l 417 605 q 350 558 391 571 q 277 507 318 525 l 269 497 l 247 489 l 219 491 l 204 522 q 251 588 207 566 l 269 596 l 287 614 l 310 624 l 330 645 l 371 666 l 397 665 l 397 665 m 189 425 q 239 404 220 431 l 245 379 q 218 310 242 340 q 204 243 202 278 q 180 183 199 211 q 144 38 155 113 l 111 2 l 76 5 l 62 17 l 51 38 l 51 73 q 71 148 72 107 q 98 225 95 182 q 132 352 126 286 q 189 425 139 407 l 189 425 z "},"":{"ha":364,"x_min":63,"x_max":404,"o":"m 297 671 l 310 665 q 394 575 340 609 l 404 558 l 399 525 l 372 506 l 332 511 l 286 555 q 189 568 243 595 q 89 530 146 527 l 69 555 q 111 616 66 601 l 131 621 l 163 642 l 179 646 q 246 691 208 676 l 281 689 l 297 671 l 297 671 m 253 407 l 257 383 q 230 314 254 343 q 217 247 214 282 q 156 42 171 149 l 122 6 l 87 8 l 74 21 l 63 42 l 63 77 q 83 151 84 111 l 107 204 q 127 273 107 241 l 143 356 l 167 408 l 200 429 l 235 424 l 253 407 l 253 407 z "},"":{"ha":382,"x_min":51,"x_max":533,"o":"m 218 712 q 280 689 255 715 l 287 664 q 252 587 293 614 l 228 582 q 169 633 182 583 l 169 659 l 187 700 l 218 712 l 218 712 m 484 679 q 533 632 527 676 q 500 564 540 588 l 484 557 q 427 606 435 553 q 461 674 419 652 l 484 679 l 484 679 m 263 395 l 264 375 l 269 369 l 257 320 l 249 312 q 230 219 234 267 l 217 205 l 210 186 l 189 165 l 169 118 l 161 111 q 115 4 159 48 l 99 -1 q 51 33 62 -1 q 98 173 48 112 q 180 358 123 272 l 187 389 l 218 422 l 252 412 l 263 395 l 263 395 z "},"":{"ha":573,"x_min":39,"x_max":525,"o":"m 273 654 q 316 597 287 619 l 334 603 l 376 639 l 394 642 l 405 633 l 407 607 l 367 563 l 359 550 l 359 537 l 418 447 l 463 433 l 493 404 q 525 259 525 334 q 478 136 529 186 l 472 121 q 250 4 384 18 q 66 82 138 -5 l 46 119 l 39 163 l 41 261 q 66 314 61 283 l 84 330 l 91 348 l 112 364 l 117 374 l 143 389 q 224 442 173 429 l 265 449 l 248 458 q 270 520 236 495 l 276 552 l 234 621 l 234 648 l 246 659 l 273 654 l 273 654 m 295 481 l 284 465 l 266 454 l 266 451 l 316 462 l 350 463 l 328 495 l 316 499 l 295 481 l 295 481 m 293 372 q 152 258 196 345 l 142 204 l 137 199 q 168 118 127 147 l 213 96 l 249 96 l 260 102 q 385 180 342 108 q 415 235 393 211 l 421 281 l 414 320 q 293 372 370 387 l 293 372 z "},"":{"ha":684,"x_min":36,"x_max":648,"o":"m 644 716 q 612 620 653 661 q 514 586 567 593 l 474 591 l 467 598 q 392 631 424 605 l 354 630 l 348 623 l 295 605 l 272 586 l 234 586 l 212 606 l 207 619 l 219 661 q 402 730 294 742 l 446 722 q 548 703 493 683 l 564 720 l 596 734 l 633 727 l 644 716 l 644 716 m 182 440 q 253 410 229 449 l 253 371 l 231 340 l 219 297 l 220 290 l 234 284 l 286 293 l 291 298 l 362 314 q 435 345 395 338 l 452 360 l 484 367 q 557 406 515 396 l 574 419 q 644 385 620 424 l 648 357 q 600 239 648 290 l 556 135 l 556 77 q 566 -12 597 33 l 544 -24 q 457 21 482 -30 l 451 51 l 448 116 q 478 221 478 162 l 485 228 l 484 239 l 467 246 l 411 238 l 378 216 q 287 185 329 212 l 241 176 q 161 107 168 170 q 125 22 134 69 q 56 7 95 -12 l 45 17 l 36 43 q 72 136 34 97 q 101 247 73 195 q 131 338 104 296 q 182 440 133 403 l 182 440 z "},"":{"ha":579,"x_min":47,"x_max":533,"o":"m 237 733 q 336 665 305 739 l 345 648 l 356 642 l 370 620 l 384 610 l 393 584 l 391 559 l 385 547 l 356 538 l 325 544 q 249 629 275 576 q 203 684 217 650 l 209 716 l 237 733 l 237 733 m 367 460 q 446 440 405 441 q 503 399 485 433 q 524 335 506 364 l 533 259 q 480 120 534 181 q 258 4 393 18 q 75 82 146 -5 l 55 119 l 48 162 l 50 260 l 63 276 l 75 314 l 94 331 l 100 346 l 121 362 l 126 372 l 152 387 q 232 440 182 427 l 324 460 l 367 460 l 367 460 m 302 371 q 160 258 207 343 l 151 203 l 146 197 q 182 114 136 143 l 221 96 l 257 96 q 308 108 280 109 q 401 201 380 132 l 423 234 l 429 279 l 422 319 q 302 371 379 386 l 302 371 z "},"":{"ha":582,"x_min":39,"x_max":524,"o":"m 441 730 l 471 706 l 464 670 q 396 622 437 635 q 324 572 365 589 l 313 559 l 294 553 l 266 557 l 252 587 q 314 660 261 642 l 351 689 l 357 689 q 418 730 381 719 l 441 730 l 441 730 m 358 457 q 437 437 396 438 q 494 396 476 430 q 515 332 497 361 l 525 256 q 471 117 526 178 q 250 1 384 15 q 66 79 137 -8 l 46 116 l 39 159 l 41 257 l 54 273 l 66 311 l 85 328 l 91 343 l 112 359 l 117 369 l 143 384 q 223 437 173 424 l 315 457 l 358 457 l 358 457 m 293 368 q 152 255 198 340 l 142 200 l 137 194 q 173 111 127 140 l 212 93 l 248 93 q 299 105 272 106 q 392 198 371 129 l 414 231 l 420 276 l 413 316 q 293 368 370 382 l 293 368 z "},"":{"ha":576,"x_min":39,"x_max":550,"o":"m 428 804 l 444 786 l 456 779 q 541 690 487 724 l 551 673 q 518 621 556 633 q 438 667 466 615 q 331 682 391 712 q 236 644 292 641 l 216 670 q 258 731 214 715 q 310 757 288 737 l 327 761 q 393 805 354 791 l 428 804 l 428 804 m 359 456 q 456 431 405 436 q 504 353 503 407 q 526 255 529 308 q 477 132 528 182 l 471 117 q 250 0 384 14 q 74 67 146 -7 l 67 84 q 39 159 37 113 l 41 257 q 67 310 62 279 l 85 327 l 91 342 l 112 358 l 117 368 l 143 383 l 160 404 q 315 456 229 453 l 359 456 l 359 456 m 293 367 q 152 254 197 341 l 142 200 l 137 195 q 166 116 127 144 l 213 92 l 248 92 q 299 104 272 105 q 392 197 372 130 l 414 231 l 420 275 l 413 315 q 293 367 371 381 l 293 367 z "},"":{"ha":573,"x_min":36,"x_max":553,"o":"m 545 740 l 554 730 q 529 647 562 683 l 504 632 l 484 630 q 436 612 463 614 l 400 617 l 394 623 q 326 653 355 629 l 292 652 l 286 646 l 240 631 l 218 612 l 183 612 l 157 642 q 216 714 164 699 l 247 735 q 375 735 311 752 q 467 718 417 700 l 482 733 l 510 746 l 545 740 l 545 740 m 357 457 q 455 431 404 436 l 488 405 q 524 255 524 334 q 498 166 532 202 l 492 148 l 474 128 l 474 122 l 420 66 q 369 35 391 56 q 248 0 311 8 q 72 66 145 -7 l 64 84 q 36 159 34 113 l 38 257 q 64 310 59 279 l 82 327 l 88 342 l 109 358 l 114 368 l 140 383 l 155 403 q 202 430 182 410 q 307 452 253 450 l 313 457 l 357 457 l 357 457 m 240 348 q 199 319 224 328 q 135 195 141 271 q 170 112 124 140 l 209 92 l 247 92 l 258 98 q 384 177 341 104 q 413 231 392 208 l 419 245 l 416 270 l 420 275 q 378 351 422 323 l 346 367 l 291 367 l 240 348 l 240 348 z "},"":{"ha":549,"x_min":39,"x_max":499,"o":"m 177 709 q 238 685 214 711 l 244 661 q 216 587 251 615 l 186 578 q 127 629 140 579 l 127 655 l 145 696 l 177 709 l 177 709 m 441 675 q 492 628 483 676 q 461 563 498 587 l 441 554 q 385 602 393 549 q 420 670 377 649 l 441 675 l 441 675 m 329 458 l 420 420 l 448 397 q 476 353 456 371 q 500 261 496 309 q 391 62 479 145 q 253 9 331 6 l 227 3 q 89 61 146 2 l 74 81 q 48 136 68 112 l 39 198 q 67 314 31 263 l 76 340 q 107 380 98 355 l 168 434 l 194 440 l 201 447 l 234 458 l 329 458 l 329 458 m 240 352 q 134 227 152 324 q 178 120 129 161 l 209 112 l 267 115 q 393 234 358 147 l 401 272 l 391 311 q 240 352 324 363 l 240 352 z "},"":{"ha":678,"x_min":54,"x_max":632,"o":"m 325 614 q 387 589 363 622 l 392 578 l 389 521 l 379 508 l 359 497 l 323 498 l 304 518 l 294 542 q 325 614 291 587 l 325 614 m 91 427 q 173 417 133 429 q 357 419 264 434 q 505 419 430 429 l 583 426 l 621 408 l 632 381 q 580 328 629 335 q 496 325 538 336 q 356 325 426 338 l 323 331 q 149 324 236 336 l 90 330 l 57 357 l 54 371 q 91 427 48 413 l 91 427 m 387 243 l 392 232 l 389 175 l 379 163 l 359 153 l 320 157 l 304 173 l 294 198 l 299 232 l 325 269 l 362 266 l 387 243 l 387 243 z "},"":{"ha":579,"x_min":48,"x_max":533,"o":"m 422 602 q 461 575 451 603 l 459 535 q 425 440 430 491 q 517 339 513 434 l 524 332 l 533 256 l 525 194 q 380 36 481 87 q 257 1 322 6 l 245 -19 q 209 -90 240 -61 l 193 -97 l 165 -96 l 148 -74 l 148 -39 l 168 7 l 167 15 q 55 116 86 39 l 48 159 l 50 257 l 63 273 l 75 311 l 94 328 l 100 343 l 121 359 l 126 369 l 152 384 q 284 446 201 445 l 289 450 l 342 458 q 360 520 360 486 q 386 577 379 546 l 397 589 l 422 602 l 422 602 m 291 364 q 160 255 204 335 l 151 200 l 146 194 q 182 111 136 140 l 208 100 l 215 105 q 237 167 217 139 l 252 233 l 263 247 q 292 324 267 290 l 299 356 l 298 364 l 291 364 l 291 364 m 386 348 q 361 286 381 313 q 334 214 356 247 q 299 107 324 158 l 302 105 q 395 178 363 120 q 423 231 401 208 l 429 276 l 422 315 l 392 347 l 386 348 l 386 348 z "},"":{"ha":651,"x_min":26,"x_max":623,"o":"m 397 850 q 480 771 465 851 l 496 759 l 511 733 l 532 716 l 543 693 l 553 685 l 545 654 l 522 636 q 426 686 462 628 q 376 799 384 735 l 381 836 l 397 850 l 397 850 m 181 439 q 235 413 220 447 q 204 317 247 355 q 177 256 200 281 l 158 192 l 136 161 l 145 128 l 156 120 q 239 149 204 113 l 265 159 l 292 179 l 311 186 l 322 199 q 414 240 373 210 l 426 242 q 508 353 497 276 l 545 429 q 611 429 578 449 l 624 410 l 622 367 q 587 282 596 328 q 561 189 550 245 l 600 138 q 557 57 611 76 q 461 120 488 56 l 426 131 q 350 86 381 120 q 267 32 302 69 l 183 4 q 41 73 91 -8 l 26 121 q 75 249 27 192 q 138 391 89 329 l 149 417 l 181 439 l 181 439 z "},"":{"ha":615,"x_min":28,"x_max":577,"o":"m 574 723 l 568 685 l 540 656 q 447 594 487 636 l 424 585 l 403 565 l 386 560 l 356 563 l 341 595 l 342 611 l 362 644 l 415 681 l 423 691 l 452 705 q 518 749 478 737 l 543 749 l 574 723 l 574 723 m 200 448 q 229 383 237 426 q 199 307 203 350 l 177 272 l 171 237 l 148 205 l 140 148 l 157 132 q 238 160 204 128 q 347 213 298 174 q 461 284 432 205 l 480 349 l 488 359 l 497 407 l 513 426 l 549 427 l 571 410 l 577 394 l 574 354 q 549 269 554 314 q 497 176 534 216 l 494 144 q 488 35 538 81 l 459 23 l 423 23 l 378 65 l 368 96 l 341 99 q 246 43 290 77 q 160 2 198 33 l 127 4 l 66 29 l 55 46 l 38 58 l 29 102 q 80 284 25 201 l 99 334 l 110 345 l 131 410 l 161 449 l 200 448 l 200 448 z "},"":{"ha":612,"x_min":28,"x_max":581,"o":"m 469 768 q 517 730 488 743 l 522 720 l 577 669 l 581 650 l 580 629 l 569 610 l 532 604 q 422 665 485 650 l 390 650 q 289 593 352 601 q 246 612 262 589 l 240 631 l 260 673 q 443 780 334 757 l 469 768 l 469 768 m 198 445 q 227 379 237 422 q 190 289 200 338 l 182 281 l 169 234 q 139 146 133 200 l 156 130 q 243 160 206 126 q 338 208 296 171 q 425 229 384 210 q 477 345 468 279 l 484 351 l 493 400 l 506 418 l 546 422 l 569 405 l 575 389 l 572 350 l 567 345 l 544 260 l 536 253 q 494 173 527 206 l 492 142 l 513 82 q 456 22 505 33 l 420 22 l 376 63 l 367 94 l 339 97 q 181 17 267 43 l 159 1 l 126 2 l 65 27 l 55 45 l 38 56 l 28 100 q 87 298 26 208 l 98 330 l 109 342 q 155 443 121 398 l 161 446 l 198 445 l 198 445 z "},"":{"ha":618,"x_min":35,"x_max":585,"o":"m 217 767 q 288 740 259 769 l 296 711 l 285 648 l 252 620 l 227 616 l 210 617 l 201 626 l 187 629 l 158 675 l 158 705 l 165 712 q 217 767 169 761 l 217 767 m 525 728 q 583 674 574 725 q 556 605 590 632 l 525 587 q 459 644 469 581 q 499 723 450 697 l 525 728 l 525 728 m 526 438 q 584 395 570 435 l 585 370 l 578 323 l 554 278 l 516 177 l 517 142 l 556 84 q 529 2 572 31 l 505 -1 l 465 11 l 400 87 l 381 89 l 374 94 l 339 83 l 331 73 l 292 55 l 281 42 l 206 9 l 144 9 q 35 136 46 39 q 78 337 32 240 q 111 404 104 365 l 138 426 l 183 428 l 206 395 l 198 333 q 167 242 172 291 q 173 142 121 179 q 283 192 237 142 l 311 202 q 402 267 351 243 l 446 313 q 475 363 454 342 l 486 406 l 526 438 l 526 438 z "},"":{"ha":654,"x_min":30,"x_max":614,"o":"m 585 740 l 578 704 l 552 678 q 466 620 503 659 l 447 612 l 425 592 l 409 588 q 367 621 370 579 q 430 695 374 676 l 446 711 l 471 723 l 488 741 l 533 765 l 555 765 l 585 740 l 585 740 m 614 444 l 614 410 q 563 302 573 363 l 555 296 q 528 244 550 267 q 494 173 522 203 l 483 139 l 467 118 q 434 49 460 79 q 414 4 430 24 l 399 -53 q 343 -162 355 -98 q 307 -205 331 -189 q 228 -278 282 -255 l 185 -288 q 73 -260 120 -301 q 30 -215 37 -251 l 34 -183 l 52 -172 l 84 -172 q 229 -161 162 -223 l 255 -131 l 316 -4 l 316 40 l 305 54 q 275 133 300 98 l 268 166 q 242 231 246 195 l 222 260 q 195 353 215 309 q 203 441 167 407 q 233 444 218 445 l 243 436 q 299 293 289 372 q 325 256 306 271 q 367 168 332 204 q 429 222 415 164 q 486 331 442 283 l 495 366 q 524 421 518 389 l 544 449 l 565 461 l 587 461 l 614 444 l 614 444 z "},"":{"ha":627,"x_min":33,"x_max":597,"o":"m 377 662 q 392 603 402 637 q 360 515 366 563 q 331 417 336 469 q 411 435 369 435 l 417 440 l 474 440 l 479 435 l 492 434 q 598 263 597 377 q 514 82 607 148 q 442 30 491 37 l 410 11 l 342 2 l 338 -2 l 298 -2 l 293 2 l 268 4 l 232 22 l 198 17 q 162 -88 164 -29 l 149 -115 q 130 -173 154 -150 l 120 -199 l 84 -232 l 50 -225 l 33 -197 l 35 -167 q 74 -40 68 -107 q 101 28 97 -9 q 128 113 126 67 q 162 211 152 159 l 175 228 q 214 322 186 278 q 224 399 228 359 l 236 416 q 276 534 237 482 q 342 668 274 620 l 377 662 l 377 662 m 405 332 q 271 247 314 324 l 245 159 l 245 129 q 299 94 265 101 l 323 94 l 353 105 l 390 106 l 396 113 l 416 118 l 426 133 q 497 235 487 167 q 448 331 500 301 l 405 332 l 405 332 z "},"":{"ha":654,"x_min":27,"x_max":611,"o":"m 293 721 q 354 697 329 723 l 360 672 q 325 595 368 622 l 302 590 q 242 641 255 591 l 242 667 l 261 708 l 293 721 l 293 721 m 558 687 q 608 640 600 684 q 558 566 612 585 l 537 566 l 513 581 l 501 614 q 536 682 493 660 l 558 687 l 558 687 m 611 443 l 611 410 q 559 302 570 362 l 549 291 l 535 254 l 525 244 q 491 171 518 202 q 464 116 486 139 q 431 47 456 77 q 411 2 427 22 l 396 -55 q 340 -164 352 -100 q 304 -207 328 -191 q 225 -280 279 -257 l 182 -290 q 70 -262 117 -303 q 27 -217 34 -253 l 31 -185 l 49 -174 l 81 -174 q 226 -163 159 -222 l 252 -133 q 293 -54 266 -90 l 299 -28 l 313 -6 l 313 39 l 300 55 q 272 131 297 98 q 246 198 270 169 l 239 230 l 219 260 q 192 353 212 308 l 183 412 q 200 440 188 429 q 230 443 215 444 l 240 436 q 296 292 284 371 l 321 254 q 360 168 329 205 q 422 214 408 159 q 483 330 440 278 l 494 368 l 504 377 l 517 415 l 545 451 l 562 459 l 584 459 l 611 443 l 611 443 z "},"":{"ha":173,"x_min":17,"x_max":150,"o":"m 150 297 l 150 298 q 85 23 123 226 l 140 47 l 145 37 q 35 -11 60 -11 q 17 8 17 -11 q 52 150 17 36 q 93 283 72 217 q 150 297 131 292 z "},"":{"ha":1203,"x_min":44,"x_max":1156,"o":"m 664 769 l 729 697 l 747 647 l 752 650 l 758 668 l 769 683 q 812 747 771 731 l 847 747 l 869 745 l 875 741 q 949 741 912 736 l 953 745 l 995 745 l 1006 741 l 1011 745 l 1110 751 q 1156 713 1152 752 l 1150 686 l 1135 672 q 1063 660 1097 673 q 1011 654 1036 665 q 847 642 920 688 q 818 577 826 613 q 792 515 792 552 l 782 496 l 786 466 l 797 459 l 847 457 l 853 452 l 895 452 l 901 457 q 987 457 943 463 l 1008 436 l 1015 410 q 939 370 996 362 l 933 365 l 906 365 l 902 370 q 820 372 861 373 l 816 375 q 736 353 769 384 q 693 230 702 296 l 678 201 q 665 147 679 172 l 666 129 l 674 117 q 808 112 740 92 q 933 112 869 95 q 961 59 968 96 q 916 27 950 26 q 743 15 827 37 l 593 13 q 548 75 539 23 l 552 80 l 553 102 l 531 81 q 453 40 489 67 q 364 9 412 15 l 333 -3 q 280 4 307 7 q 119 103 182 27 l 101 116 q 62 208 69 157 l 52 227 l 44 287 q 126 561 36 435 q 153 607 145 580 q 199 669 181 634 q 252 721 230 690 q 305 751 275 742 l 326 769 q 400 797 366 775 q 516 815 456 815 l 573 813 l 664 769 l 664 769 m 429 717 q 374 691 405 697 q 311 648 337 677 l 302 646 q 218 543 246 605 l 199 520 l 194 503 q 163 438 166 477 l 139 386 q 131 312 141 348 q 153 193 126 250 q 228 117 183 148 q 318 89 271 94 l 357 91 q 433 115 393 110 q 504 157 465 143 l 533 181 q 585 242 552 217 q 610 286 592 268 q 642 342 618 318 q 666 448 664 393 l 677 475 l 677 548 l 673 553 l 665 608 l 660 612 q 635 677 666 653 l 628 691 q 496 726 572 741 l 429 717 l 429 717 z "},"":{"ha":854,"x_min":35,"x_max":808,"o":"m 229 457 q 363 438 305 479 q 457 367 430 426 l 512 412 l 552 437 l 581 440 l 585 445 q 745 432 668 473 q 809 348 800 407 q 772 229 825 275 l 739 216 q 605 200 671 220 l 553 200 q 506 173 517 203 q 537 116 502 134 q 604 96 568 98 q 694 122 645 128 l 715 105 q 664 17 723 43 q 583 0 626 -1 q 432 73 489 -3 l 417 100 q 276 12 362 31 q 222 5 248 15 q 73 79 130 6 q 44 139 64 112 l 36 199 q 64 313 27 263 l 73 339 q 103 380 94 355 l 163 432 l 189 438 l 196 446 l 229 457 l 229 457 m 598 347 l 584 329 l 570 320 l 573 313 l 590 310 l 677 312 l 690 317 l 698 340 l 690 350 l 630 357 l 598 347 l 598 347 m 215 347 l 158 297 l 130 228 l 131 196 l 139 184 q 173 122 140 143 l 203 115 l 261 117 q 385 231 349 147 l 395 272 l 384 311 q 234 351 318 363 l 215 347 l 215 347 z "},"":{"ha":711,"x_min":33,"x_max":666,"o":"m 464 995 l 499 971 l 520 971 l 525 975 l 560 982 q 647 1016 596 1020 l 666 992 l 665 969 l 644 946 q 581 912 608 937 l 570 912 q 503 867 541 883 l 472 868 l 457 886 l 444 893 q 369 972 418 944 l 358 990 l 360 1016 l 389 1037 l 424 1032 l 464 995 l 464 995 m 505 809 l 554 803 q 661 699 627 769 l 662 679 q 643 629 672 643 l 625 625 q 553 700 577 651 q 451 725 508 738 q 343 611 371 692 q 357 523 325 559 q 382 473 359 492 q 415 370 412 425 q 411 124 462 247 q 380 67 390 99 q 278 4 346 10 q 69 67 157 -13 q 43 111 62 93 l 33 140 l 33 149 l 44 174 l 66 183 l 81 183 l 110 162 q 205 90 141 104 q 301 110 257 76 q 354 236 349 163 l 351 295 l 337 377 q 313 428 317 399 q 279 498 286 458 l 269 512 l 261 556 l 257 562 l 256 600 q 272 661 272 628 q 313 720 283 697 l 323 738 q 428 807 366 790 l 465 809 l 469 814 l 499 814 l 505 809 l 505 809 z "},"":{"ha":493,"x_min":25,"x_max":506,"o":"m 301 630 q 397 619 344 588 q 487 654 434 657 l 506 630 l 505 606 l 484 582 q 418 548 446 573 l 408 546 q 339 501 378 517 l 305 503 l 291 520 l 278 528 q 202 608 251 578 l 190 627 l 193 654 l 221 675 l 258 670 l 301 630 l 301 630 m 389 434 l 442 386 l 450 370 l 450 348 l 434 329 q 362 356 391 322 l 334 367 l 275 366 l 268 359 q 231 323 238 355 l 235 297 q 296 227 256 255 q 335 116 346 179 q 230 7 305 38 l 212 5 l 195 5 q 120 25 160 22 q 25 137 46 58 q 47 182 19 171 l 76 182 q 119 131 103 162 l 158 111 l 200 104 l 232 118 l 240 137 l 232 164 l 168 226 l 141 270 l 138 347 q 257 457 175 424 l 272 462 l 326 462 l 389 434 l 389 434 z "},"":{"ha":690,"x_min":82,"x_max":606,"o":"m 240 951 q 293 929 272 954 l 297 911 q 273 849 302 872 l 248 842 q 197 885 209 842 l 197 907 l 202 912 q 240 951 204 947 l 240 951 m 462 923 q 505 884 497 924 q 475 827 509 847 l 462 821 q 414 862 422 818 q 445 919 408 902 l 462 923 l 462 923 m 569 819 q 606 804 595 825 l 596 775 q 506 665 542 728 q 459 598 472 639 l 454 595 q 408 525 439 554 l 391 495 l 382 489 l 376 474 l 334 432 l 328 416 l 311 397 l 306 380 l 266 326 q 244 272 262 296 l 236 231 q 215 181 218 209 l 198 155 q 174 68 196 109 l 169 41 l 140 11 l 116 1 l 92 9 l 82 26 l 84 68 q 113 164 107 113 q 180 388 175 268 q 173 478 208 433 q 149 553 171 519 l 145 602 l 130 633 l 100 728 l 101 758 l 114 773 l 139 773 l 165 760 l 174 743 l 185 732 q 214 662 192 694 l 220 624 l 225 619 l 233 589 l 236 584 l 243 544 l 268 497 l 277 491 l 304 508 q 341 556 315 537 q 383 624 369 587 l 397 637 q 424 679 406 661 l 454 732 q 493 779 480 749 q 569 819 523 819 l 569 819 z "},"":{"ha":439,"x_min":39,"x_max":373,"o":"m 262 786 l 280 775 q 363 688 308 719 l 373 671 q 341 620 379 631 l 301 625 l 256 668 q 159 681 213 708 q 58 642 116 640 l 39 668 q 77 728 36 711 q 132 754 108 732 l 145 756 q 216 802 175 788 l 251 801 l 262 786 l 262 786 z "},"":{"ha":0,"x_min":-2,"x_max":181,"o":"m 36 463 l 35 463 q 61 414 51 440 q 178 463 101 446 l 181 454 q 107 406 160 448 q 46 348 52 364 q -2 430 25 393 q 36 463 12 440 z "},"":{"ha":493,"x_min":42,"x_max":436,"o":"m 436 781 q 405 691 445 728 l 318 664 q 208 704 258 669 q 101 664 145 707 l 66 664 l 51 677 l 42 692 l 53 731 q 219 792 121 803 l 259 784 q 354 771 304 747 l 364 783 l 393 795 l 427 789 l 436 781 l 436 781 z "},"":{"ha":499,"x_min":-8,"x_max":479,"o":"m 479 0 l -8 0 l 250 557 l 479 0 m 44 40 l 378 40 l 221 418 l 44 40 z "},"":{"ha":626,"x_min":11,"x_max":578,"o":"m 249 0 l 11 0 l 11 131 l 22 131 q 76 82 31 82 l 204 82 l 202 104 q 26 323 26 156 q 108 496 26 431 q 294 557 184 557 q 480 496 405 557 q 563 324 563 431 q 387 104 563 158 l 385 82 l 513 82 q 567 131 558 82 l 578 131 l 578 0 l 340 0 l 353 123 q 468 326 468 172 q 428 471 468 417 q 294 531 382 531 q 121 325 121 531 q 236 123 121 172 l 249 0 z "},"":{"ha":821,"x_min":41,"x_max":787,"o":"m 723 467 q 785 421 770 466 l 787 393 l 779 342 l 753 296 q 761 72 664 175 q 726 -4 766 24 l 677 -4 q 587 89 621 31 l 560 95 l 529 87 l 436 28 q 265 24 351 -22 l 249 2 q 211 -105 241 -57 q 187 -203 188 -152 q 110 -296 172 -272 l 67 -290 l 46 -266 l 41 -234 q 96 -112 58 -169 l 110 -40 q 145 44 138 -2 q 179 150 174 93 q 200 234 201 189 l 206 240 q 256 378 210 318 q 311 459 262 433 l 349 459 l 377 421 q 338 280 377 346 q 313 195 335 235 l 319 168 l 338 150 q 447 193 402 143 q 554 264 509 216 q 650 366 627 292 l 667 388 l 680 434 l 723 467 l 723 467 z "},"":{"ha":448,"x_min":-4,"x_max":417,"o":"m 167 325 q 154 181 158 222 q 129 40 144 100 q 77 -16 115 -16 q 34 28 34 -16 q 63 79 34 39 q 95 138 92 119 l 118 324 l 80 324 q 10 273 44 324 l -4 273 q 109 394 40 394 l 411 394 l 411 324 l 308 324 q 299 133 299 225 q 351 61 299 61 q 399 121 393 61 l 417 121 q 394 32 416 71 q 321 -15 367 -15 q 257 41 278 -15 q 242 134 242 82 q 259 324 242 156 l 167 325 z "},"":{"ha":616,"x_min":0,"x_max":616,"o":"m 215 266 q 280 258 249 270 q 489 258 385 271 l 567 264 l 605 247 l 616 221 q 564 169 612 176 q 480 166 522 177 q 387 166 433 180 q 303 164 345 175 q 96 162 199 178 l 36 169 l 4 195 l 0 209 q 37 263 -5 251 q 169 260 104 241 l 206 260 l 215 266 l 215 266 z "},"":{"ha":785,"x_min":-6,"x_max":796,"o":"m 552 264 q 747 264 649 251 l 785 248 l 796 220 q 744 169 792 176 q 660 166 702 177 q 567 166 613 179 q 483 163 525 175 q 381 163 431 177 q 304 161 342 172 q 90 160 196 175 l 30 166 l -2 192 l -6 205 q 31 260 -11 248 l 122 251 l 200 258 l 209 262 q 366 261 288 244 q 552 264 459 248 l 552 264 z "},"":{"ha":263,"x_min":48,"x_max":219,"o":"m 184 804 q 219 782 208 805 q 184 668 225 716 l 171 636 q 126 577 142 611 l 111 564 l 93 558 q 48 587 61 556 l 54 628 l 65 638 l 68 648 q 104 710 96 674 l 122 738 q 167 802 127 782 l 184 804 l 184 804 z "},"":{"ha":260,"x_min":42,"x_max":213,"o":"m 178 802 q 213 780 202 803 q 178 666 219 714 l 164 634 q 120 575 136 609 l 105 562 l 86 556 q 42 585 55 554 l 48 626 l 59 636 l 62 646 q 98 708 90 672 l 116 736 q 161 800 121 780 l 178 802 l 178 802 z "},"":{"ha":298,"x_min":57,"x_max":223,"o":"m 157 57 q 223 15 207 62 q 156 -152 224 -81 l 115 -176 l 86 -175 l 57 -150 l 62 -115 q 106 -68 91 -99 l 109 19 l 138 52 l 157 57 l 157 57 z "},"":{"ha":412,"x_min":36,"x_max":375,"o":"m 206 778 q 185 707 214 736 l 181 692 l 160 671 q 84 567 145 602 l 53 568 l 40 579 l 36 589 q 67 663 31 634 l 132 778 l 161 805 l 195 795 l 206 778 l 206 778 m 376 750 q 343 677 377 706 l 341 667 l 327 656 q 252 567 305 597 l 217 567 l 202 579 l 198 589 q 251 700 195 656 q 326 786 270 759 l 356 779 l 376 750 l 376 750 z "},"":{"ha":424,"x_min":36,"x_max":375,"o":"m 206 775 q 185 704 214 733 l 181 689 l 160 668 q 84 564 145 600 l 53 566 l 40 577 l 36 587 q 67 660 31 631 l 132 775 l 161 802 l 195 792 l 206 775 l 206 775 m 376 748 q 343 674 377 703 l 341 665 l 327 653 q 252 564 305 595 l 217 564 l 202 577 l 198 587 q 251 697 195 653 q 326 784 270 756 l 356 776 l 376 748 l 376 748 z "},"":{"ha":531,"x_min":78,"x_max":445,"o":"m 197 46 l 221 37 l 244 4 q 174 -165 246 -94 l 136 -187 l 107 -186 l 78 -160 l 83 -126 q 127 -79 110 -107 l 130 8 l 161 42 l 178 46 l 197 46 l 197 46 m 379 41 q 445 -2 430 46 q 378 -169 446 -98 l 337 -192 l 309 -191 l 279 -166 l 283 -131 q 328 -84 312 -114 l 331 3 l 359 35 l 379 41 l 379 41 z "},"":{"ha":544,"x_min":36,"x_max":500,"o":"m 380 816 l 401 798 l 402 765 q 375 684 382 727 l 357 655 l 352 636 q 454 641 403 630 l 490 624 l 500 598 q 452 548 497 556 q 373 546 412 559 q 316 553 345 556 l 307 546 l 285 475 l 279 469 q 255 413 276 437 l 247 377 l 241 371 q 212 295 236 329 l 196 237 l 190 231 l 172 169 l 161 155 q 126 74 155 110 l 115 37 l 93 8 l 78 1 l 52 2 l 36 23 q 76 134 31 85 l 81 156 l 94 176 q 119 249 98 216 l 133 310 l 144 324 q 170 391 148 361 l 180 436 q 203 488 199 459 q 226 551 229 516 l 174 545 l 123 552 l 93 577 q 124 642 78 624 q 262 638 193 626 l 272 649 q 298 707 278 681 q 322 769 301 742 q 364 818 327 808 l 380 816 l 380 816 z "},"":{"ha":609,"x_min":33,"x_max":566,"o":"m 449 814 l 470 797 l 471 763 q 444 683 451 725 q 413 620 422 654 q 520 622 467 611 l 556 606 l 566 580 q 518 531 563 538 q 446 529 482 539 q 371 532 408 538 l 354 475 l 349 469 q 325 413 345 437 l 317 378 q 281 288 290 337 q 396 290 338 280 l 435 270 q 418 207 456 233 l 394 199 q 315 197 354 207 l 259 202 l 249 198 q 197 76 236 131 q 147 3 193 24 q 106 25 117 -3 q 139 123 101 81 q 164 177 145 153 l 169 198 q 117 196 143 204 l 70 200 l 37 227 l 33 239 q 68 291 28 278 q 144 282 107 294 l 200 291 l 204 311 q 222 361 223 332 l 239 391 l 248 433 q 273 488 268 457 l 290 518 l 291 529 l 242 527 l 191 533 l 161 558 l 156 590 l 172 612 l 192 623 q 327 621 259 608 q 374 737 364 674 q 399 793 393 762 l 410 805 l 433 816 l 449 814 l 449 814 z "},"":{"ha":340,"x_min":65,"x_max":271,"o":"m 153 502 q 260 460 217 506 l 271 416 q 225 292 282 339 l 168 277 l 107 294 l 65 364 q 107 487 55 437 l 153 502 l 153 502 z "},"":{"ha":1069,"x_min":36,"x_max":1015,"o":"m 100 90 l 117 69 l 125 43 l 123 33 l 96 4 l 66 4 l 42 23 l 36 34 q 70 92 31 74 l 100 90 l 100 90 m 526 83 q 574 47 569 85 l 572 7 l 558 -4 q 489 34 504 -15 q 526 83 484 80 l 526 83 m 992 77 l 1009 64 l 1016 46 l 1007 8 l 998 2 q 936 35 954 -8 l 944 62 l 965 77 l 992 77 l 992 77 z "},"":{"ha":1009,"x_min":30,"x_max":968,"o":"m 162 687 q 244 638 219 687 l 249 612 q 171 465 247 521 q 98 431 139 438 q 39 461 59 426 l 30 497 q 56 597 22 553 l 115 661 l 162 687 l 162 687 m 165 639 q 79 545 104 609 l 75 519 l 79 484 l 91 474 l 120 480 q 203 589 184 519 l 196 625 l 183 635 l 165 639 l 165 639 m 634 675 l 644 664 l 642 630 q 537 497 605 551 q 481 426 517 456 q 439 372 468 392 q 373 293 415 325 q 320 226 354 253 q 267 153 301 183 q 207 73 249 104 l 185 37 l 134 -1 l 100 3 l 82 30 q 128 117 80 84 l 149 152 l 169 166 q 230 246 189 215 q 279 308 247 282 l 290 328 q 358 403 335 357 q 414 470 394 430 q 456 526 443 493 l 495 572 q 575 676 512 641 l 595 682 l 634 675 l 634 675 m 882 307 q 963 256 937 306 l 968 230 q 930 124 970 169 q 817 48 887 65 q 758 81 777 44 l 749 116 l 749 158 q 882 307 781 262 l 882 307 m 884 257 q 799 164 823 229 l 793 138 l 799 102 l 810 92 q 880 133 853 93 l 902 157 l 923 209 l 915 243 l 903 253 l 884 257 l 884 257 m 606 293 q 688 242 662 292 l 693 216 q 619 73 692 129 q 543 35 587 44 q 483 67 502 30 l 474 102 l 474 144 q 606 293 506 248 l 606 293 m 609 243 q 523 150 548 216 l 518 124 l 523 88 l 534 78 q 605 119 578 79 l 626 143 l 647 195 l 640 230 l 625 241 l 609 243 l 609 243 z "},"":{"ha":406,"x_min":31,"x_max":366,"o":"m 304 496 q 333 484 323 499 l 331 464 q 282 403 315 427 l 276 394 l 263 384 q 238 353 255 365 l 235 341 q 192 293 208 322 l 182 286 q 145 239 168 258 q 108 193 133 211 l 97 175 l 119 161 l 132 144 l 159 126 l 164 116 l 172 112 l 189 93 l 202 85 l 211 73 q 256 35 237 58 q 302 -2 283 22 l 320 -8 l 343 -24 q 362 -51 349 -40 l 367 -67 l 361 -88 l 354 -93 l 332 -91 l 327 -85 l 299 -70 l 292 -60 q 255 -25 269 -48 q 212 11 230 -11 q 183 36 190 18 q 137 77 155 51 l 55 135 l 45 151 l 37 155 l 31 168 q 57 217 28 199 l 71 238 l 85 249 q 126 298 99 279 l 138 316 q 164 346 155 327 l 175 351 q 204 386 186 371 l 219 408 l 225 412 q 242 433 230 425 l 248 449 l 262 473 q 291 492 279 478 l 304 496 l 304 496 z "},"":{"ha":430,"x_min":42,"x_max":386,"o":"m 55 503 q 119 468 97 503 q 156 433 142 455 q 200 396 182 418 q 240 361 224 384 q 278 328 264 350 l 362 267 l 372 252 l 380 247 l 386 234 q 360 185 389 203 l 346 162 l 331 151 q 289 101 316 120 q 262 70 280 81 l 250 51 l 240 47 q 194 -12 213 20 l 186 -17 q 170 -39 181 -30 l 164 -55 l 149 -79 l 134 -86 l 122 -97 l 106 -103 q 77 -91 87 -106 l 79 -68 l 85 -62 q 148 13 104 -16 q 176 47 158 33 l 177 57 q 221 105 205 76 q 255 149 244 122 q 289 192 278 165 q 319 227 309 205 q 280 261 294 238 l 256 277 l 250 287 l 231 302 l 224 312 l 211 319 l 201 332 q 156 371 175 347 q 109 409 127 385 l 90 415 l 66 430 q 46 461 60 448 l 42 475 l 47 497 l 55 503 l 55 503 z "},"":{"ha":104,"x_min":-195,"x_max":244,"o":"m 225 595 l 244 595 l -177 0 l -195 0 l 225 595 z "},"":{"ha":555,"x_min":-21,"x_max":545,"o":"m 95 274 l -18 274 l -10 293 l 101 293 q 385 610 175 610 q 497 571 452 610 q 545 464 545 530 q 475 319 545 388 q 337 228 419 264 l 333 238 q 445 327 411 282 q 485 463 485 381 q 372 592 485 592 q 172 293 212 592 l 319 293 l 311 274 l 165 274 q 111 128 140 179 q 13 7 81 74 q 330 65 196 65 q 518 36 417 65 q 461 -59 484 -14 l 451 -57 l 467 -16 q 224 23 389 23 q -19 -15 106 23 l -21 -8 q 55 124 34 72 q 95 274 67 156 z "},"":{"ha":764,"x_min":15,"x_max":718,"o":"m 154 795 q 259 801 207 788 l 270 796 l 276 786 l 274 768 l 259 757 l 191 755 l 178 752 l 167 739 q 115 581 126 664 q 82 472 89 530 l 76 461 l 61 450 l 41 455 l 37 483 q 70 592 66 532 q 120 746 107 665 l 110 754 l 27 761 l 15 774 l 20 792 l 47 801 l 154 795 l 154 795 m 719 770 l 717 752 l 705 733 q 663 606 694 666 l 628 473 l 623 466 l 613 463 l 603 463 l 591 472 l 590 498 l 635 634 l 644 672 l 642 680 l 631 677 q 534 591 589 627 q 495 544 509 571 l 478 537 q 452 587 447 549 q 428 670 429 626 l 419 689 l 413 691 q 343 502 356 606 l 330 472 l 321 465 l 311 465 l 295 480 l 295 504 l 303 515 q 352 664 335 587 q 387 764 380 710 l 396 775 l 417 779 l 441 755 q 479 629 468 695 l 489 617 l 498 615 q 618 720 563 662 q 674 769 651 739 l 694 782 l 710 782 l 719 770 l 719 770 z "},"":{"ha":403,"x_min":10,"x_max":362,"o":"m 41 580 q 148 604 95 604 q 312 510 253 604 q 362 318 362 429 q 321 104 362 197 q 162 -17 267 -17 q 51 28 93 -17 q 10 141 10 72 q 52 264 10 209 q 162 326 97 326 q 233 311 203 326 q 292 270 253 301 q 301 365 301 321 q 271 500 301 448 q 158 566 235 566 q 73 540 136 566 l 41 580 m 198 294 q 108 232 142 294 q 79 120 79 180 q 154 7 79 7 q 285 242 257 7 q 198 294 240 294 z "},"":{"ha":671,"x_min":2,"x_max":632,"o":"m 554 2 q 632 -63 554 -63 l 632 -82 l 384 -82 l 384 -63 q 462 2 462 -63 l 462 563 l 172 563 l 172 3 q 251 -63 172 -63 l 251 -82 l 2 -82 l 2 -63 q 81 2 81 -63 l 81 509 q 3 589 81 589 l 3 608 l 629 608 l 629 589 q 554 509 554 589 l 554 2 z "},"":{"ha":581,"x_min":-4,"x_max":547,"o":"m 489 474 l 473 474 q 430 548 456 528 q 349 567 405 567 l 136 567 l 357 276 l 119 2 l 419 2 q 492 26 468 2 q 529 94 509 43 l 547 94 q 513 -88 523 -5 q 450 -78 455 -78 l -4 -81 l 278 241 l -2 610 q 484 603 106 603 l 489 474 z "},"":{"ha":328,"x_min":98,"x_max":194,"o":"m 129 439 q 189 414 167 447 l 194 403 q 162 324 213 341 l 123 328 l 107 343 l 99 369 l 104 403 l 129 439 l 129 439 z "},"":{"ha":448,"x_min":-4,"x_max":405,"o":"m -4 364 l 114 423 l 274 96 l 376 742 l 405 738 l 283 -31 l 87 375 l 8 338 l -4 364 z "},"":{"ha":581,"x_min":4,"x_max":542,"o":"m 427 327 l 428 328 q 509 296 477 328 q 542 215 542 264 q 511 135 542 168 q 433 101 480 101 q 345 127 386 101 q 274 187 323 141 q 202 127 222 140 q 114 101 161 101 q 35 135 66 101 q 4 215 4 167 q 38 296 4 264 q 120 327 71 327 q 274 240 178 327 q 427 327 370 327 m 120 286 q 67 264 88 286 q 47 210 47 242 q 70 159 47 180 q 123 140 92 140 q 192 164 157 140 q 248 214 205 174 q 120 286 164 286 m 426 140 q 479 160 457 140 q 502 210 502 179 q 481 264 502 242 q 429 286 461 286 q 301 215 387 286 q 426 140 378 140 z "},"":{"ha":223,"x_min":-4,"x_max":229,"o":"m 44 -87 l 44 -86 q 11 -72 25 -86 q -4 -38 -4 -57 q 7 -13 -4 -24 q 32 -2 18 -2 q 75 -28 40 -2 q 95 48 95 -28 q 93 169 95 89 q 91 289 91 249 l 91 487 q 174 741 91 741 q 229 696 229 741 q 187 661 229 661 q 147 680 181 661 q 133 655 133 681 q 140 525 133 613 q 149 304 149 425 q 95 -66 149 -9 q 44 -87 76 -87 z "},"":{"ha":448,"x_min":-1,"x_max":414,"o":"m 414 300 q 301 235 376 235 q 207 258 268 235 q 114 280 146 280 q 35 232 72 280 l -1 254 q 115 318 48 318 q 207 296 147 318 q 298 275 267 275 q 385 319 355 275 l 414 300 m 414 177 q 301 113 376 113 q 207 135 268 113 q 114 158 146 158 q 35 109 71 158 l -1 132 q 115 196 48 196 q 207 174 147 196 q 299 152 267 152 q 385 196 352 152 l 414 177 z "},"":{"ha":448,"x_min":0,"x_max":426,"o":"m 353 422 l 291 312 l 426 312 l 426 267 l 267 267 l 204 155 l 426 155 l 426 110 l 180 110 l 107 -21 l 67 2 l 127 110 l 0 110 l 0 155 l 152 155 l 214 267 l 0 267 l 0 312 l 239 312 l 313 445 l 353 422 z "},"":{"ha":448,"x_min":11,"x_max":413,"o":"m 11 44 l 413 44 l 413 0 l 11 0 l 11 44 m 11 331 l 413 517 l 413 467 l 63 306 l 413 145 l 413 95 l 11 281 l 11 331 z "},"":{"ha":448,"x_min":11,"x_max":413,"o":"m 413 0 l 11 0 l 11 44 l 413 44 l 413 0 m 413 281 l 11 95 l 11 145 l 361 306 l 11 467 l 11 517 l 413 331 l 413 281 z "},"":{"ha":403,"x_min":3,"x_max":366,"o":"m 160 0 l 3 305 l 160 603 l 210 603 l 366 305 l 210 0 l 160 0 m 184 559 l 52 305 l 184 44 l 318 305 l 184 559 z "},"":{"ha":523,"x_min":0,"x_max":0,"o":""},"":{"ha":726,"x_min":62,"x_max":698,"o":"m 520 817 l 580 798 l 628 771 q 688 691 649 724 l 698 671 q 679 621 703 640 l 650 620 l 621 640 q 519 723 602 721 q 355 651 422 730 l 314 606 l 306 586 q 465 587 386 576 q 503 567 487 583 q 493 515 519 537 l 463 501 q 389 499 426 511 l 361 506 q 276 506 319 499 l 252 503 q 205 422 211 473 l 194 407 l 196 402 q 336 400 266 411 l 403 406 q 448 361 446 400 q 401 320 439 326 q 327 318 364 330 l 299 325 q 215 325 257 318 l 172 319 q 170 196 153 257 q 191 143 187 172 q 293 104 225 87 q 352 116 321 116 q 424 140 386 134 q 474 149 447 159 l 489 128 l 480 101 l 443 71 q 371 31 402 60 l 318 13 l 309 5 l 267 1 l 229 5 l 191 19 l 173 37 l 156 46 l 121 77 l 116 98 l 97 123 q 81 248 80 184 l 76 275 q 87 327 90 299 l 66 346 l 63 358 q 95 407 58 395 l 109 408 l 121 450 l 136 466 l 143 486 l 155 501 l 128 527 q 157 588 113 572 l 206 587 l 245 649 q 301 707 265 687 l 313 723 q 364 759 342 735 l 373 761 l 379 770 q 468 800 420 795 l 506 817 l 520 817 l 520 817 z "},"":{"ha":248,"x_min":0,"x_max":0,"o":""}}}
